{
.appVersion = "934";
copyright = "Copyright (c) 2011, Cyreal (www.cyreal.org) with Reserved Font Name \"Podkova\"";
customParameters = (
{
name = trademark;
value = "Podkova is a trademark of Cyreal (www.cyreal.org).";
},
{
name = license;
value = "This Font Software is licensed under the SIL Open Font License, Version 1.1. This license is available with a FAQ at: http://scripts.sil.org/OFL";
},
{
name = licenseURL;
value = "http://scripts.sil.org/OFL";
},
{
name = fsType;
value = (
);
},
{
name = "Use Typo Metrics";
value = 1;
},
{
name = "Disable Last Change";
value = 1;
},
{
name = "Use Line Breaks";
value = 1;
}
);
date = "2016-10-31 19:49:04 +0000";
designer = "Ilya Yudin";
designerURL = "http://cyreal.org";
familyName = Podkova;
featurePrefixes = (
{
code = "@_KERN_A=[A  Aacute Acircumflex Adieresis Agrave Aring Atilde];
@_KERN_C_1ST=[C  Ccedilla];
@_KERN_D_1ST=[D  Eth];
@_KERN_E_1ST=[E  AE Eacute Ecircumflex Edieresis Egrave OE];
@_KERN_I_1ST=[I  H Iacute Icircumflex Idieresis Igrave M N Ntilde];
@_KERN_I_2ND=[I  B D E Eacute Ecircumflex Edieresis Egrave Eth F H Iacute Icircumflex Idieresis Igrave K L M N Ntilde P R Thorn];
@_KERN_O_1ST=[O  Oacute Ocircumflex Odieresis Ograve Oslash Otilde Q];
@_KERN_O_2ND=[O  C Ccedilla G OE Oacute Ocircumflex Odieresis Ograve Oslash Otilde Q];
@_KERN_U=[U  Uacute Ucircumflex Udieresis Ugrave];
@_KERN_Y=[Y  Yacute];
@_KERN_a_1ST=[a  aacute acircumflex adieresis agrave aring atilde];
@_KERN_a_2ND=[a  aacute acircumflex adieresis ae agrave aring atilde];
@_KERN_b_2ND=[b  thorn];
@_KERN_c_1ST=[c  ccedilla];
@_KERN_e_1ST=[e  ae eacute ecircumflex edieresis egrave oe];
@_KERN_f_2ND=[f  germandbls];
@_KERN_guilsinglleft=[guilsinglleft  guillemotleft];
@_KERN_guilsinglright=[guilsinglright  guillemotright];
@_KERN_h_2ND=[h  k l];
@_KERN_hyphen=[hyphen  emdash endash uni00AD];
@_KERN_i=[i  dotlessi iacute icircumflex idieresis igrave];
@_KERN_n_1ST=[n  h m ntilde];
@_KERN_n_2ND=[n  m ntilde r];

glyphs = (
{
glyphname = A;
layers = (
{
layerId = UUID0;
paths = (
{
closed = 1;
nodes = (
"167 520 LINE",
"268 520 LINE",
"102 69 LINE",
"6 69 LINE",
"6 0 LINE",
"239 0 LINE",
"239 69 LINE",
"175 69 LINE",
"209 160 LINE",
"425 160 LINE",
"457 69 LINE",
"394 69 LINE",
"394 0 LINE",
"637 0 LINE",
"637 69 LINE",
"542 69 LINE",
"361 589 LINE",
"167 589 LINE"
);
},
{
closed = 1;
nodes = (
"401 229 LINE",
"234 229 LINE",
"322 488 LINE"
);
}
);
width = 647;
},
{
background = {
paths = (
{
closed = 1;
nodes = (
"637 69 LINE",
"542 69 LINE",
"361 589 LINE",
"167 589 LINE",
"167 520 LINE",
"268 520 LINE",
"102 69 LINE",
"6 69 LINE",
"6 0 LINE",
"239 0 LINE",
"239 69 LINE",
"175 69 LINE",
"209 160 LINE",
"425 160 LINE",
"457 69 LINE",
"394 69 LINE",
"394 0 LINE",
"637 0 LINE"
);
},
{
closed = 1;
nodes = (
"322 488 LINE",
"401 229 LINE",
"234 229 LINE"
);
}
);
};
layerId = "6E1B38A8-44EA-440A-BD04-FE41D2B0BC62";
paths = (
{
closed = 1;
nodes = (
"151 477 LINE",
"229 477 LINE",
"103 112 LINE",
"4 112 LINE",
"4 0 LINE",
"270 0 LINE",
"270 112 LINE",
"215 112 LINE",
"241 197 LINE",
"403 197 LINE",
"428 112 LINE",
"379 112 LINE",
"379 0 LINE",
"644 0 LINE",
"644 112 LINE",
"556 112 LINE",
"391 589 LINE",
"151 589 LINE"
);
},
{
closed = 1;
nodes = (
"379 279 LINE",
"266 279 LINE",
"323 470 LINE"
);
}
);
width = 648;
}
);
leftKerningGroup = A;
rightKerningGroup = A;
unicode = 0041;
},
{
glyphname = Aacute;
layers = (
{
background = {
paths = (
{
closed = 1;
nodes = (
"272 674 LINE",
"282 638 LINE",
"534 685 LINE",
"516 758 LINE"
);
}
);
};
components = (
{
name = A;
},
{
name = Acute;
transform = "{1, 0, 0, 1, 241, 0}";
}
);
layerId = UUID0;
width = 647;
},
{
components = (
{
name = A;
},
{
name = acute;
transform = "{1, 0, 0, 1, 194, 135}";
}
);
layerId = "6E1B38A8-44EA-440A-BD04-FE41D2B0BC62";
width = 648;
}
);
leftKerningGroup = A;
rightKerningGroup = A;
unicode = 00C1;
},
{
glyphname = Agrave;
layers = (
{
background = {
paths = (
{
closed = 1;
nodes = (
"369 675 LINE",
"359 639 LINE",
"107 686 LINE",
"125 759 LINE"
);
}
);
};
components = (
{
name = A;
},
{
name = Grave;
transform = "{1, 0, 0, 1, 70, -3}";
}
);
layerId = UUID0;
width = 647;
},
{
components = (
{
name = A;
},
{
name = grave;
transform = "{1, 0, 0, 1, 92, 135}";
}
);
layerId = "6E1B38A8-44EA-440A-BD04-FE41D2B0BC62";
width = 648;
}
);
leftKerningGroup = A;
rightKerningGroup = A;
unicode = 00C0;
},
{
glyphname = Aring;
layers = (
{
background = {
paths = (
{
closed = 1;
nodes = (
"235 672 OFFCURVE",
"274 633 OFFCURVE",
"322 633 CURVE SMOOTH",
"369 633 OFFCURVE",
"408 672 OFFCURVE",
"408 719 CURVE SMOOTH",
"408 766 OFFCURVE",
"369 805 OFFCURVE",
"322 805 CURVE SMOOTH",
"274 805 OFFCURVE",
"235 766 OFFCURVE",
"235 719 CURVE SMOOTH"
);
},
{
closed = 1;
nodes = (
"286 738 OFFCURVE",
"303 755 OFFCURVE",
"322 755 CURVE SMOOTH",
"340 755 OFFCURVE",
"357 738 OFFCURVE",
"357 719 CURVE",
"357 704 LINE",
"336 683 LINE",
"322 683 LINE SMOOTH",
"303 683 OFFCURVE",
"286 700 OFFCURVE",
"286 719 CURVE SMOOTH"
);
}
);
};
components = (
{
name = A;
},
{
name = ring;
transform = "{1, 0, 0, 1, 203, 8}";
}
);
layerId = UUID0;
width = 647;
},
{
components = (
{
name = A;
},
{
name = ring;
transform = "{1, 0, 0, 1, 163, 135}";
}
);
layerId = "6E1B38A8-44EA-440A-BD04-FE41D2B0BC62";
width = 648;
}
);
leftKerningGroup = A;
rightKerningGroup = A;
unicode = 00C5;
},
{
glyphname = AE;
layers = (
{
layerId = UUID0;
paths = (
{
closed = 1;
nodes = (
"289 520 LINE",
"392 520 LINE",
"106 69 LINE",
"6 69 LINE",
"6 0 LINE",
"246 0 LINE",
"246 69 LINE",
"188 69 LINE",
"244 160 LINE",
"470 160 LINE",
"470 69 LINE",
"375 69 LINE",
"375 0 LINE",
"813 0 LINE",
"864 154 LINE",
"798 176 LINE",
"758 69 LINE",
"550 69 LINE",
"550 260 LINE",
"711 260 LINE",
"711 329 LINE",
"551 329 LINE",
"551 520 LINE",
"738 520 LINE",
"778 413 LINE",
"844 435 LINE",
"792 589 LINE",
"289 589 LINE"
);
},
{
closed = 1;
nodes = (
"471 520 LINE",
"470 229 LINE",
"287 229 LINE",
"469 520 LINE"
);
}
);
width = 906;
},
{
background = {
paths = (
{
closed = 1;
nodes = (
"373 0 LINE",
"810 0 LINE",
"861 154 LINE",
"795 176 LINE",
"755 69 LINE",
"547 69 LINE",
"547 260 LINE",
"708 260 LINE",
"708 329 LINE",
"548 329 LINE",
"548 520 LINE",
"735 520 LINE",
"775 413 LINE",
"841 435 LINE",
"790 589 LINE",
"286 589 LINE",
"286 520 LINE",
"389 520 LINE",
"104 69 LINE",
"3 69 LINE",
"3 0 LINE",
"243 0 LINE",
"243 69 LINE",
"185 69 LINE",
"241 160 LINE",
"467 160 LINE",
"467 69 LINE",
"373 69 LINE"
);
},
{
closed = 1;
nodes = (
"468 520 LINE",
"467 229 LINE",
"284 229 LINE",
"466 520 LINE"
);
}
);
};
layerId = "6E1B38A8-44EA-440A-BD04-FE41D2B0BC62";
paths = (
{
closed = 1;
nodes = (
"228 477 LINE",
"318 477 LINE",
"97 112 LINE",
"4 112 LINE",
"4 0 LINE",
"271 0 LINE",
"271 112 LINE",
"220 112 LINE",
"258 177 LINE",
"429 177 LINE",
"429 112 LINE",
"346 112 LINE",
"346 0 LINE",
"831 0 LINE",
"891 173 LINE",
"786 210 LINE",
"750 112 LINE",
"558 112 LINE",
"558 243 LINE",
"720 243 LINE",
"720 354 LINE",
"558 354 LINE",
"558 477 LINE",
"724 477 LINE",
"760 368 LINE",
"867 404 LINE",
"805 589 LINE",
"228 589 LINE"
);
},
{
closed = 1;
nodes = (
"429 288 LINE",
"321 288 LINE",
"429 477 LINE"
);
}
);
width = 904;
}
);
rightKerningGroup = E;
unicode = 00C6;
},
{
glyphname = B;
layers = (
{
layerId = UUID0;
paths = (
{
closed = 1;
nodes = (
"47 589 LINE",
"47 520 LINE",
"142 520 LINE",
"142 69 LINE",
"47 69 LINE",
"47 0 LINE",
"344 0 LINE SMOOTH",
"479 0 OFFCURVE",
"541 68 OFFCURVE",
"541 161 CURVE SMOOTH",
"541 233 OFFCURVE",
"497 284 OFFCURVE",
"441 304 CURVE",
"491 330 OFFCURVE",
"522 381 OFFCURVE",
"522 435 CURVE SMOOTH",
"522 535 OFFCURVE",
"445 589 OFFCURVE",
"302 589 CURVE SMOOTH"
);
},
{
closed = 1;
nodes = (
"221 70 LINE",
"222 268 LINE",
"346 268 LINE",
"417 268 OFFCURVE",
"456 233 OFFCURVE",
"456 172 CURVE SMOOTH",
"456 104 OFFCURVE",
"415 70 OFFCURVE",
"340 70 CURVE SMOOTH"
);
},
{
closed = 1;
nodes = (
"222 328 LINE",
"222 520 LINE",
"313 520 LINE",
"394 520 OFFCURVE",
"437 490 OFFCURVE",
"437 424 CURVE SMOOTH",
"437 365 OFFCURVE",
"405 328 OFFCURVE",
"347 328 CURVE SMOOTH"
);
}
);
width = 600;
},
{
background = {
paths = (
{
closed = 1;
nodes = (
"41 589 LINE",
"41 477 LINE",
"122 477 LINE",
"122 112 LINE",
"41 112 LINE",
"41 0 LINE",
"368 0 LINE SMOOTH",
"505 0 OFFCURVE",
"569 64 OFFCURVE",
"569 165 CURVE SMOOTH",
"569 216 OFFCURVE",
"542 275 OFFCURVE",
"492 299 CURVE",
"536 338 OFFCURVE",
"551 378 OFFCURVE",
"551 416 CURVE SMOOTH",
"551 545 OFFCURVE",
"474 589 OFFCURVE",
"306 589 CURVE SMOOTH"
);
},
{
closed = 1;
nodes = (
"251 112 LINE",
"251 244 LINE",
"351 244 LINE SMOOTH",
"406 244 OFFCURVE",
"436 228 OFFCURVE",
"436 179 CURVE SMOOTH",
"436 120 OFFCURVE",
"403 112 OFFCURVE",
"345 112 CURVE SMOOTH"
);
},
{
closed = 1;
nodes = (
"251 345 LINE",
"251 477 LINE",
"317 477 LINE SMOOTH",
"391 477 OFFCURVE",
"417 458 OFFCURVE",
"417 410 CURVE SMOOTH",
"417 355 OFFCURVE",
"372 345 OFFCURVE",
"352 345 CURVE SMOOTH"
);
}
);
};
layerId = "6E1B38A8-44EA-440A-BD04-FE41D2B0BC62";
paths = (
{
closed = 1;
nodes = (
"41 589 LINE",
"41 477 LINE",
"122 477 LINE",
"122 112 LINE",
"41 112 LINE",
"41 0 LINE",
"368 0 LINE SMOOTH",
"499 0 OFFCURVE",
"569 58 OFFCURVE",
"569 162 CURVE SMOOTH",
"569 234 OFFCURVE",
"535 281 OFFCURVE",
"472 299 CURVE",
"523 324 OFFCURVE",
"551 369 OFFCURVE",
"551 429 CURVE SMOOTH",
"551 532 OFFCURVE",
"465 589 OFFCURVE",
"306 589 CURVE SMOOTH"
);
},
{
closed = 1;
nodes = (
"251 112 LINE",
"251 244 LINE",
"351 244 LINE SMOOTH",
"406 244 OFFCURVE",
"436 221 OFFCURVE",
"436 179 CURVE SMOOTH",
"436 135 OFFCURVE",
"404 112 OFFCURVE",
"345 112 CURVE SMOOTH"
);
},
{
closed = 1;
nodes = (
"251 345 LINE",
"251 477 LINE",
"317 477 LINE SMOOTH",
"382 477 OFFCURVE",
"417 454 OFFCURVE",
"417 410 CURVE SMOOTH",
"417 368 OFFCURVE",
"394 345 OFFCURVE",
"352 345 CURVE SMOOTH"
);
}
);
width = 614;
},
{
associatedMasterId = "6E1B38A8-44EA-440A-BD04-FE41D2B0BC62";
background = {
paths = (
{
closed = 1;
nodes = (
"480 210 LINE",
"445 111 LINE",
"251 111 LINE",
"252 243 LINE",
"415 243 LINE",
"415 354 LINE",
"252 354 LINE",
"252 477 LINE",
"418 477 LINE",
"455 368 LINE",
"561 404 LINE",
"499 589 LINE",
"42 589 LINE",
"42 477 LINE",
"123 477 LINE",
"122 111 LINE",
"41 111 LINE",
"41 0 LINE",
"525 0 LINE",
"585 173 LINE"
);
}
);
};
layerId = "34DD3F09-0246-4E3A-902F-751AF2FC2771";
name = "Nov 1 16, 12:54";
paths = (
{
closed = 1;
nodes = (
"41 589 LINE",
"41 477 LINE",
"122 477 LINE",
"122 112 LINE",
"41 112 LINE",
"41 0 LINE",
"368 0 LINE SMOOTH",
"505 0 OFFCURVE",
"569 64 OFFCURVE",
"569 165 CURVE SMOOTH",
"569 216 OFFCURVE",
"542 275 OFFCURVE",
"492 299 CURVE",
"536 338 OFFCURVE",
"551 378 OFFCURVE",
"551 416 CURVE SMOOTH",
"551 545 OFFCURVE",
"474 589 OFFCURVE",
"306 589 CURVE SMOOTH"
);
},
{
closed = 1;
nodes = (
"251 112 LINE",
"251 244 LINE",
"351 244 LINE SMOOTH",
"406 244 OFFCURVE",
"436 228 OFFCURVE",
"436 179 CURVE SMOOTH",
"436 120 OFFCURVE",
"403 112 OFFCURVE",
"345 112 CURVE SMOOTH"
);
},
{
closed = 1;
nodes = (
"251 345 LINE",
"251 477 LINE",
"317 477 LINE SMOOTH",
"391 477 OFFCURVE",
"417 458 OFFCURVE",
"417 410 CURVE SMOOTH",
"417 355 OFFCURVE",
"372 345 OFFCURVE",
"352 345 CURVE SMOOTH"
);
}
);
width = 587;
},
{
associatedMasterId = UUID0;
layerId = "4ED47EDE-D14B-4714-A4A4-5BA0313D6989";
name = "Nov 1 16, 12:59";
paths = (
{
closed = 1;
nodes = (
"48 589 LINE",
"48 520 LINE",
"143 520 LINE",
"143 69 LINE",
"48 69 LINE",
"48 0 LINE",
"365 0 LINE SMOOTH",
"490 0 OFFCURVE",
"542 76 OFFCURVE",
"542 174 CURVE SMOOTH",
"542 229 OFFCURVE",
"506 283 OFFCURVE",
"452 304 CURVE",
"485 326 OFFCURVE",
"523 379 OFFCURVE",
"523 435 CURVE SMOOTH",
"523 547 OFFCURVE",
"454 589 OFFCURVE",
"303 589 CURVE SMOOTH"
);
},
{
closed = 1;
nodes = (
"222 70 LINE",
"223 268 LINE",
"347 268 LINE",
"419 268 OFFCURVE",
"457 237 OFFCURVE",
"457 174 CURVE SMOOTH",
"457 103 OFFCURVE",
"414 70 OFFCURVE",
"341 70 CURVE SMOOTH"
);
},
{
closed = 1;
nodes = (
"223 328 LINE",
"223 520 LINE",
"314 520 LINE",
"379 520 OFFCURVE",
"438 521 OFFCURVE",
"438 434 CURVE SMOOTH",
"438 345 OFFCURVE",
"376 328 OFFCURVE",
"348 328 CURVE SMOOTH"
);
}
);
width = 601;
}
);
leftKerningGroup = I;
leftMetricsKey = H;
unicode = 0042;
},
{
glyphname = C;
layers = (
{
layerId = UUID0;
paths = (
{
closed = 1;
nodes = (
"475 426 LINE",
"543 441 LINE",
"521 557 LINE",
"521 558 OFFCURVE",
"469 603 OFFCURVE",
"337 604 CURVE SMOOTH",
"165 605 OFFCURVE",
"53 483 OFFCURVE",
"54 295 CURVE SMOOTH",
"55 105 OFFCURVE",
"166 -15 OFFCURVE",
"338 -15 CURVE SMOOTH",
"446 -15 OFFCURVE",
"517 22 OFFCURVE",
"517 22 CURVE",
"542 138 LINE",
"474 154 LINE",
"455 74 LINE",
"430 65 OFFCURVE",
"388 53 OFFCURVE",
"338 53 CURVE SMOOTH",
"212 53 OFFCURVE",
"139 143 OFFCURVE",
"139 295 CURVE SMOOTH",
"139 444 OFFCURVE",
"209 536 OFFCURVE",
"338 536 CURVE SMOOTH",
"396 536 OFFCURVE",
"435 523 OFFCURVE",
"455 512 CURVE"
);
}
);
width = 594;
},
{
background = {
paths = (
{
closed = 1;
nodes = (
"471 154 LINE",
"452 74 LINE",
"427 65 OFFCURVE",
"385 53 OFFCURVE",
"335 53 CURVE SMOOTH",
"209 53 OFFCURVE",
"136 143 OFFCURVE",
"136 295 CURVE SMOOTH",
"136 444 OFFCURVE",
"207 536 OFFCURVE",
"335 536 CURVE SMOOTH",
"394 536 OFFCURVE",
"432 523 OFFCURVE",
"452 512 CURVE",
"472 426 LINE",
"541 441 LINE",
"519 557 LINE",
"518 558 OFFCURVE",
"466 603 OFFCURVE",
"334 604 CURVE SMOOTH",
"162 605 OFFCURVE",
"50 483 OFFCURVE",
"51 295 CURVE SMOOTH",
"52 105 OFFCURVE",
"163 -15 OFFCURVE",
"335 -15 CURVE SMOOTH",
"443 -15 OFFCURVE",
"514 22 OFFCURVE",
"514 22 CURVE",
"539 138 LINE"
);
}
);
};
layerId = "6E1B38A8-44EA-440A-BD04-FE41D2B0BC62";
paths = (
{
closed = 1;
nodes = (
"456 384 LINE",
"565 408 LINE",
"535 558 LINE",
"535 558 OFFCURVE",
"461 611 OFFCURVE",
"337 611 CURVE SMOOTH",
"152 611 OFFCURVE",
"30 495 OFFCURVE",
"30 296 CURVE SMOOTH",
"30 75 OFFCURVE",
"156 -22 OFFCURVE",
"338 -22 CURVE SMOOTH",
"452 -22 OFFCURVE",
"532 25 OFFCURVE",
"532 25 CURVE",
"564 176 LINE",
"456 201 LINE",
"434 111 LINE",
"434 111 OFFCURVE",
"388 86 OFFCURVE",
"338 86 CURVE SMOOTH",
"228 86 OFFCURVE",
"164 160 OFFCURVE",
"164 296 CURVE SMOOTH",
"164 430 OFFCURVE",
"226 503 OFFCURVE",
"338 503 CURVE SMOOTH",
"382 503 OFFCURVE",
"434 488 OFFCURVE",
"434 487 CURVE"
);
}
);
width = 587;
}
);
leftKerningGroup = O;
rightKerningGroup = C;
unicode = 0043;
},
{
glyphname = Ccedilla;
layers = (
{
background = {
paths = (
{
closed = 1;
nodes = (
"322 10 LINE",
"322 10 OFFCURVE",
"276 25 OFFCURVE",
"273 27 CURVE",
"273 -112 LINE",
"313 -112 LINE SMOOTH",
"369 -112 OFFCURVE",
"376 -125 OFFCURVE",
"376 -144 CURVE SMOOTH",
"376 -162 OFFCURVE",
"361 -177 OFFCURVE",
"324 -177 CURVE SMOOTH",
"279 -177 OFFCURVE",
"240 -149 OFFCURVE",
"240 -149 CURVE",
"216 -185 LINE",
"227 -193 OFFCURVE",
"268 -223 OFFCURVE",
"325 -223 CURVE SMOOTH",
"384 -223 OFFCURVE",
"436 -200 OFFCURVE",
"436 -144 CURVE SMOOTH",
"436 -91 OFFCURVE",
"396 -68 OFFCURVE",
"326 -68 CURVE SMOOTH",
"322 -68 LINE"
);
}
);
};
layerId = UUID0;
paths = (
{
closed = 1;
nodes = (
"476 426 LINE",
"544 441 LINE",
"522 557 LINE",
"521 558 OFFCURVE",
"470 603 OFFCURVE",
"338 604 CURVE SMOOTH",
"166 605 OFFCURVE",
"54 483 OFFCURVE",
"55 295 CURVE SMOOTH",
"56 130 OFFCURVE",
"139 18 OFFCURVE",
"273 -8 CURVE",
"273 -112 LINE",
"313 -112 LINE SMOOTH",
"369 -112 OFFCURVE",
"376 -125 OFFCURVE",
"376 -144 CURVE SMOOTH",
"376 -162 OFFCURVE",
"361 -177 OFFCURVE",
"324 -177 CURVE SMOOTH",
"279 -177 OFFCURVE",
"240 -149 OFFCURVE",
"240 -149 CURVE",
"216 -185 LINE",
"227 -193 OFFCURVE",
"268 -223 OFFCURVE",
"325 -223 CURVE SMOOTH",
"384 -223 OFFCURVE",
"436 -200 OFFCURVE",
"436 -144 CURVE SMOOTH",
"436 -91 OFFCURVE",
"396 -68 OFFCURVE",
"326 -68 CURVE SMOOTH",
"322 -68 LINE",
"322 -14 LINE",
"327 -15 OFFCURVE",
"333 -15 OFFCURVE",
"339 -15 CURVE SMOOTH",
"447 -15 OFFCURVE",
"518 22 OFFCURVE",
"518 22 CURVE",
"542 138 LINE",
"475 154 LINE",
"456 74 LINE",
"431 65 OFFCURVE",
"389 53 OFFCURVE",
"339 53 CURVE SMOOTH",
"213 53 OFFCURVE",
"140 143 OFFCURVE",
"140 295 CURVE SMOOTH",
"140 444 OFFCURVE",
"210 536 OFFCURVE",
"339 536 CURVE SMOOTH",
"397 536 OFFCURVE",
"436 523 OFFCURVE",
"456 512 CURVE"
);
}
);
width = 594;
},
{
layerId = "6E1B38A8-44EA-440A-BD04-FE41D2B0BC62";
paths = (
{
closed = 1;
nodes = (
"456 384 LINE",
"565 408 LINE",
"535 558 LINE",
"535 558 OFFCURVE",
"461 611 OFFCURVE",
"337 611 CURVE SMOOTH",
"152 611 OFFCURVE",
"30 495 OFFCURVE",
"30 296 CURVE SMOOTH",
"30 103 OFFCURVE",
"126 5 OFFCURVE",
"271 -17 CURVE",
"271 -97 LINE",
"336 -97 LINE SMOOTH",
"375 -97 OFFCURVE",
"385 -114 OFFCURVE",
"385 -129 CURVE SMOOTH",
"385 -152 OFFCURVE",
"374 -169 OFFCURVE",
"346 -169 CURVE SMOOTH",
"306 -169 OFFCURVE",
"279 -157 OFFCURVE",
"251 -139 CURVE",
"215 -191 LINE",
"246 -213 OFFCURVE",
"290 -239 OFFCURVE",
"347 -239 CURVE SMOOTH",
"419 -239 OFFCURVE",
"482 -208 OFFCURVE",
"482 -135 CURVE SMOOTH",
"482 -70 OFFCURVE",
"439 -44 OFFCURVE",
"349 -47 CURVE",
"349 -22 LINE",
"457 -19 OFFCURVE",
"532 25 OFFCURVE",
"532 25 CURVE",
"564 176 LINE",
"456 201 LINE",
"434 111 LINE",
"434 111 OFFCURVE",
"388 86 OFFCURVE",
"338 86 CURVE SMOOTH",
"228 86 OFFCURVE",
"164 160 OFFCURVE",
"164 296 CURVE SMOOTH",
"164 430 OFFCURVE",
"226 503 OFFCURVE",
"338 503 CURVE SMOOTH",
"382 503 OFFCURVE",
"434 488 OFFCURVE",
"434 487 CURVE"
);
}
);
width = 580;
}
);
leftKerningGroup = O;
rightKerningGroup = C;
unicode = 00C7;
},
{
glyphname = D;
layers = (
{
background = {
paths = (
{
closed = 1;
nodes = (
"48 589 LINE",
"48 520 LINE",
"143 520 LINE",
"143 69 LINE",
"48 69 LINE",
"48 0 LINE",
"322 0 LINE SMOOTH",
"488 0 OFFCURVE",
"617 109 OFFCURVE",
"617 285 CURVE SMOOTH",
"617 517 OFFCURVE",
"494 589 OFFCURVE",
"314 589 CURVE"
);
},
{
closed = 1;
nodes = (
"314 521 LINE",
"448 521 OFFCURVE",
"532 483 OFFCURVE",
"532 285 CURVE SMOOTH",
"532 144 OFFCURVE",
"454 67 OFFCURVE",
"304 68 CURVE SMOOTH",
"223 69 LINE",
"223 521 LINE"
);
}
);
};
layerId = UUID0;
paths = (
{
closed = 1;
nodes = (
"48 589 LINE",
"48 520 LINE",
"143 520 LINE",
"143 69 LINE",
"48 69 LINE",
"48 0 LINE",
"322 0 LINE SMOOTH",
"488 0 OFFCURVE",
"617 109 OFFCURVE",
"617 285 CURVE SMOOTH",
"617 517 OFFCURVE",
"494 589 OFFCURVE",
"314 589 CURVE SMOOTH"
);
},
{
closed = 1;
nodes = (
"223 69 LINE",
"223 520 LINE",
"223 520 LINE",
"314 520 LINE SMOOTH",
"454 520 OFFCURVE",
"532 478 OFFCURVE",
"532 285 CURVE SMOOTH",
"532 144 OFFCURVE",
"454 69 OFFCURVE",
"304 69 CURVE SMOOTH"
);
}
);
width = 672;
},
{
background = {
paths = (
{
closed = 1;
nodes = (
"48 589 LINE",
"48 520 LINE",
"144 520 LINE",
"144 69 LINE",
"48 69 LINE",
"48 0 LINE",
"322 0 LINE SMOOTH",
"488 0 OFFCURVE",
"617 109 OFFCURVE",
"617 285 CURVE SMOOTH",
"617 517 OFFCURVE",
"495 589 OFFCURVE",
"314 589 CURVE SMOOTH"
);
},
{
closed = 1;
nodes = (
"224 520 LINE",
"314 520 LINE SMOOTH",
"455 520 OFFCURVE",
"532 478 OFFCURVE",
"532 285 CURVE SMOOTH",
"532 144 OFFCURVE",
"455 69 OFFCURVE",
"304 69 CURVE SMOOTH",
"224 69 LINE",
"224 520 LINE"
);
}
);
};
layerId = "6E1B38A8-44EA-440A-BD04-FE41D2B0BC62";
paths = (
{
closed = 1;
nodes = (
"41 589 LINE",
"41 477 LINE",
"122 477 LINE",
"122 112 LINE",
"41 112 LINE",
"41 0 LINE",
"325 0 LINE SMOOTH",
"505 0 OFFCURVE",
"635 69 OFFCURVE",
"635 283 CURVE SMOOTH",
"635 506 OFFCURVE",
"512 589 OFFCURVE",
"317 589 CURVE SMOOTH"
);
},
{
closed = 1;
nodes = (
"251 112 LINE",
"251 477 LINE",
"317 477 LINE SMOOTH",
"442 477 OFFCURVE",
"501 429 OFFCURVE",
"501 282 CURVE SMOOTH",
"501 141 OFFCURVE",
"441 112 OFFCURVE",
"307 112 CURVE SMOOTH"
);
}
);
width = 665;
}
);
leftKerningGroup = I;
rightKerningGroup = D;
unicode = 0044;
},
{
glyphname = Eth;
layers = (
{
background = {
paths = (
{
closed = 1;
nodes = (
"50 589 LINE",
"50 520 LINE",
"145 520 LINE",
"145 69 LINE",
"50 69 LINE",
"50 0 LINE",
"324 0 LINE SMOOTH",
"490 0 OFFCURVE",
"619 109 OFFCURVE",
"619 285 CURVE SMOOTH",
"619 517 OFFCURVE",
"496 589 OFFCURVE",
"316 589 CURVE"
);
},
{
closed = 1;
nodes = (
"316 521 LINE",
"450 521 OFFCURVE",
"534 483 OFFCURVE",
"534 285 CURVE SMOOTH",
"534 144 OFFCURVE",
"456 67 OFFCURVE",
"306 68 CURVE SMOOTH",
"225 69 LINE",
"225 521 LINE"
);
},
{
closed = 1;
nodes = (
"50 272 LINE",
"338 272 LINE",
"338 336 LINE",
"50 336 LINE"
);
}
);
};
layerId = UUID0;
paths = (
{
closed = 1;
nodes = (
"50 589 LINE",
"50 520 LINE",
"145 520 LINE",
"145 336 LINE",
"50 336 LINE",
"50 272 LINE",
"145 272 LINE",
"145 69 LINE",
"50 69 LINE",
"50 0 LINE",
"324 0 LINE SMOOTH",
"490 0 OFFCURVE",
"619 109 OFFCURVE",
"619 285 CURVE SMOOTH",
"619 517 OFFCURVE",
"496 589 OFFCURVE",
"316 589 CURVE SMOOTH"
);
},
{
closed = 1;
nodes = (
"225 69 LINE",
"225 272 LINE",
"338 272 LINE",
"338 336 LINE",
"225 336 LINE",
"225 520 LINE",
"316 520 LINE SMOOTH",
"456 520 OFFCURVE",
"534 478 OFFCURVE",
"534 285 CURVE SMOOTH",
"534 144 OFFCURVE",
"456 69 OFFCURVE",
"306 69 CURVE SMOOTH"
);
}
);
width = 674;
},
{
background = {
paths = (
{
closed = 1;
nodes = (
"50 272 LINE",
"145 272 LINE",
"145 69 LINE",
"50 69 LINE",
"50 0 LINE",
"324 0 LINE SMOOTH",
"490 0 OFFCURVE",
"619 109 OFFCURVE",
"619 285 CURVE SMOOTH",
"619 517 OFFCURVE",
"496 589 OFFCURVE",
"316 589 CURVE SMOOTH",
"50 589 LINE",
"50 520 LINE",
"145 520 LINE",
"145 336 LINE",
"50 336 LINE"
);
},
{
closed = 1;
nodes = (
"225 520 LINE",
"316 520 LINE SMOOTH",
"456 520 OFFCURVE",
"534 478 OFFCURVE",
"534 285 CURVE SMOOTH",
"534 144 OFFCURVE",
"456 69 OFFCURVE",
"306 69 CURVE SMOOTH",
"225 69 LINE",
"225 272 LINE",
"338 272 LINE",
"338 336 LINE",
"225 336 LINE"
);
}
);
};
layerId = "6E1B38A8-44EA-440A-BD04-FE41D2B0BC62";
paths = (
{
closed = 1;
nodes = (
"41 589 LINE",
"41 477 LINE",
"122 477 LINE",
"122 360 LINE",
"41 360 LINE",
"41 249 LINE",
"122 249 LINE",
"122 112 LINE",
"41 112 LINE",
"41 0 LINE",
"325 0 LINE SMOOTH",
"505 0 OFFCURVE",
"635 69 OFFCURVE",
"635 283 CURVE SMOOTH",
"635 506 OFFCURVE",
"512 589 OFFCURVE",
"317 589 CURVE SMOOTH"
);
},
{
closed = 1;
nodes = (
"251 112 LINE",
"251 249 LINE",
"341 249 LINE",
"341 360 LINE",
"251 360 LINE",
"251 477 LINE",
"317 477 LINE SMOOTH",
"442 477 OFFCURVE",
"501 429 OFFCURVE",
"501 282 CURVE SMOOTH",
"501 141 OFFCURVE",
"441 112 OFFCURVE",
"307 112 CURVE SMOOTH"
);
}
);
width = 665;
}
);
leftKerningGroup = I;
rightKerningGroup = D;
unicode = 00D0;
},
{
glyphname = E;
layers = (
{
layerId = UUID0;
paths = (
{
closed = 1;
nodes = (
"48 520 LINE",
"144 520 LINE",
"143 69 LINE",
"47 69 LINE",
"47 0 LINE",
"512 0 LINE",
"563 154 LINE",
"498 176 LINE",
"458 69 LINE",
"223 69 LINE",
"224 270 LINE",
"411 270 LINE",
"411 339 LINE",
"224 339 LINE",
"224 520 LINE",
"438 520 LINE",
"478 413 LINE",
"543 435 LINE",
"492 589 LINE",
"48 589 LINE"
);
}
);
width = 605;
},
{
background = {
paths = (
{
closed = 1;
nodes = (
"499 176 LINE",
"458 69 LINE",
"224 69 LINE",
"225 270 LINE",
"412 270 LINE",
"412 339 LINE",
"225 339 LINE",
"225 520 LINE",
"438 520 LINE",
"479 413 LINE",
"544 435 LINE",
"493 589 LINE",
"49 589 LINE",
"49 520 LINE",
"145 520 LINE",
"144 69 LINE",
"48 69 LINE",
"48 0 LINE",
"513 0 LINE",
"564 154 LINE"
);
}
);
};
layerId = "6E1B38A8-44EA-440A-BD04-FE41D2B0BC62";
paths = (
{
closed = 1;
nodes = (
"42 477 LINE",
"123 477 LINE",
"122 112 LINE",
"41 112 LINE",
"41 0 LINE",
"525 0 LINE",
"585 173 LINE",
"480 210 LINE",
"445 112 LINE",
"252 112 LINE",
"252 243 LINE",
"415 243 LINE",
"415 354 LINE",
"252 354 LINE",
"252 477 LINE",
"418 477 LINE",
"455 368 LINE",
"561 404 LINE",
"499 589 LINE",
"42 589 LINE"
);
}
);
width = 598;
}
);
leftKerningGroup = I;
rightKerningGroup = E;
unicode = 0045;
},
{
glyphname = Eacute;
layers = (
{
background = {
paths = (
{
closed = 1;
nodes = (
"498 176 LINE",
"458 69 LINE",
"223 69 LINE",
"224 270 LINE",
"411 270 LINE",
"411 339 LINE",
"224 339 LINE",
"224 520 LINE",
"438 520 LINE",
"478 413 LINE",
"543 435 LINE",
"492 589 LINE",
"48 589 LINE",
"48 520 LINE",
"144 520 LINE",
"143 69 LINE",
"47 69 LINE",
"47 0 LINE",
"512 0 LINE",
"563 154 LINE"
);
},
{
closed = 1;
nodes = (
"190 674 LINE",
"200 638 LINE",
"452 685 LINE",
"434 758 LINE"
);
}
);
};
components = (
{
name = E;
},
{
name = Acute;
transform = "{1, 0, 0, 1, 159, 0}";
}
);
layerId = UUID0;
width = 605;
},
{
components = (
{
name = E;
},
{
name = acute;
transform = "{1, 0, 0, 1, 178, 135}";
}
);
layerId = "6E1B38A8-44EA-440A-BD04-FE41D2B0BC62";
width = 598;
}
);
leftKerningGroup = I;
rightKerningGroup = E;
unicode = 00C9;
},
{
glyphname = Egrave;
layers = (
{
background = {
paths = (
{
closed = 1;
nodes = (
"322 678 LINE",
"313 642 LINE",
"61 689 LINE",
"79 762 LINE"
);
}
);
};
components = (
{
name = E;
},
{
name = Grave;
transform = "{1, 0, 0, 1, 23, 0}";
}
);
layerId = UUID0;
width = 605;
},
{
components = (
{
name = E;
},
{
name = grave;
transform = "{1, 0, 0, 1, 105, 135}";
}
);
layerId = "6E1B38A8-44EA-440A-BD04-FE41D2B0BC62";
width = 598;
}
);
leftKerningGroup = I;
rightKerningGroup = E;
unicode = 00C8;
},
{
glyphname = F;
layers = (
{
layerId = UUID0;
paths = (
{
closed = 1;
nodes = (
"48 520 LINE",
"144 520 LINE",
"143 69 LINE",
"47 69 LINE",
"47 0 LINE",
"344 0 LINE",
"344 69 LINE",
"222 69 LINE",
"222 264 LINE",
"388 264 LINE",
"388 333 LINE",
"223 333 LINE",
"223 520 LINE",
"437 520 LINE",
"477 413 LINE",
"542 435 LINE",
"491 589 LINE",
"48 589 LINE"
);
}
);
width = 558;
},
{
background = {
paths = (
{
closed = 1;
nodes = (
"544 435 LINE",
"492 589 LINE",
"50 589 LINE",
"50 520 LINE",
"145 520 LINE",
"144 69 LINE",
"49 69 LINE",
"49 0 LINE",
"345 0 LINE",
"345 69 LINE",
"223 69 LINE",
"223 264 LINE",
"389 264 LINE",
"389 333 LINE",
"224 333 LINE",
"224 520 LINE",
"438 520 LINE",
"478 413 LINE"
);
}
);
};
layerId = "6E1B38A8-44EA-440A-BD04-FE41D2B0BC62";
paths = (
{
closed = 1;
nodes = (
"41 477 LINE",
"124 477 LINE",
"123 112 LINE",
"41 112 LINE",
"41 0 LINE",
"379 0 LINE",
"379 112 LINE",
"250 112 LINE",
"250 240 LINE",
"401 240 LINE",
"401 352 LINE",
"251 352 LINE",
"251 477 LINE",
"419 477 LINE",
"458 360 LINE",
"564 396 LINE",
"500 589 LINE",
"41 589 LINE"
);
}
);
width = 575;
}
);
leftKerningGroup = I;
unicode = 0046;
},
{
glyphname = G;
layers = (
{
layerId = UUID0;
paths = (
{
closed = 1;
nodes = (
"542 290 LINE",
"339 290 LINE",
"339 221 LINE",
"467 221 LINE",
"467 93 LINE",
"467 91 OFFCURVE",
"406 53 OFFCURVE",
"321 53 CURVE SMOOTH",
"220 53 OFFCURVE",
"139 120 OFFCURVE",
"139 295 CURVE SMOOTH",
"139 450 OFFCURVE",
"206 536 OFFCURVE",
"321 536 CURVE SMOOTH",
"393 536 OFFCURVE",
"436 521 OFFCURVE",
"458 511 CURVE",
"478 426 LINE",
"547 441 LINE",
"524 557 LINE",
"524 557 OFFCURVE",
"452 604 OFFCURVE",
"320 604 CURVE SMOOTH",
"167 604 OFFCURVE",
"54 485 OFFCURVE",
"54 295 CURVE SMOOTH",
"54 85 OFFCURVE",
"186 -15 OFFCURVE",
"321 -15 CURVE SMOOTH",
"470 -15 OFFCURVE",
"542 62 OFFCURVE",
"542 63 CURVE"
);
}
);
width = 610;
},
{
background = {
paths = (
{
closed = 1;
nodes = (
"336 221 LINE",
"464 221 LINE",
"464 93 LINE",
"464 91 OFFCURVE",
"403 53 OFFCURVE",
"318 53 CURVE SMOOTH",
"217 53 OFFCURVE",
"136 120 OFFCURVE",
"136 295 CURVE SMOOTH",
"136 450 OFFCURVE",
"203 536 OFFCURVE",
"318 536 CURVE SMOOTH",
"390 536 OFFCURVE",
"433 521 OFFCURVE",
"455 511 CURVE",
"475 426 LINE",
"544 441 LINE",
"522 557 LINE",
"522 557 OFFCURVE",
"449 604 OFFCURVE",
"317 604 CURVE SMOOTH",
"165 604 OFFCURVE",
"51 485 OFFCURVE",
"51 295 CURVE SMOOTH",
"51 85 OFFCURVE",
"183 -15 OFFCURVE",
"318 -15 CURVE SMOOTH",
"467 -15 OFFCURVE",
"539 62 OFFCURVE",
"539 63 CURVE",
"539 290 LINE",
"336 290 LINE"
);
}
);
};
layerId = "6E1B38A8-44EA-440A-BD04-FE41D2B0BC62";
paths = (
{
closed = 1;
nodes = (
"566 318 LINE",
"315 318 LINE",
"315 207 LINE",
"443 207 LINE",
"443 113 LINE",
"410 98 OFFCURVE",
"383 89 OFFCURVE",
"336 89 CURVE SMOOTH",
"234 89 OFFCURVE",
"164 137 OFFCURVE",
"164 294 CURVE SMOOTH",
"164 434 OFFCURVE",
"212 503 OFFCURVE",
"338 503 CURVE SMOOTH",
"394 503 OFFCURVE",
"435 473 OFFCURVE",
"435 473 CURVE",
"459 369 LINE",
"574 396 LINE",
"541 540 LINE",
"541 540 OFFCURVE",
"459 610 OFFCURVE",
"320 610 CURVE SMOOTH",
"149 610 OFFCURVE",
"30 506 OFFCURVE",
"30 294 CURVE SMOOTH",
"30 67 OFFCURVE",
"174 -22 OFFCURVE",
"335 -22 CURVE SMOOTH",
"440 -22 OFFCURVE",
"501 13 OFFCURVE",
"566 70 CURVE"
);
}
);
width = 611;
}
);
leftKerningGroup = O;
unicode = 0047;
},
{
glyphname = H;
layers = (
{
layerId = UUID0;
paths = (
{
closed = 1;
nodes = (
"48 520 LINE",
"144 520 LINE",
"143 69 LINE",
"47 69 LINE",
"47 0 LINE",
"286 0 LINE",
"286 69 LINE",
"222 69 LINE",
"223 267 LINE",
"511 267 LINE",
"511 69 LINE",
"447 69 LINE",
"447 0 LINE",
"685 0 LINE",
"685 69 LINE",
"589 69 LINE",
"592 520 LINE",
"687 520 LINE",
"687 589 LINE",
"448 589 LINE",
"448 520 LINE",
"512 520 LINE",
"511 336 LINE",
"223 336 LINE",
"224 520 LINE",
"288 520 LINE",
"288 589 LINE",
"48 589 LINE"
);
}
);
width = 733;
},
{
background = {
paths = (
{
closed = 1;
nodes = (
"448 0 LINE",
"686 0 LINE",
"686 69 LINE",
"591 69 LINE",
"593 520 LINE",
"688 520 LINE",
"688 589 LINE",
"449 589 LINE",
"449 520 LINE",
"513 520 LINE",
"512 336 LINE",
"224 336 LINE",
"225 520 LINE",
"289 520 LINE",
"289 589 LINE",
"50 589 LINE",
"50 520 LINE",
"145 520 LINE",
"144 69 LINE",
"49 69 LINE",
"49 0 LINE",
"287 0 LINE",
"287 69 LINE",
"223 69 LINE",
"224 267 LINE",
"512 267 LINE",
"512 69 LINE",
"448 69 LINE"
);
}
);
};
layerId = "6E1B38A8-44EA-440A-BD04-FE41D2B0BC62";
paths = (
{
closed = 1;
nodes = (
"41 477 LINE",
"122 477 LINE",
"122 112 LINE",
"41 112 LINE",
"41 0 LINE",
"304 0 LINE",
"304 112 LINE",
"251 112 LINE",
"251 241 LINE",
"490 241 LINE",
"490 112 LINE",
"437 112 LINE",
"437 0 LINE",
"700 0 LINE",
"700 112 LINE",
"619 112 LINE",
"619 477 LINE",
"700 477 LINE",
"700 589 LINE",
"435 589 LINE",
"435 477 LINE",
"490 477 LINE",
"490 353 LINE",
"251 353 LINE",
"251 477 LINE",
"306 477 LINE",
"306 588 LINE",
"305 588 LINE",
"306 589 LINE",
"41 589 LINE"
);
}
);
width = 741;
}
);
leftKerningGroup = I;
rightKerningGroup = I;
unicode = 0048;
},
{
color = 4;
glyphname = I;
layers = (
{
anchors = (
{
name = bottom;
position = "{193, 0}";
},
{
name = ogonek;
position = "{318, 0}";
},
{
name = top;
position = "{183, 589}";
},
{
name = topleft;
position = "{20, 589}";
}
);
layerId = UUID0;
paths = (
{
closed = 1;
nodes = (
"48 520 LINE",
"144 520 LINE",
"144 69 LINE",
"47 69 LINE",
"47 0 LINE",
"318 0 LINE",
"318 69 LINE",
"223 69 LINE",
"225 520 LINE",
"318 520 LINE",
"318 589 LINE",
"48 589 LINE"
);
}
);
width = 366;
},
{
anchors = (
{
name = bottom;
position = "{201, 0}";
},
{
name = ogonek;
position = "{360, 0}";
},
{
name = top;
position = "{201, 589}";
},
{
name = topleft;
position = "{20, 589}";
}
);
background = {
paths = (
{
closed = 1;
nodes = (
"63 520 LINE",
"158 520 LINE",
"158 69 LINE",
"62 69 LINE",
"62 0 LINE",
"333 0 LINE",
"333 69 LINE",
"237 69 LINE",
"239 520 LINE",
"333 520 LINE",
"333 589 LINE",
"63 589 LINE"
);
}
);
};
layerId = "6E1B38A8-44EA-440A-BD04-FE41D2B0BC62";
paths = (
{
closed = 1;
nodes = (
"42 477 LINE",
"137 477 LINE",
"137 112 LINE",
"41 112 LINE",
"41 0 LINE",
"360 0 LINE",
"360 112 LINE",
"265 112 LINE",
"265 477 LINE",
"360 477 LINE",
"360 589 LINE",
"42 589 LINE"
);
}
);
width = 401;
}
);
leftKerningGroup = I;
rightKerningGroup = I;
unicode = 0049;
},
{
glyphname = Iacute;
layers = (
{
background = {
paths = (
{
closed = 1;
nodes = (
"125 674 LINE",
"134 638 LINE",
"386 685 LINE",
"368 758 LINE"
);
}
);
};
components = (
{
name = I;
},
{
name = Acute;
transform = "{1, 0, 0, 1, 93, 0}";
}
);
layerId = UUID0;
width = 366;
},
{
components = (
{
name = I;
},
{
name = acute;
transform = "{1, 0, 0, 1, 36, 135}";
}
);
layerId = "6E1B38A8-44EA-440A-BD04-FE41D2B0BC62";
width = 401;
}
);
leftKerningGroup = I;
rightKerningGroup = I;
unicode = 00CD;
},
{
glyphname = Igrave;
layers = (
{
background = {
paths = (
{
closed = 1;
nodes = (
"233 661 LINE",
"225 625 LINE",
"-27 672 LINE",
"-9 745 LINE"
);
}
);
};
components = (
{
name = I;
},
{
name = Grave;
transform = "{1, 0, 0, 1, -64, -17}";
}
);
layerId = UUID0;
width = 366;
},
{
components = (
{
name = I;
},
{
name = grave;
transform = "{1, 0, 0, 1, -3, 135}";
}
);
layerId = "6E1B38A8-44EA-440A-BD04-FE41D2B0BC62";
width = 401;
}
);
leftKerningGroup = I;
rightKerningGroup = I;
unicode = 00CC;
},
{
glyphname = J;
layers = (
{
layerId = UUID0;
paths = (
{
closed = 1;
nodes = (
"358 520 LINE",
"452 520 LINE",
"452 589 LINE",
"166 589 LINE",
"166 520 LINE",
"278 520 LINE",
"277 248 LINE SMOOTH",
"277 186 OFFCURVE",
"278 141 OFFCURVE",
"267 110 CURVE SMOOTH",
"253 68 OFFCURVE",
"207 52 OFFCURVE",
"171 53 CURVE SMOOTH",
"137 54 OFFCURVE",
"108 69 OFFCURVE",
"109 68 CURVE",
"88 157 LINE",
"20 141 LINE",
"45 25 LINE",
"46 24 OFFCURVE",
"96 -15 OFFCURVE",
"175 -15 CURVE SMOOTH",
"250 -15 OFFCURVE",
"323 19 OFFCURVE",
"344 92 CURVE SMOOTH",
"354 131 OFFCURVE",
"354 181 OFFCURVE",
"356 246 CURVE SMOOTH"
);
}
);
width = 481;
},
{
background = {
paths = (
{
closed = 1;
nodes = (
"167 520 LINE",
"280 520 LINE",
"279 248 LINE SMOOTH",
"279 186 OFFCURVE",
"280 141 OFFCURVE",
"269 110 CURVE SMOOTH",
"255 68 OFFCURVE",
"208 52 OFFCURVE",
"173 53 CURVE SMOOTH",
"139 54 OFFCURVE",
"110 69 OFFCURVE",
"111 68 CURVE",
"90 157 LINE",
"21 141 LINE",
"47 25 LINE",
"48 24 OFFCURVE",
"98 -15 OFFCURVE",
"177 -15 CURVE SMOOTH",
"252 -15 OFFCURVE",
"325 19 OFFCURVE",
"346 92 CURVE SMOOTH",
"356 131 OFFCURVE",
"356 181 OFFCURVE",
"358 246 CURVE SMOOTH",
"360 520 LINE",
"454 520 LINE",
"454 589 LINE",
"167 589 LINE"
);
}
);
};
layerId = "6E1B38A8-44EA-440A-BD04-FE41D2B0BC62";
paths = (
{
closed = 1;
nodes = (
"387 477 LINE",
"470 477 LINE",
"470 589 LINE",
"136 589 LINE",
"136 477 LINE",
"258 477 LINE",
"258 247 LINE SMOOTH",
"258 194 OFFCURVE",
"257 156 OFFCURVE",
"248 130 CURVE",
"238 100 OFFCURVE",
"204 90 OFFCURVE",
"177 90 CURVE SMOOTH",
"160 90 OFFCURVE",
"149 93 OFFCURVE",
"139 96 CURVE",
"118 198 LINE",
"8 172 LINE",
"40 26 LINE",
"41 24 OFFCURVE",
"92 -22 OFFCURVE",
"180 -22 CURVE SMOOTH",
"265 -22 OFFCURVE",
"348 12 OFFCURVE",
"372 97 CURVE",
"382 135 OFFCURVE",
"387 181 OFFCURVE",
"387 240 CURVE SMOOTH"
);
}
);
width = 506;
}
);
unicode = 004A;
},
{
glyphname = K;
layers = (
{
layerId = UUID0;
paths = (
{
closed = 1;
nodes = (
"48 520 LINE",
"142 520 LINE",
"142 69 LINE",
"48 69 LINE",
"48 0 LINE",
"285 0 LINE",
"285 69 LINE",
"222 69 LINE",
"221 263 LINE",
"321 263 LINE",
"450 69 LINE",
"378 69 LINE",
"378 0 LINE",
"647 0 LINE",
"647 69 LINE",
"547 69 LINE",
"382 315 LINE",
"533 520 LINE",
"624 520 LINE",
"624 589 LINE",
"378 589 LINE",
"378 520 LINE",
"447 520 LINE",
"309 332 LINE",
"221 332 LINE",
"221 520 LINE",
"285 520 LINE",
"285 589 LINE",
"48 589 LINE"
);
}
);
width = 668;
},
{
background = {
paths = (
{
closed = 1;
nodes = (
"379 0 LINE",
"648 0 LINE",
"648 69 LINE",
"548 69 LINE",
"383 315 LINE",
"534 520 LINE",
"625 520 LINE",
"625 589 LINE",
"379 589 LINE",
"379 520 LINE",
"448 520 LINE",
"310 332 LINE",
"222 332 LINE",
"222 520 LINE",
"286 520 LINE",
"286 589 LINE",
"49 589 LINE",
"49 520 LINE",
"143 520 LINE",
"143 69 LINE",
"49 69 LINE",
"49 0 LINE",
"286 0 LINE",
"286 69 LINE",
"223 69 LINE",
"222 263 LINE",
"322 263 LINE",
"451 69 LINE",
"379 69 LINE"
);
}
);
};
layerId = "6E1B38A8-44EA-440A-BD04-FE41D2B0BC62";
paths = (
{
closed = 1;
nodes = (
"41 477 LINE",
"122 477 LINE",
"122 112 LINE",
"41 112 LINE",
"41 0 LINE",
"305 0 LINE",
"305 112 LINE",
"250 112 LINE",
"250 238 LINE",
"310 238 LINE",
"406 112 LINE",
"358 112 LINE",
"358 0 LINE",
"663 0 LINE",
"663 112 LINE",
"562 112 LINE",
"411 312 LINE",
"544 477 LINE",
"638 477 LINE",
"638 589 LINE",
"373 589 LINE",
"373 477 LINE",
"414 477 LINE",
"318 346 LINE",
"250 346 LINE",
"250 477 LINE",
"305 477 LINE",
"305 589 LINE",
"41 589 LINE"
);
}
);
width = 668;
}
);
leftKerningGroup = I;
unicode = 004B;
},
{
glyphname = L;
layers = (
{
layerId = UUID0;
paths = (
{
closed = 1;
nodes = (
"47 520 LINE",
"162 520 LINE",
"161 69 LINE",
"47 69 LINE",
"47 0 LINE",
"481 0 LINE",
"534 153 LINE",
"468 175 LINE",
"429 69 LINE",
"240 69 LINE",
"242 520 LINE",
"355 520 LINE",
"355 589 LINE",
"47 589 LINE"
);
}
);
width = 551;
},
{
background = {
paths = (
{
closed = 1;
nodes = (
"458 175 LINE",
"419 69 LINE",
"230 69 LINE",
"232 520 LINE",
"346 520 LINE",
"346 589 LINE",
"38 589 LINE",
"38 520 LINE",
"152 520 LINE",
"151 69 LINE",
"38 69 LINE",
"38 0 LINE",
"472 0 LINE",
"524 153 LINE"
);
}
);
};
layerId = "6E1B38A8-44EA-440A-BD04-FE41D2B0BC62";
paths = (
{
closed = 1;
nodes = (
"41 477 LINE",
"130 477 LINE",
"130 112 LINE",
"41 112 LINE",
"41 0 LINE",
"486 0 LINE",
"546 173 LINE",
"440 210 LINE",
"405 112 LINE",
"257 112 LINE",
"257 477 LINE",
"356 477 LINE",
"356 589 LINE",
"41 589 LINE"
);
}
);
width = 551;
}
);
leftKerningGroup = I;
unicode = 004C;
},
{
glyphname = M;
layers = (
{
background = {
paths = (
{
closed = 1;
nodes = (
"476 71 LINE",
"598 390 LINE",
"644 520 LINE",
"644 69 LINE",
"580 69 LINE",
"580 0 LINE",
"818 0 LINE",
"818 69 LINE",
"724 69 LINE",
"724 520 LINE",
"818 520 LINE",
"818 589 LINE",
"605 589 LINE",
"439 160 LINE",
"290 541 LINE",
"271 589 LINE",
"50 589 LINE",
"50 520 LINE",
"143 520 LINE",
"142 69 LINE",
"46 69 LINE",
"46 0 LINE",
"280 0 LINE",
"280 69 LINE",
"214 69 LINE",
"217 520 LINE",
"263 392 LINE",
"391 71 LINE"
);
},
{
closed = 1;
nodes = (
"476 71 LINE",
"598 390 LINE",
"644 520 LINE",
"644 69 LINE",
"580 69 LINE",
"580 0 LINE",
"818 0 LINE",
"818 69 LINE",
"724 69 LINE",
"724 520 LINE",
"818 520 LINE",
"818 589 LINE",
"605 589 LINE",
"439 160 LINE",
"271 589 LINE",
"50 589 LINE",
"50 520 LINE",
"143 520 LINE",
"142 69 LINE",
"46 69 LINE",
"46 0 LINE",
"280 0 LINE",
"280 69 LINE",
"214 69 LINE",
"217 520 LINE",
"263 392 LINE",
"391 71 LINE"
);
}
);
};
layerId = UUID0;
paths = (
{
closed = 1;
nodes = (
"50 520 LINE",
"143 520 LINE",
"142 69 LINE",
"46 69 LINE",
"46 0 LINE",
"280 0 LINE",
"280 69 LINE",
"214 69 LINE",
"217 520 LINE",
"263 392 LINE",
"391 71 LINE",
"477 71 LINE",
"599 390 LINE",
"644 520 LINE",
"644 69 LINE",
"580 69 LINE",
"580 0 LINE",
"818 0 LINE",
"818 69 LINE",
"724 69 LINE",
"724 520 LINE",
"818 520 LINE",
"818 589 LINE",
"605 589 LINE",
"439 160 LINE",
"271 589 LINE",
"50 589 LINE"
);
}
);
width = 866;
},
{
background = {
paths = (
{
closed = 1;
nodes = (
"474 71 LINE",
"596 390 LINE",
"640 520 LINE",
"640 69 LINE",
"576 69 LINE",
"576 0 LINE",
"815 0 LINE",
"815 69 LINE",
"720 69 LINE",
"720 520 LINE",
"815 520 LINE",
"815 589 LINE",
"602 589 LINE",
"436 160 LINE",
"268 589 LINE",
"46 589 LINE",
"46 520 LINE",
"139 520 LINE",
"138 69 LINE",
"43 69 LINE",
"43 0 LINE",
"276 0 LINE",
"276 69 LINE",
"211 69 LINE",
"213 520 LINE",
"259 392 LINE",
"387 71 LINE"
);
}
);
};
layerId = "6E1B38A8-44EA-440A-BD04-FE41D2B0BC62";
paths = (
{
closed = 1;
nodes = (
"37 477 LINE",
"118 477 LINE",
"118 112 LINE",
"37 112 LINE",
"37 0 LINE",
"304 0 LINE",
"304 112 LINE",
"238 112 LINE",
"238 483 LINE",
"396 71 LINE",
"480 71 LINE",
"619 482 LINE",
"619 112 LINE",
"555 112 LINE",
"555 0 LINE",
"829 0 LINE",
"829 112 LINE",
"748 112 LINE",
"748 477 LINE",
"829 477 LINE",
"829 589 LINE",
"543 589 LINE",
"438 247 LINE",
"317 589 LINE",
"37 589 LINE"
);
}
);
width = 869;
}
);
leftKerningGroup = I;
rightKerningGroup = I;
unicode = 004D;
},
{
glyphname = N;
layers = (
{
layerId = UUID0;
paths = (
{
closed = 1;
nodes = (
"48 520 LINE",
"142 520 LINE",
"143 69 LINE",
"47 69 LINE",
"47 0 LINE",
"308 0 LINE",
"308 69 LINE",
"224 69 LINE",
"222 520 LINE",
"506 0 LINE",
"604 0 LINE",
"604 520 LINE",
"701 520 LINE",
"701 589 LINE",
"440 589 LINE",
"440 520 LINE",
"524 520 LINE",
"524 122 LINE",
"269 589 LINE",
"48 589 LINE"
);
}
);
width = 736;
},
{
background = {
paths = (
{
closed = 1;
nodes = (
"439 520 LINE",
"523 520 LINE",
"523 122 LINE",
"267 589 LINE",
"47 589 LINE",
"47 520 LINE",
"140 520 LINE",
"141 69 LINE",
"46 69 LINE",
"46 0 LINE",
"306 0 LINE",
"306 69 LINE",
"222 69 LINE",
"220 520 LINE",
"505 0 LINE",
"603 0 LINE",
"603 520 LINE",
"699 520 LINE",
"699 589 LINE",
"439 589 LINE"
);
}
);
};
layerId = "6E1B38A8-44EA-440A-BD04-FE41D2B0BC62";
paths = (
{
closed = 1;
nodes = (
"38 477 LINE",
"120 477 LINE",
"120 112 LINE",
"37 112 LINE",
"37 0 LINE",
"316 0 LINE",
"316 112 LINE",
"232 112 LINE",
"232 478 LINE",
"473 0 LINE",
"621 0 LINE",
"621 477 LINE",
"713 477 LINE",
"713 589 LINE",
"434 589 LINE",
"434 477 LINE",
"508 477 LINE",
"508 182 LINE",
"310 589 LINE",
"38 589 LINE"
);
}
);
width = 750;
}
);
leftKerningGroup = I;
rightKerningGroup = I;
unicode = 004E;
},
{
glyphname = O;
layers = (
{
layerId = UUID0;
paths = (
{
closed = 1;
nodes = (
"163 604 OFFCURVE",
"54 480 OFFCURVE",
"54 295 CURVE SMOOTH",
"54 109 OFFCURVE",
"164 -15 OFFCURVE",
"328 -15 CURVE SMOOTH",
"492 -15 OFFCURVE",
"602 109 OFFCURVE",
"602 295 CURVE SMOOTH",
"602 480 OFFCURVE",
"492 604 OFFCURVE",
"327 604 CURVE SMOOTH"
);
},
{
closed = 1;
nodes = (
"447 534 OFFCURVE",
"517 446 OFFCURVE",
"517 295 CURVE SMOOTH",
"517 143 OFFCURVE",
"447 55 OFFCURVE",
"328 55 CURVE SMOOTH",
"209 55 OFFCURVE",
"139 143 OFFCURVE",
"139 295 CURVE SMOOTH",
"139 446 OFFCURVE",
"209 534 OFFCURVE",
"328 534 CURVE SMOOTH"
);
}
);
width = 655;
},
{
background = {
paths = (
{
closed = 1;
nodes = (
"452 536 OFFCURVE",
"514 447 OFFCURVE",
"514 295 CURVE SMOOTH",
"514 143 OFFCURVE",
"452 53 OFFCURVE",
"325 53 CURVE SMOOTH",
"198 53 OFFCURVE",
"136 143 OFFCURVE",
"136 295 CURVE SMOOTH",
"136 447 OFFCURVE",
"198 536 OFFCURVE",
"325 536 CURVE SMOOTH"
);
},
{
closed = 1;
nodes = (
"489 -15 OFFCURVE",
"599 105 OFFCURVE",
"599 295 CURVE SMOOTH",
"599 485 OFFCURVE",
"488 604 OFFCURVE",
"324 604 CURVE SMOOTH",
"162 604 OFFCURVE",
"51 485 OFFCURVE",
"51 295 CURVE SMOOTH",
"51 105 OFFCURVE",
"163 -15 OFFCURVE",
"325 -15 CURVE SMOOTH"
);
}
);
};
layerId = "6E1B38A8-44EA-440A-BD04-FE41D2B0BC62";
paths = (
{
closed = 1;
nodes = (
"153 611 OFFCURVE",
"30 500 OFFCURVE",
"30 295 CURVE SMOOTH",
"30 90 OFFCURVE",
"154 -22 OFFCURVE",
"328 -22 CURVE SMOOTH",
"504 -22 OFFCURVE",
"626 90 OFFCURVE",
"626 295 CURVE SMOOTH",
"626 500 OFFCURVE",
"503 611 OFFCURVE",
"327 611 CURVE SMOOTH"
);
},
{
closed = 1;
nodes = (
"438 503 OFFCURVE",
"493 432 OFFCURVE",
"493 295 CURVE SMOOTH",
"493 158 OFFCURVE",
"437 86 OFFCURVE",
"328 86 CURVE SMOOTH",
"219 86 OFFCURVE",
"164 158 OFFCURVE",
"164 295 CURVE SMOOTH",
"164 432 OFFCURVE",
"219 503 OFFCURVE",
"328 503 CURVE SMOOTH"
);
}
);
width = 656;
},
{
associatedMasterId = "6E1B38A8-44EA-440A-BD04-FE41D2B0BC62";
background = {
paths = (
{
closed = 1;
nodes = (
"452 536 OFFCURVE",
"514 447 OFFCURVE",
"514 295 CURVE SMOOTH",
"514 143 OFFCURVE",
"452 53 OFFCURVE",
"325 53 CURVE SMOOTH",
"198 53 OFFCURVE",
"136 143 OFFCURVE",
"136 295 CURVE SMOOTH",
"136 447 OFFCURVE",
"198 536 OFFCURVE",
"325 536 CURVE SMOOTH"
);
},
{
closed = 1;
nodes = (
"489 -15 OFFCURVE",
"599 105 OFFCURVE",
"599 295 CURVE SMOOTH",
"599 485 OFFCURVE",
"488 604 OFFCURVE",
"324 604 CURVE SMOOTH",
"162 604 OFFCURVE",
"51 485 OFFCURVE",
"51 295 CURVE SMOOTH",
"51 105 OFFCURVE",
"163 -15 OFFCURVE",
"325 -15 CURVE SMOOTH"
);
}
);
};
layerId = "D5949E1A-6FB4-44D8-A50F-F00C365810FF";
name = "Nov 1 16, 12:51";
paths = (
{
closed = 1;
nodes = (
"153 611 OFFCURVE",
"30 500 OFFCURVE",
"30 295 CURVE SMOOTH",
"30 90 OFFCURVE",
"154 -22 OFFCURVE",
"328 -22 CURVE SMOOTH",
"504 -22 OFFCURVE",
"626 90 OFFCURVE",
"626 295 CURVE SMOOTH",
"626 500 OFFCURVE",
"503 611 OFFCURVE",
"327 611 CURVE SMOOTH"
);
},
{
closed = 1;
nodes = (
"438 503 OFFCURVE",
"493 432 OFFCURVE",
"493 295 CURVE SMOOTH",
"493 158 OFFCURVE",
"437 86 OFFCURVE",
"328 86 CURVE SMOOTH",
"219 86 OFFCURVE",
"164 158 OFFCURVE",
"164 295 CURVE SMOOTH",
"164 432 OFFCURVE",
"219 503 OFFCURVE",
"328 503 CURVE SMOOTH"
);
}
);
width = 656;
}
);
leftKerningGroup = O;
rightKerningGroup = O;
unicode = 004F;
},
{
glyphname = Oacute;
layers = (
{
background = {
paths = (
{
closed = 1;
nodes = (
"265 674 LINE",
"273 638 LINE",
"526 685 LINE",
"508 758 LINE"
);
}
);
};
components = (
{
name = O;
},
{
name = Acute;
transform = "{1, 0, 0, 1, 232, 0}";
}
);
layerId = UUID0;
width = 655;
},
{
components = (
{
name = O;
},
{
name = acute;
transform = "{1, 0, 0, 1, 193, 135}";
}
);
layerId = "6E1B38A8-44EA-440A-BD04-FE41D2B0BC62";
width = 656;
}
);
leftKerningGroup = O;
rightKerningGroup = O;
unicode = 00D3;
},
{
glyphname = Ograve;
layers = (
{
background = {
paths = (
{
closed = 1;
nodes = (
"374 678 LINE",
"365 642 LINE",
"113 689 LINE",
"131 762 LINE"
);
}
);
};
components = (
{
name = O;
},
{
name = Grave;
transform = "{1, 0, 0, 1, 76, 0}";
}
);
layerId = UUID0;
width = 655;
},
{
components = (
{
name = O;
},
{
name = grave;
transform = "{1, 0, 0, 1, 120, 135}";
}
);
layerId = "6E1B38A8-44EA-440A-BD04-FE41D2B0BC62";
width = 656;
}
);
leftKerningGroup = O;
rightKerningGroup = O;
unicode = 00D2;
},
{
glyphname = Oslash;
layers = (
{
background = {
paths = (
{
closed = 1;
nodes = (
"540 651 LINE",
"466 651 LINE",
"138 -69 LINE",
"213 -69 LINE"
);
}
);
};
layerId = UUID0;
paths = (
{
closed = 1;
nodes = (
"164 604 OFFCURVE",
"53 485 OFFCURVE",
"53 295 CURVE SMOOTH",
"53 105 OFFCURVE",
"165 -15 OFFCURVE",
"327 -15 CURVE SMOOTH",
"491 -15 OFFCURVE",
"601 105 OFFCURVE",
"601 295 CURVE SMOOTH",
"601 485 OFFCURVE",
"490 604 OFFCURVE",
"326 604 CURVE SMOOTH"
);
},
{
closed = 1;
nodes = (
"454 536 OFFCURVE",
"516 447 OFFCURVE",
"516 295 CURVE SMOOTH",
"516 143 OFFCURVE",
"454 53 OFFCURVE",
"327 53 CURVE SMOOTH",
"200 53 OFFCURVE",
"138 143 OFFCURVE",
"138 295 CURVE SMOOTH",
"138 447 OFFCURVE",
"200 536 OFFCURVE",
"327 536 CURVE SMOOTH"
);
},
{
closed = 1;
nodes = (
"138 -69 LINE",
"212 -69 LINE",
"539 651 LINE",
"466 651 LINE"
);
}
);
width = 654;
},
{
background = {
paths = (
{
closed = 1;
nodes = (
"454 536 OFFCURVE",
"516 447 OFFCURVE",
"516 295 CURVE SMOOTH",
"516 143 OFFCURVE",
"454 53 OFFCURVE",
"327 53 CURVE SMOOTH",
"200 53 OFFCURVE",
"138 143 OFFCURVE",
"138 295 CURVE SMOOTH",
"138 447 OFFCURVE",
"200 536 OFFCURVE",
"327 536 CURVE SMOOTH"
);
},
{
closed = 1;
nodes = (
"491 -15 OFFCURVE",
"601 105 OFFCURVE",
"601 295 CURVE SMOOTH",
"601 485 OFFCURVE",
"490 604 OFFCURVE",
"326 604 CURVE SMOOTH",
"164 604 OFFCURVE",
"53 485 OFFCURVE",
"53 295 CURVE SMOOTH",
"53 105 OFFCURVE",
"165 -15 OFFCURVE",
"327 -15 CURVE SMOOTH"
);
},
{
closed = 1;
nodes = (
"539 651 LINE",
"466 651 LINE",
"138 -69 LINE",
"212 -69 LINE"
);
}
);
};
layerId = "6E1B38A8-44EA-440A-BD04-FE41D2B0BC62";
paths = (
{
closed = 1;
nodes = (
"559 651 LINE",
"454 651 LINE",
"429 597 LINE",
"398 606 OFFCURVE",
"363 611 OFFCURVE",
"327 611 CURVE SMOOTH",
"153 611 OFFCURVE",
"30 500 OFFCURVE",
"30 295 CURVE SMOOTH",
"30 163 OFFCURVE",
"81 70 OFFCURVE",
"164 20 CURVE",
"123 -69 LINE",
"228 -69 LINE",
"253 -14 LINE",
"277 -19 OFFCURVE",
"302 -22 OFFCURVE",
"328 -22 CURVE SMOOTH",
"504 -22 OFFCURVE",
"626 90 OFFCURVE",
"626 295 CURVE SMOOTH",
"626 415 OFFCURVE",
"584 502 OFFCURVE",
"515 554 CURVE"
);
},
{
closed = 1;
nodes = (
"214 129 LINE",
"180 164 OFFCURVE",
"164 219 OFFCURVE",
"164 295 CURVE SMOOTH",
"164 432 OFFCURVE",
"219 503 OFFCURVE",
"328 503 CURVE SMOOTH",
"348 503 OFFCURVE",
"366 500 OFFCURVE",
"382 496 CURVE"
);
},
{
closed = 1;
nodes = (
"460 437 LINE",
"482 402 OFFCURVE",
"493 355 OFFCURVE",
"493 295 CURVE SMOOTH",
"493 158 OFFCURVE",
"437 86 OFFCURVE",
"328 86 CURVE SMOOTH",
"318 86 OFFCURVE",
"309 87 OFFCURVE",
"300 88 CURVE"
);
}
);
width = 656;
}
);
leftKerningGroup = O;
rightKerningGroup = O;
unicode = 00D8;
},
{
glyphname = OE;
layers = (
{
layerId = UUID0;
paths = (
{
closed = 1;
nodes = (
"796 0 LINE",
"849 154 LINE",
"783 176 LINE",
"743 69 LINE",
"510 69 LINE",
"510 270 LINE",
"696 270 LINE",
"696 339 LINE",
"511 339 LINE",
"511 520 LINE",
"723 520 LINE",
"763 413 LINE",
"829 435 LINE",
"776 589 LINE",
"358 589 LINE SMOOTH",
"179 589 OFFCURVE",
"56 527 OFFCURVE",
"56 295 CURVE SMOOTH",
"56 109 OFFCURVE",
"185 0 OFFCURVE",
"351 0 CURVE SMOOTH"
);
},
{
closed = 1;
nodes = (
"430 521 LINE",
"430 69 LINE",
"369 68 LINE SMOOTH",
"219 67 OFFCURVE",
"141 144 OFFCURVE",
"141 295 CURVE SMOOTH",
"141 493 OFFCURVE",
"225 521 OFFCURVE",
"358 521 CURVE SMOOTH"
);
}
);
width = 891;
},
{
background = {
paths = (
{
closed = 1;
nodes = (
"772 176 LINE",
"732 69 LINE",
"500 69 LINE",
"500 270 LINE",
"686 270 LINE",
"686 339 LINE",
"500 339 LINE",
"500 520 LINE",
"712 520 LINE",
"752 413 LINE",
"818 435 LINE",
"766 589 LINE",
"348 589 LINE SMOOTH",
"168 589 OFFCURVE",
"45 527 OFFCURVE",
"45 295 CURVE SMOOTH",
"45 109 OFFCURVE",
"174 0 OFFCURVE",
"340 0 CURVE SMOOTH",
"786 0 LINE",
"838 154 LINE"
);
},
{
closed = 1;
nodes = (
"419 521 LINE",
"419 69 LINE",
"358 68 LINE SMOOTH",
"208 67 OFFCURVE",
"130 144 OFFCURVE",
"130 295 CURVE SMOOTH",
"130 493 OFFCURVE",
"214 521 OFFCURVE",
"348 521 CURVE SMOOTH"
);
}
);
};
layerId = "6E1B38A8-44EA-440A-BD04-FE41D2B0BC62";
paths = (
{
closed = 1;
nodes = (
"812 0 LINE",
"872 173 LINE",
"766 210 LINE",
"731 112 LINE",
"537 112 LINE",
"537 243 LINE",
"701 243 LINE",
"701 353 LINE",
"538 353 LINE",
"538 477 LINE",
"705 477 LINE",
"741 367 LINE",
"847 403 LINE",
"785 589 LINE",
"327 589 LINE SMOOTH",
"147 589 OFFCURVE",
"30 496 OFFCURVE",
"30 301 CURVE SMOOTH",
"30 84 OFFCURVE",
"151 0 OFFCURVE",
"327 0 CURVE SMOOTH"
);
},
{
closed = 1;
nodes = (
"409 477 LINE",
"409 112 LINE",
"330 112 LINE SMOOTH",
"225 112 OFFCURVE",
"164 168 OFFCURVE",
"164 301 CURVE SMOOTH",
"164 432 OFFCURVE",
"223 477 OFFCURVE",
"330 477 CURVE SMOOTH"
);
}
);
width = 884;
}
);
leftKerningGroup = O;
rightKerningGroup = E;
unicode = 0152;
},
{
glyphname = P;
layers = (
{
background = {
paths = (
{
closed = 1;
nodes = (
"48 0 LINE",
"341 0 LINE",
"341 69 LINE",
"221 69 LINE",
"221 218 LINE",
"333 218 LINE SMOOTH",
"452 218 OFFCURVE",
"533 292 OFFCURVE",
"533 409 CURVE SMOOTH",
"533 531 OFFCURVE",
"476 589 OFFCURVE",
"313 589 CURVE SMOOTH",
"48 589 LINE",
"48 520 LINE",
"141 520 LINE",
"141 69 LINE",
"48 69 LINE"
);
},
{
closed = 1;
nodes = (
"312 520 LINE",
"395 520 OFFCURVE",
"448 509 OFFCURVE",
"448 408 CURVE SMOOTH",
"448 309 OFFCURVE",
"370 288 OFFCURVE",
"314 288 CURVE SMOOTH",
"222 288 LINE",
"222 520 LINE"
);
},
{
closed = 1;
nodes = (
"48 0 LINE",
"341 0 LINE",
"341 69 LINE",
"221 69 LINE",
"221 218 LINE",
"333 218 LINE SMOOTH",
"452 218 OFFCURVE",
"533 292 OFFCURVE",
"533 409 CURVE SMOOTH",
"533 531 OFFCURVE",
"476 589 OFFCURVE",
"313 589 CURVE SMOOTH",
"48 589 LINE",
"48 520 LINE",
"141 520 LINE",
"141 69 LINE",
"48 69 LINE"
);
},
{
closed = 1;
nodes = (
"222 520 LINE",
"312 520 LINE SMOOTH",
"400 520 OFFCURVE",
"448 506 OFFCURVE",
"448 408 CURVE SMOOTH",
"448 309 OFFCURVE",
"370 288 OFFCURVE",
"314 288 CURVE SMOOTH",
"222 288 LINE"
);
}
);
};
layerId = UUID0;
paths = (
{
closed = 1;
nodes = (
"48 589 LINE",
"48 520 LINE",
"141 520 LINE",
"141 69 LINE",
"48 69 LINE",
"48 0 LINE",
"341 0 LINE",
"341 69 LINE",
"221 69 LINE",
"221 218 LINE",
"313 218 LINE SMOOTH",
"476 218 OFFCURVE",
"533 283 OFFCURVE",
"533 405 CURVE",
"533 526 OFFCURVE",
"476 589 OFFCURVE",
"313 589 CURVE SMOOTH"
);
},
{
closed = 1;
nodes = (
"222 288 LINE",
"222 520 LINE",
"312 520 LINE SMOOTH",
"400 520 OFFCURVE",
"448 502 OFFCURVE",
"448 404 CURVE SMOOTH",
"448 306 OFFCURVE",
"400 288 OFFCURVE",
"312 288 CURVE"
);
}
);
width = 569;
},
{
background = {
paths = (
{
closed = 1;
nodes = (
"216 288 LINE",
"216 520 LINE",
"306 520 LINE SMOOTH",
"394 520 OFFCURVE",
"442 502 OFFCURVE",
"442 404 CURVE SMOOTH",
"442 306 OFFCURVE",
"394 288 OFFCURVE",
"306 288 CURVE"
);
},
{
closed = 1;
nodes = (
"307 218 LINE",
"470 218 OFFCURVE",
"527 283 OFFCURVE",
"527 405 CURVE",
"527 526 OFFCURVE",
"470 589 OFFCURVE",
"307 589 CURVE SMOOTH",
"42 589 LINE",
"42 520 LINE",
"135 520 LINE",
"135 69 LINE",
"42 69 LINE",
"42 0 LINE",
"335 0 LINE",
"335 69 LINE",
"215 69 LINE",
"215 218 LINE"
);
}
);
};
layerId = "6E1B38A8-44EA-440A-BD04-FE41D2B0BC62";
paths = (
{
closed = 1;
nodes = (
"41 589 LINE",
"41 477 LINE",
"121 477 LINE",
"121 112 LINE",
"41 112 LINE",
"41 0 LINE",
"359 0 LINE",
"359 112 LINE",
"250 112 LINE",
"250 193 LINE",
"300 193 LINE SMOOTH",
"476 193 OFFCURVE",
"544 253 OFFCURVE",
"544 394 CURVE SMOOTH",
"544 518 OFFCURVE",
"481 589 OFFCURVE",
"300 589 CURVE SMOOTH"
);
},
{
closed = 1;
nodes = (
"251 302 LINE",
"251 477 LINE",
"299 477 LINE SMOOTH",
"371 477 OFFCURVE",
"411 463 OFFCURVE",
"411 391 CURVE SMOOTH",
"411 313 OFFCURVE",
"371 302 OFFCURVE",
"299 302 CURVE SMOOTH"
);
}
);
width = 572;
}
);
leftKerningGroup = I;
unicode = 0050;
},
{
glyphname = Thorn;
layers = (
{
layerId = UUID0;
paths = (
{
closed = 1;
nodes = (
"222 449 LINE",
"222 520 LINE",
"340 520 LINE",
"340 589 LINE",
"48 589 LINE",
"48 520 LINE",
"141 520 LINE",
"141 69 LINE",
"48 69 LINE",
"48 0 LINE",
"341 0 LINE",
"341 69 LINE",
"221 69 LINE",
"221 138 LINE",
"291 138 LINE SMOOTH",
"391 138 OFFCURVE",
"461 196 OFFCURVE",
"461 301 CURVE SMOOTH",
"461 415 OFFCURVE",
"393 449 OFFCURVE",
"270 449 CURVE SMOOTH"
);
},
{
closed = 1;
nodes = (
"222 208 LINE",
"222 380 LINE",
"262 380 LINE",
"311 380 OFFCURVE",
"376 384 OFFCURVE",
"376 301 CURVE SMOOTH",
"376 208 OFFCURVE",
"300 208 OFFCURVE",
"264 208 CURVE SMOOTH"
);
}
);
width = 498;
},
{
background = {
paths = (
{
closed = 1;
nodes = (
"267 380 LINE",
"316 380 OFFCURVE",
"381 384 OFFCURVE",
"381 301 CURVE SMOOTH",
"381 208 OFFCURVE",
"305 208 OFFCURVE",
"269 208 CURVE SMOOTH",
"227 208 LINE",
"227 380 LINE"
);
},
{
closed = 1;
nodes = (
"53 0 LINE",
"346 0 LINE",
"346 69 LINE",
"226 69 LINE",
"226 138 LINE",
"296 138 LINE SMOOTH",
"396 138 OFFCURVE",
"466 196 OFFCURVE",
"466 301 CURVE SMOOTH",
"466 415 OFFCURVE",
"398 449 OFFCURVE",
"275 449 CURVE SMOOTH",
"227 449 LINE",
"227 520 LINE",
"345 520 LINE",
"345 589 LINE",
"53 589 LINE",
"53 520 LINE",
"146 520 LINE",
"146 69 LINE",
"53 69 LINE"
);
}
);
};
layerId = "6E1B38A8-44EA-440A-BD04-FE41D2B0BC62";
paths = (
{
closed = 1;
nodes = (
"250 520 LINE",
"250 589 LINE",
"41 589 LINE",
"41 477 LINE",
"121 477 LINE",
"121 112 LINE",
"41 112 LINE",
"41 0 LINE",
"359 0 LINE",
"359 112 LINE",
"250 112 LINE",
"250 169 LINE",
"300 169 LINE SMOOTH",
"476 169 OFFCURVE",
"544 223 OFFCURVE",
"544 350 CURVE SMOOTH",
"544 459 OFFCURVE",
"481 520 OFFCURVE",
"300 520 CURVE SMOOTH"
);
},
{
closed = 1;
nodes = (
"251 278 LINE",
"251 409 LINE",
"299 409 LINE SMOOTH",
"371 409 OFFCURVE",
"411 399 OFFCURVE",
"411 347 CURVE SMOOTH",
"411 286 OFFCURVE",
"371 278 OFFCURVE",
"299 278 CURVE SMOOTH"
);
}
);
width = 572;
}
);
leftKerningGroup = I;
unicode = 00DE;
},
{
glyphname = Q;
layers = (
{
background = {
paths = (
{
closed = 1;
nodes = (
"455 536 OFFCURVE",
"517 447 OFFCURVE",
"517 295 CURVE SMOOTH",
"517 143 OFFCURVE",
"455 53 OFFCURVE",
"328 53 CURVE SMOOTH",
"201 53 OFFCURVE",
"139 143 OFFCURVE",
"139 295 CURVE SMOOTH",
"139 447 OFFCURVE",
"201 536 OFFCURVE",
"328 536 CURVE SMOOTH"
);
},
{
closed = 1;
nodes = (
"492 -15 OFFCURVE",
"602 105 OFFCURVE",
"602 295 CURVE SMOOTH",
"602 485 OFFCURVE",
"491 604 OFFCURVE",
"327 604 CURVE SMOOTH",
"165 604 OFFCURVE",
"54 485 OFFCURVE",
"54 295 CURVE SMOOTH",
"54 105 OFFCURVE",
"166 -15 OFFCURVE",
"328 -15 CURVE SMOOTH"
);
}
);
};
layerId = UUID0;
paths = (
{
closed = 1;
nodes = (
"603 -79 LINE",
"656 -13 LINE",
"522 66 LINE",
"573 120 OFFCURVE",
"602 198 OFFCURVE",
"602 295 CURVE SMOOTH",
"602 485 OFFCURVE",
"491 604 OFFCURVE",
"327 604 CURVE SMOOTH",
"165 604 OFFCURVE",
"54 485 OFFCURVE",
"54 295 CURVE SMOOTH",
"54 105 OFFCURVE",
"166 -15 OFFCURVE",
"328 -15 CURVE SMOOTH",
"385 -15 OFFCURVE",
"436 0 OFFCURVE",
"478 27 CURVE"
);
},
{
closed = 1;
nodes = (
"455 536 OFFCURVE",
"517 447 OFFCURVE",
"517 295 CURVE SMOOTH",
"517 143 OFFCURVE",
"455 53 OFFCURVE",
"328 53 CURVE SMOOTH",
"201 53 OFFCURVE",
"139 143 OFFCURVE",
"139 295 CURVE SMOOTH",
"139 447 OFFCURVE",
"201 536 OFFCURVE",
"328 536 CURVE SMOOTH"
);
}
);
width = 656;
},
{
background = {
paths = (
{
closed = 1;
nodes = (
"382 -15 OFFCURVE",
"433 0 OFFCURVE",
"475 27 CURVE",
"600 -79 LINE",
"653 -13 LINE",
"520 66 LINE",
"570 120 OFFCURVE",
"599 198 OFFCURVE",
"599 295 CURVE SMOOTH",
"599 485 OFFCURVE",
"488 604 OFFCURVE",
"324 604 CURVE SMOOTH",
"162 604 OFFCURVE",
"51 485 OFFCURVE",
"51 295 CURVE SMOOTH",
"51 105 OFFCURVE",
"163 -15 OFFCURVE",
"325 -15 CURVE SMOOTH"
);
},
{
closed = 1;
nodes = (
"452 536 OFFCURVE",
"514 447 OFFCURVE",
"514 295 CURVE SMOOTH",
"514 143 OFFCURVE",
"452 53 OFFCURVE",
"325 53 CURVE SMOOTH",
"198 53 OFFCURVE",
"136 143 OFFCURVE",
"136 295 CURVE SMOOTH",
"136 447 OFFCURVE",
"198 536 OFFCURVE",
"325 536 CURVE SMOOTH"
);
}
);
};
layerId = "6E1B38A8-44EA-440A-BD04-FE41D2B0BC62";
paths = (
{
closed = 1;
nodes = (
"583 -98 LINE",
"664 2 LINE",
"551 68 LINE",
"599 122 OFFCURVE",
"626 198 OFFCURVE",
"626 295 CURVE SMOOTH",
"626 500 OFFCURVE",
"503 611 OFFCURVE",
"327 611 CURVE SMOOTH",
"153 611 OFFCURVE",
"30 500 OFFCURVE",
"30 295 CURVE SMOOTH",
"30 90 OFFCURVE",
"154 -22 OFFCURVE",
"328 -22 CURVE SMOOTH",
"377 -22 OFFCURVE",
"422 -13 OFFCURVE",
"461 4 CURVE"
);
},
{
closed = 1;
nodes = (
"438 503 OFFCURVE",
"493 432 OFFCURVE",
"493 295 CURVE SMOOTH",
"493 158 OFFCURVE",
"437 86 OFFCURVE",
"328 86 CURVE SMOOTH",
"219 86 OFFCURVE",
"164 158 OFFCURVE",
"164 295 CURVE SMOOTH",
"164 432 OFFCURVE",
"219 503 OFFCURVE",
"328 503 CURVE SMOOTH"
);
}
);
width = 693;
}
);
leftKerningGroup = O;
rightKerningGroup = O;
unicode = 0051;
},
{
glyphname = R;
layers = (
{
background = {
paths = (
{
closed = 1;
nodes = (
"598 69 LINE",
"507 69 LINE",
"408 241 LINE",
"481 262 OFFCURVE",
"529 319 OFFCURVE",
"529 405 CURVE SMOOTH",
"529 535 OFFCURVE",
"476 589 OFFCURVE",
"313 589 CURVE SMOOTH",
"48 589 LINE",
"48 520 LINE",
"141 520 LINE",
"141 69 LINE",
"48 69 LINE",
"48 0 LINE",
"285 0 LINE",
"285 69 LINE",
"221 69 LINE",
"221 231 LINE",
"323 231 LINE",
"447 5 LINE",
"449 0 LINE",
"598 0 LINE"
);
},
{
closed = 1;
nodes = (
"312 520 LINE",
"395 520 OFFCURVE",
"444 511 OFFCURVE",
"444 404 CURVE SMOOTH",
"444 314 OFFCURVE",
"368 301 OFFCURVE",
"315 301 CURVE SMOOTH",
"223 301 LINE",
"222 520 LINE"
);
},
{
closed = 1;
nodes = (
"598 69 LINE",
"507 69 LINE",
"408 241 LINE",
"481 262 OFFCURVE",
"529 319 OFFCURVE",
"529 405 CURVE SMOOTH",
"529 535 OFFCURVE",
"476 589 OFFCURVE",
"313 589 CURVE SMOOTH",
"48 589 LINE",
"48 520 LINE",
"141 520 LINE",
"141 69 LINE",
"48 69 LINE",
"48 0 LINE",
"285 0 LINE",
"285 69 LINE",
"221 69 LINE",
"221 231 LINE",
"323 231 LINE",
"449 0 LINE",
"598 0 LINE"
);
},
{
closed = 1;
nodes = (
"444 314 OFFCURVE",
"368 301 OFFCURVE",
"315 301 CURVE SMOOTH",
"223 301 LINE",
"222 520 LINE",
"312 520 LINE SMOOTH",
"398 520 OFFCURVE",
"444 509 OFFCURVE",
"444 404 CURVE SMOOTH"
);
}
);
};
layerId = UUID0;
paths = (
{
closed = 1;
nodes = (
"48 589 LINE",
"48 520 LINE",
"142 520 LINE",
"142 69 LINE",
"48 69 LINE",
"48 0 LINE",
"285 0 LINE",
"285 69 LINE",
"222 69 LINE",
"222 230 LINE",
"313 230 LINE SMOOTH",
"474 230 OFFCURVE",
"530 294 OFFCURVE",
"530 411 CURVE SMOOTH",
"530 528 OFFCURVE",
"474 589 OFFCURVE",
"313 589 CURVE SMOOTH"
);
},
{
closed = 1;
nodes = (
"320 235 LINE",
"449 0 LINE",
"598 0 LINE",
"598 69 LINE",
"507 69 LINE",
"405 245 LINE"
);
},
{
closed = 1;
nodes = (
"223 301 LINE",
"223 520 LINE",
"313 520 LINE SMOOTH",
"398 520 OFFCURVE",
"445 502 OFFCURVE",
"445 410 CURVE SMOOTH",
"445 317 OFFCURVE",
"398 301 OFFCURVE",
"313 301 CURVE SMOOTH"
);
}
);
width = 625;
},
{
background = {
paths = (
{
closed = 1;
nodes = (
"223 301 LINE",
"223 520 LINE",
"313 520 LINE SMOOTH",
"398 520 OFFCURVE",
"445 502 OFFCURVE",
"445 410 CURVE SMOOTH",
"445 317 OFFCURVE",
"398 301 OFFCURVE",
"313 301 CURVE SMOOTH"
);
},
{
closed = 1;
nodes = (
"314 230 LINE",
"474 230 OFFCURVE",
"530 294 OFFCURVE",
"530 411 CURVE SMOOTH",
"530 528 OFFCURVE",
"474 589 OFFCURVE",
"314 589 CURVE SMOOTH",
"49 589 LINE",
"49 520 LINE",
"142 520 LINE",
"142 69 LINE",
"49 69 LINE",
"49 0 LINE",
"285 0 LINE",
"285 69 LINE",
"222 69 LINE",
"222 230 LINE"
);
},
{
closed = 1;
nodes = (
"320 235 LINE",
"449 0 LINE",
"599 0 LINE",
"599 69 LINE",
"507 69 LINE",
"406 245 LINE"
);
}
);
};
layerId = "6E1B38A8-44EA-440A-BD04-FE41D2B0BC62";
paths = (
{
closed = 1;
nodes = (
"41 589 LINE",
"41 477 LINE",
"121 477 LINE",
"121 112 LINE",
"41 112 LINE",
"41 0 LINE",
"298 0 LINE",
"298 112 LINE",
"250 112 LINE",
"250 192 LINE",
"319 192 LINE",
"423 0 LINE",
"602 0 LINE",
"602 112 LINE",
"498 112 LINE",
"435 213 LINE",
"512 244 OFFCURVE",
"544 306 OFFCURVE",
"544 390 CURVE SMOOTH",
"544 510 OFFCURVE",
"495 589 OFFCURVE",
"305 589 CURVE SMOOTH"
);
},
{
closed = 1;
nodes = (
"251 303 LINE",
"251 477 LINE",
"299 477 LINE SMOOTH",
"371 477 OFFCURVE",
"411 458 OFFCURVE",
"411 390 CURVE SMOOTH",
"411 324 OFFCURVE",
"382 303 OFFCURVE",
"299 303 CURVE SMOOTH"
);
}
);
width = 611;
}
);
leftKerningGroup = I;
unicode = 0052;
},
{
glyphname = S;
layers = (
{
background = {
paths = (
{
closed = 1;
nodes = (
"419 81 OFFCURVE",
"351 53 OFFCURVE",
"268 53 CURVE SMOOTH",
"225 53 OFFCURVE",
"170 67 OFFCURVE",
"130 81 CURVE",
"117 152 LINE",
"51 141 LINE",
"70 30 LINE",
"76 28 OFFCURVE",
"173 -15 OFFCURVE",
"281 -15 CURVE SMOOTH",
"409 -15 OFFCURVE",
"499 38 OFFCURVE",
"499 172 CURVE SMOOTH",
"499 248 OFFCURVE",
"466 318 OFFCURVE",
"333 338 CURVE SMOOTH",
"242 352 LINE SMOOTH",
"183 361 OFFCURVE",
"145 391 OFFCURVE",
"145 447 CURVE SMOOTH",
"145 505 OFFCURVE",
"198 537 OFFCURVE",
"277 537 CURVE SMOOTH",
"334 537 OFFCURVE",
"377 526 OFFCURVE",
"404 516 CURVE",
"417 436 LINE",
"483 443 LINE",
"466 565 LINE",
"459 567 OFFCURVE",
"395 604 OFFCURVE",
"276 604 CURVE SMOOTH",
"132 604 OFFCURVE",
"65 529 OFFCURVE",
"65 445 CURVE SMOOTH",
"65 355 OFFCURVE",
"117 281 OFFCURVE",
"242 265 CURVE",
"318 255 LINE SMOOTH",
"406 243 OFFCURVE",
"419 204 OFFCURVE",
"419 161 CURVE SMOOTH"
);
}
);
};
layerId = UUID0;
paths = (
{
closed = 1;
nodes = (
"417 440 LINE",
"483 447 LINE",
"466 571 LINE",
"451 579 OFFCURVE",
"374 604 OFFCURVE",
"276 604 CURVE SMOOTH",
"132 604 OFFCURVE",
"65 535 OFFCURVE",
"65 445 CURVE SMOOTH",
"65 347 OFFCURVE",
"117 285 OFFCURVE",
"242 269 CURVE SMOOTH",
"318 259 LINE SMOOTH",
"406 247 OFFCURVE",
"419 204 OFFCURVE",
"419 161 CURVE SMOOTH",
"419 81 OFFCURVE",
"351 53 OFFCURVE",
"268 53 CURVE SMOOTH",
"209 53 OFFCURVE",
"171 64 OFFCURVE",
"131 77 CURVE",
"117 152 LINE",
"51 146 LINE",
"70 24 LINE",
"116 6 OFFCURVE",
"186 -15 OFFCURVE",
"281 -15 CURVE SMOOTH",
"409 -15 OFFCURVE",
"499 38 OFFCURVE",
"499 172 CURVE SMOOTH",
"499 259 OFFCURVE",
"466 318 OFFCURVE",
"333 338 CURVE SMOOTH",
"242 352 LINE SMOOTH",
"183 361 OFFCURVE",
"145 391 OFFCURVE",
"145 447 CURVE SMOOTH",
"145 505 OFFCURVE",
"198 537 OFFCURVE",
"277 537 CURVE SMOOTH",
"334 537 OFFCURVE",
"377 530 OFFCURVE",
"404 520 CURVE"
);
}
);
width = 552;
},
{
background = {
paths = (
{
closed = 1;
nodes = (
"411 81 OFFCURVE",
"343 53 OFFCURVE",
"260 53 CURVE SMOOTH",
"201 53 OFFCURVE",
"164 64 OFFCURVE",
"123 77 CURVE",
"109 152 LINE",
"43 146 LINE",
"62 24 LINE",
"108 6 OFFCURVE",
"178 -15 OFFCURVE",
"273 -15 CURVE SMOOTH",
"401 -15 OFFCURVE",
"491 38 OFFCURVE",
"491 172 CURVE SMOOTH",
"491 259 OFFCURVE",
"458 318 OFFCURVE",
"325 338 CURVE SMOOTH",
"234 352 LINE SMOOTH",
"175 361 OFFCURVE",
"137 391 OFFCURVE",
"137 447 CURVE SMOOTH",
"137 505 OFFCURVE",
"190 537 OFFCURVE",
"269 537 CURVE SMOOTH",
"326 537 OFFCURVE",
"369 530 OFFCURVE",
"396 520 CURVE",
"409 440 LINE",
"475 447 LINE",
"458 571 LINE",
"443 579 OFFCURVE",
"366 604 OFFCURVE",
"268 604 CURVE SMOOTH",
"124 604 OFFCURVE",
"57 535 OFFCURVE",
"57 445 CURVE SMOOTH",
"57 347 OFFCURVE",
"109 285 OFFCURVE",
"234 269 CURVE SMOOTH",
"310 259 LINE SMOOTH",
"398 247 OFFCURVE",
"411 204 OFFCURVE",
"411 161 CURVE SMOOTH"
);
}
);
};
layerId = "6E1B38A8-44EA-440A-BD04-FE41D2B0BC62";
paths = (
{
closed = 1;
nodes = (
"380 405 LINE",
"493 417 LINE",
"473 572 LINE",
"454 583 OFFCURVE",
"375 611 OFFCURVE",
"271 611 CURVE SMOOTH",
"110 611 OFFCURVE",
"45 529 OFFCURVE",
"45 431 CURVE SMOOTH",
"45 328 OFFCURVE",
"102 262 OFFCURVE",
"234 241 CURVE SMOOTH",
"325 226 LINE SMOOTH",
"384 216 OFFCURVE",
"396 198 OFFCURVE",
"396 171 CURVE SMOOTH",
"396 108 OFFCURVE",
"333 86 OFFCURVE",
"263 86 CURVE SMOOTH",
"215 86 OFFCURVE",
"182 96 OFFCURVE",
"149 106 CURVE",
"141 171 LINE",
"35 158 LINE",
"53 16 LINE",
"106 -5 OFFCURVE",
"176 -22 OFFCURVE",
"276 -22 CURVE SMOOTH",
"378 -22 OFFCURVE",
"519 12 OFFCURVE",
"519 177 CURVE SMOOTH",
"519 276 OFFCURVE",
"469 339 OFFCURVE",
"335 360 CURVE SMOOTH",
"266 372 LINE SMOOTH",
"187 384 OFFCURVE",
"165 413 OFFCURVE",
"165 445 CURVE SMOOTH",
"165 491 OFFCURVE",
"219 504 OFFCURVE",
"275 504 CURVE SMOOTH",
"310 504 OFFCURVE",
"344 500 OFFCURVE",
"367 495 CURVE"
);
}
);
width = 549;
}
);
unicode = 0053;
},
{
glyphname = T;
layers = (
{
layerId = UUID0;
paths = (
{
closed = 1;
nodes = (
"35 425 LINE",
"111 425 LINE",
"111 520 LINE",
"252 520 LINE",
"251 69 LINE",
"156 69 LINE",
"156 0 LINE",
"426 0 LINE",
"426 69 LINE",
"331 69 LINE",
"333 520 LINE",
"474 520 LINE",
"474 425 LINE",
"550 425 LINE",
"550 589 LINE",
"35 589 LINE"
);
}
);
width = 584;
},
{
background = {
paths = (
{
closed = 1;
nodes = (
"531 425 LINE",
"531 589 LINE",
"16 589 LINE",
"16 425 LINE",
"92 425 LINE",
"92 520 LINE",
"233 520 LINE",
"232 69 LINE",
"137 69 LINE",
"137 0 LINE",
"407 0 LINE",
"407 69 LINE",
"312 69 LINE",
"314 520 LINE",
"455 520 LINE",
"455 425 LINE"
);
}
);
};
layerId = "6E1B38A8-44EA-440A-BD04-FE41D2B0BC62";
paths = (
{
closed = 1;
nodes = (
"7 376 LINE",
"119 376 LINE",
"119 477 LINE",
"211 477 LINE",
"211 112 LINE",
"129 112 LINE",
"129 0 LINE",
"422 0 LINE",
"422 112 LINE",
"341 112 LINE",
"341 477 LINE",
"434 477 LINE",
"434 376 LINE",
"546 376 LINE",
"546 589 LINE",
"7 589 LINE"
);
}
);
width = 553;
}
);
unicode = 0054;
},
{
glyphname = U;
layers = (
{
layerId = UUID0;
paths = (
{
closed = 1;
nodes = (
"553 520 LINE",
"649 520 LINE",
"649 589 LINE",
"409 589 LINE",
"409 520 LINE",
"473 520 LINE",
"473 238 LINE SMOOTH",
"473 123 OFFCURVE",
"439 53 OFFCURVE",
"332 53 CURVE SMOOTH",
"233 53 OFFCURVE",
"201 113 OFFCURVE",
"201 228 CURVE SMOOTH",
"201 520 LINE",
"265 520 LINE",
"265 589 LINE",
"25 589 LINE",
"25 520 LINE",
"121 520 LINE",
"121 235 LINE SMOOTH",
"121 27 OFFCURVE",
"229 -15 OFFCURVE",
"332 -15 CURVE SMOOTH",
"439 -15 OFFCURVE",
"553 27 OFFCURVE",
"553 235 CURVE SMOOTH"
);
}
);
width = 673;
},
{
background = {
paths = (
{
closed = 1;
nodes = (
"247 53 OFFCURVE",
"215 113 OFFCURVE",
"215 228 CURVE SMOOTH",
"215 520 LINE",
"279 520 LINE",
"279 589 LINE",
"39 589 LINE",
"39 520 LINE",
"135 520 LINE",
"135 235 LINE SMOOTH",
"135 27 OFFCURVE",
"243 -15 OFFCURVE",
"346 -15 CURVE SMOOTH",
"453 -15 OFFCURVE",
"567 27 OFFCURVE",
"567 235 CURVE SMOOTH",
"567 520 LINE",
"663 520 LINE",
"663 589 LINE",
"423 589 LINE",
"423 520 LINE",
"487 520 LINE",
"487 238 LINE SMOOTH",
"487 123 OFFCURVE",
"453 53 OFFCURVE",
"346 53 CURVE SMOOTH"
);
}
);
};
layerId = "6E1B38A8-44EA-440A-BD04-FE41D2B0BC62";
paths = (
{
closed = 1;
nodes = (
"589 477 LINE",
"671 477 LINE",
"671 589 LINE",
"405 589 LINE",
"405 477 LINE",
"460 477 LINE",
"460 245 LINE SMOOTH",
"460 145 OFFCURVE",
"440 84 OFFCURVE",
"355 84 CURVE SMOOTH",
"277 84 OFFCURVE",
"247 136 OFFCURVE",
"247 235 CURVE SMOOTH",
"247 477 LINE",
"302 477 LINE",
"302 589 LINE",
"37 589 LINE",
"37 477 LINE",
"118 477 LINE",
"118 242 LINE SMOOTH",
"118 13 OFFCURVE",
"245 -22 OFFCURVE",
"355 -22 CURVE SMOOTH",
"469 -22 OFFCURVE",
"589 13 OFFCURVE",
"589 242 CURVE SMOOTH"
);
}
);
width = 688;
}
);
leftKerningGroup = U;
rightKerningGroup = U;
unicode = 0055;
},
{
glyphname = Uacute;
layers = (
{
background = {
paths = (
{
closed = 1;
nodes = (
"299 674 LINE",
"308 638 LINE",
"560 685 LINE",
"542 758 LINE"
);
}
);
};
components = (
{
name = U;
},
{
name = Acute;
transform = "{1, 0, 0, 1, 267, 0}";
}
);
layerId = UUID0;
width = 673;
},
{
components = (
{
name = U;
},
{
name = acute;
transform = "{1, 0, 0, 1, 206, 135}";
}
);
layerId = "6E1B38A8-44EA-440A-BD04-FE41D2B0BC62";
width = 712;
}
);
leftKerningGroup = U;
rightKerningGroup = U;
unicode = 00DA;
},
{
glyphname = Ugrave;
layers = (
{
background = {
paths = (
{
closed = 1;
nodes = (
"350 678 LINE",
"341 642 LINE",
"89 689 LINE",
"107 762 LINE"
);
}
);
};
components = (
{
name = U;
},
{
name = Grave;
transform = "{1, 0, 0, 1, 52, 0}";
}
);
layerId = UUID0;
width = 673;
},
{
components = (
{
name = U;
},
{
name = grave;
transform = "{1, 0, 0, 1, 167, 135}";
}
);
layerId = "6E1B38A8-44EA-440A-BD04-FE41D2B0BC62";
width = 712;
}
);
leftKerningGroup = U;
rightKerningGroup = U;
unicode = 00D9;
},
{
glyphname = V;
layers = (
{
background = {
paths = (
{
closed = 1;
nodes = (
"164 334 OFFCURVE",
"182 316 OFFCURVE",
"204 316 CURVE SMOOTH",
"226 316 OFFCURVE",
"244 334 OFFCURVE",
"244 356 CURVE SMOOTH",
"244 378 OFFCURVE",
"226 396 OFFCURVE",
"204 396 CURVE SMOOTH",
"182 396 OFFCURVE",
"164 378 OFFCURVE",
"164 356 CURVE SMOOTH"
);
},
{
closed = 1;
nodes = (
"432 334 OFFCURVE",
"450 316 OFFCURVE",
"472 316 CURVE SMOOTH",
"494 316 OFFCURVE",
"512 334 OFFCURVE",
"512 356 CURVE SMOOTH",
"512 378 OFFCURVE",
"494 396 OFFCURVE",
"472 396 CURVE SMOOTH",
"450 396 OFFCURVE",
"432 378 OFFCURVE",
"432 356 CURVE SMOOTH"
);
},
{
closed = 1;
nodes = (
"4 520 LINE",
"99 520 LINE",
"295 0 LINE",
"380 0 LINE",
"556 520 LINE",
"651 520 LINE",
"651 589 LINE",
"423 589 LINE",
"423 520 LINE",
"487 520 LINE",
"388 238 LINE",
"341 89 LINE",
"288 246 LINE",
"185 520 LINE",
"249 520 LINE",
"249 589 LINE",
"4 589 LINE"
);
}
);
};
layerId = UUID0;
paths = (
{
closed = 1;
nodes = (
"4 520 LINE",
"99 520 LINE",
"295 0 LINE",
"385 0 LINE",
"562 520 LINE",
"656 520 LINE",
"656 589 LINE",
"423 589 LINE",
"423 520 LINE",
"487 520 LINE",
"388 238 LINE",
"341 89 LINE",
"288 246 LINE",
"185 520 LINE",
"249 520 LINE",
"249 589 LINE",
"4 589 LINE"
);
}
);
width = 664;
},
{
background = {
paths = (
{
closed = 1;
nodes = (
"5 520 LINE",
"101 520 LINE",
"296 0 LINE",
"387 0 LINE",
"563 520 LINE",
"658 520 LINE",
"658 589 LINE",
"424 589 LINE",
"424 520 LINE",
"489 520 LINE",
"390 238 LINE",
"343 89 LINE",
"290 246 LINE",
"187 520 LINE",
"250 520 LINE",
"250 589 LINE",
"5 589 LINE"
);
}
);
};
layerId = "6E1B38A8-44EA-440A-BD04-FE41D2B0BC62";
paths = (
{
closed = 1;
nodes = (
"5 477 LINE",
"82 477 LINE",
"278 0 LINE",
"410 0 LINE",
"593 477 LINE",
"661 477 LINE",
"661 589 LINE",
"395 589 LINE",
"395 477 LINE",
"453 477 LINE",
"381 257 LINE",
"345 130 LINE",
"310 256 LINE",
"232 477 LINE",
"285 477 LINE",
"285 589 LINE",
"5 589 LINE"
);
}
);
width = 666;
}
);
leftKerningGroup = V;
rightKerningGroup = V;
unicode = 0056;
},
{
glyphname = W;
layers = (
{
background = {
paths = (
{
closed = 1;
nodes = (
"6 520 LINE",
"101 520 LINE",
"277 0 LINE",
"360 0 LINE",
"430 264 LINE",
"462 404 LINE",
"494 269 LINE",
"565 0 LINE",
"657 0 LINE",
"821 520 LINE",
"916 520 LINE",
"916 589 LINE",
"687 589 LINE",
"687 520 LINE",
"751 520 LINE",
"658 238 LINE",
"615 92 LINE",
"583 238 LINE",
"513 514 LINE",
"425 514 LINE",
"353 232 LINE",
"322 91 LINE",
"279 237 LINE",
"185 520 LINE",
"249 520 LINE",
"249 589 LINE",
"6 589 LINE"
);
}
);
};
layerId = UUID0;
paths = (
{
closed = 1;
nodes = (
"6 520 LINE",
"101 520 LINE",
"267 0 LINE",
"353 0 LINE",
"423 264 LINE",
"462 404 LINE",
"494 269 LINE",
"565 0 LINE",
"657 0 LINE",
"821 520 LINE",
"916 520 LINE",
"916 589 LINE",
"687 589 LINE",
"687 520 LINE",
"751 520 LINE",
"658 238 LINE",
"615 92 LINE",
"583 238 LINE",
"513 514 LINE",
"425 514 LINE",
"343 232 LINE",
"313 91 LINE",
"269 237 LINE",
"185 520 LINE",
"249 520 LINE",
"249 589 LINE",
"6 589 LINE"
);
}
);
width = 927;
},
{
background = {
paths = (
{
closed = 1;
nodes = (
"24 520 LINE",
"119 520 LINE",
"285 0 LINE",
"371 0 LINE",
"441 264 LINE",
"480 404 LINE",
"512 269 LINE",
"583 0 LINE",
"675 0 LINE",
"839 520 LINE",
"934 520 LINE",
"934 589 LINE",
"705 589 LINE",
"705 520 LINE",
"769 520 LINE",
"676 238 LINE",
"633 92 LINE",
"601 238 LINE",
"531 514 LINE",
"443 514 LINE",
"361 232 LINE",
"331 91 LINE",
"287 237 LINE",
"203 520 LINE",
"267 520 LINE",
"267 589 LINE",
"24 589 LINE"
);
}
);
};
layerId = "6E1B38A8-44EA-440A-BD04-FE41D2B0BC62";
paths = (
{
closed = 1;
nodes = (
"7 477 LINE",
"89 477 LINE",
"239 0 LINE",
"389 0 LINE",
"486 389 LINE",
"569 0 LINE",
"719 0 LINE",
"871 477 LINE",
"934 477 LINE",
"934 589 LINE",
"668 589 LINE",
"668 477 LINE",
"730 477 LINE",
"680 257 LINE",
"658 130 LINE",
"635 257 LINE",
"565 515 LINE",
"405 515 LINE",
"336 257 LINE",
"313 130 LINE",
"287 257 LINE",
"236 477 LINE",
"288 477 LINE",
"288 589 LINE",
"7 589 LINE"
);
}
);
width = 941;
}
);
leftKerningGroup = V;
rightKerningGroup = V;
unicode = 0057;
},
{
glyphname = X;
layers = (
{
layerId = UUID0;
paths = (
{
closed = 1;
nodes = (
"32 520 LINE",
"117 520 LINE",
"291 301 LINE",
"118 69 LINE",
"33 69 LINE",
"33 0 LINE",
"278 0 LINE",
"278 69 LINE",
"204 69 LINE",
"335 245 LINE",
"476 69 LINE",
"402 69 LINE",
"402 0 LINE",
"663 0 LINE",
"663 69 LINE",
"578 69 LINE",
"391 305 LINE",
"550 520 LINE",
"645 520 LINE",
"645 589 LINE",
"395 589 LINE",
"395 520 LINE",
"464 520 LINE",
"346 361 LINE",
"220 520 LINE",
"284 520 LINE",
"284 589 LINE",
"32 589 LINE"
);
}
);
width = 687;
},
{
anchors = (
{
name = "(empty)";
position = "{-8, 0}";
}
);
background = {
paths = (
{
closed = 1;
nodes = (
"21 520 LINE",
"105 520 LINE",
"280 301 LINE",
"107 69 LINE",
"21 69 LINE",
"21 0 LINE",
"267 0 LINE",
"267 69 LINE",
"193 69 LINE",
"324 245 LINE",
"465 69 LINE",
"391 69 LINE",
"391 0 LINE",
"652 0 LINE",
"652 69 LINE",
"567 69 LINE",
"380 305 LINE",
"539 520 LINE",
"634 520 LINE",
"634 589 LINE",
"384 589 LINE",
"384 520 LINE",
"453 520 LINE",
"334 361 LINE",
"208 520 LINE",
"272 520 LINE",
"272 589 LINE",
"21 589 LINE"
);
}
);
};
layerId = "6E1B38A8-44EA-440A-BD04-FE41D2B0BC62";
paths = (
{
closed = 1;
nodes = (
"16 477 LINE",
"99 477 LINE",
"257 289 LINE",
"110 110 LINE",
"5 110 LINE",
"5 0 LINE",
"284 0 LINE",
"284 110 LINE",
"243 110 LINE",
"333 211 LINE",
"418 110 LINE",
"364 110 LINE",
"364 0 LINE",
"664 0 LINE",
"664 110 LINE",
"552 110 LINE",
"405 289 LINE",
"556 477 LINE",
"645 477 LINE",
"645 589 LINE",
"377 589 LINE",
"377 477 LINE",
"427 477 LINE",
"329 366 LINE",
"236 477 LINE",
"291 477 LINE",
"291 589 LINE",
"16 589 LINE"
);
}
);
width = 668;
}
);
unicode = 0058;
},
{
glyphname = Y;
layers = (
{
layerId = UUID0;
paths = (
{
closed = 1;
nodes = (
"11 520 LINE",
"95 520 LINE",
"293 274 LINE",
"292 69 LINE",
"198 69 LINE",
"198 0 LINE",
"465 0 LINE",
"465 69 LINE",
"371 69 LINE",
"373 277 LINE",
"558 520 LINE",
"654 520 LINE",
"654 589 LINE",
"417 589 LINE",
"417 520 LINE",
"472 520 LINE",
"338 344 LINE",
"197 520 LINE",
"250 520 LINE",
"250 589 LINE",
"11 589 LINE"
);
}
);
width = 663;
},
{
background = {
paths = (
{
closed = 1;
nodes = (
"0 520 LINE",
"84 520 LINE",
"283 274 LINE",
"282 69 LINE",
"188 69 LINE",
"188 0 LINE",
"455 0 LINE",
"455 69 LINE",
"361 69 LINE",
"363 277 LINE",
"548 520 LINE",
"644 520 LINE",
"644 589 LINE",
"407 589 LINE",
"407 520 LINE",
"462 520 LINE",
"328 344 LINE",
"187 520 LINE",
"240 520 LINE",
"240 589 LINE",
"0 589 LINE"
);
}
);
};
layerId = "6E1B38A8-44EA-440A-BD04-FE41D2B0BC62";
paths = (
{
closed = 1;
nodes = (
"-7 477 LINE",
"69 477 LINE",
"261 231 LINE",
"261 111 LINE",
"166 111 LINE",
"166 0 LINE",
"482 0 LINE",
"482 111 LINE",
"388 111 LINE",
"388 231 LINE",
"563 477 LINE",
"646 477 LINE",
"646 589 LINE",
"380 589 LINE",
"380 477 LINE",
"433 477 LINE",
"328 326 LINE",
"218 477 LINE",
"277 477 LINE",
"277 589 LINE",
"-7 589 LINE"
);
}
);
width = 638;
}
);
leftKerningGroup = Y;
rightKerningGroup = Y;
unicode = 0059;
},
{
glyphname = Yacute;
layers = (
{
background = {
paths = (
{
closed = 1;
nodes = (
"295 674 LINE",
"304 638 LINE",
"556 685 LINE",
"538 758 LINE"
);
}
);
};
components = (
{
name = Y;
},
{
name = Acute;
transform = "{1, 0, 0, 1, 263, 0}";
}
);
layerId = UUID0;
width = 663;
},
{
components = (
{
name = Y;
},
{
name = acute;
transform = "{1, 0, 0, 1, 201, 135}";
}
);
layerId = "6E1B38A8-44EA-440A-BD04-FE41D2B0BC62";
width = 673;
}
);
leftKerningGroup = Y;
rightKerningGroup = Y;
unicode = 00DD;
},
{
glyphname = Z;
layers = (
{
background = {
paths = (
{
closed = 1;
nodes = (
"115 423 LINE",
"135 520 LINE",
"393 520 LINE",
"59 56 LINE",
"59 0 LINE",
"471 0 LINE",
"523 154 LINE",
"457 176 LINE",
"417 69 LINE",
"156 69 LINE",
"493 537 LINE",
"493 589 LINE",
"79 589 LINE",
"51 432 LINE"
);
},
{
closed = 1;
nodes = (
"133 124 OFFCURVE",
"151 106 OFFCURVE",
"173 106 CURVE SMOOTH",
"195 106 OFFCURVE",
"213 124 OFFCURVE",
"213 146 CURVE SMOOTH",
"213 168 OFFCURVE",
"195 186 OFFCURVE",
"173 186 CURVE SMOOTH",
"151 186 OFFCURVE",
"133 168 OFFCURVE",
"133 146 CURVE SMOOTH"
);
},
{
closed = 1;
nodes = (
"329 396 OFFCURVE",
"346 379 OFFCURVE",
"368 379 CURVE SMOOTH",
"391 379 OFFCURVE",
"408 396 OFFCURVE",
"408 418 CURVE SMOOTH",
"408 441 OFFCURVE",
"391 458 OFFCURVE",
"368 458 CURVE SMOOTH",
"346 458 OFFCURVE",
"329 441 OFFCURVE",
"329 418 CURVE SMOOTH"
);
}
);
};
layerId = UUID0;
paths = (
{
closed = 1;
nodes = (
"61 432 LINE",
"125 423 LINE",
"145 520 LINE",
"393 520 LINE",
"59 56 LINE",
"59 0 LINE",
"466 0 LINE",
"518 154 LINE",
"452 176 LINE",
"412 69 LINE",
"161 69 LINE",
"498 537 LINE",
"498 589 LINE",
"89 589 LINE"
);
}
);
width = 562;
},
{
background = {
paths = (
{
closed = 1;
nodes = (
"96 423 LINE",
"116 520 LINE",
"364 520 LINE",
"30 56 LINE",
"30 0 LINE",
"437 0 LINE",
"489 154 LINE",
"423 176 LINE",
"383 69 LINE",
"132 69 LINE",
"469 537 LINE",
"469 589 LINE",
"60 589 LINE",
"32 432 LINE"
);
}
);
};
layerId = "6E1B38A8-44EA-440A-BD04-FE41D2B0BC62";
paths = (
{
closed = 1;
nodes = (
"10 407 LINE",
"122 391 LINE",
"140 477 LINE",
"310 477 LINE",
"17 89 LINE",
"17 0 LINE",
"458 0 LINE",
"516 169 LINE",
"409 205 LINE",
"375 112 LINE",
"188 112 LINE",
"486 509 LINE",
"486 589 LINE",
"41 589 LINE"
);
}
);
width = 526;
}
);
unicode = 005A;
},
{
glyphname = a;
layers = (
{
layerId = UUID0;
paths = (
{
closed = 1;
nodes = (
"487 -17 LINE",
"507 47 LINE",
"412 78 LINE",
"412 252 LINE SMOOTH",
"412 335 OFFCURVE",
"410 444 OFFCURVE",
"230 444 CURVE SMOOTH",
"147 444 OFFCURVE",
"85 416 OFFCURVE",
"85 416 CURVE",
"69 325 LINE",
"133 313 LINE",
"143 368 LINE",
"160 373 OFFCURVE",
"191 380 OFFCURVE",
"233 380 CURVE SMOOTH",
"343 380 OFFCURVE",
"334 306 OFFCURVE",
"334 256 CURVE SMOOTH",
"334 248 LINE",
"205 249 LINE SMOOTH",
"113 249 OFFCURVE",
"38 211 OFFCURVE",
"39 118 CURVE SMOOTH",
"40 42 OFFCURVE",
"104 -15 OFFCURVE",
"211 -15 CURVE SMOOTH",
"271 -15 OFFCURVE",
"318 6 OFFCURVE",
"352 29 CURVE"
);
},
{
closed = 1;
nodes = (
"334 185 LINE",
"334 87 LINE",
"313 71 OFFCURVE",
"274 49 OFFCURVE",
"215 49 CURVE SMOOTH",
"164 49 OFFCURVE",
"119 71 OFFCURVE",
"119 119 CURVE SMOOTH",
"119 178 OFFCURVE",
"162 186 OFFCURVE",
"208 186 CURVE SMOOTH"
);
}
);
width = 511;
},
{
background = {
paths = (
{
closed = 1;
nodes = (
"135 313 LINE",
"145 368 LINE",
"162 373 OFFCURVE",
"193 380 OFFCURVE",
"235 380 CURVE SMOOTH",
"345 380 OFFCURVE",
"336 306 OFFCURVE",
"336 256 CURVE SMOOTH",
"336 248 LINE",
"207 249 LINE SMOOTH",
"115 249 OFFCURVE",
"40 211 OFFCURVE",
"41 118 CURVE SMOOTH",
"42 42 OFFCURVE",
"105 -15 OFFCURVE",
"213 -15 CURVE SMOOTH",
"272 -15 OFFCURVE",
"320 6 OFFCURVE",
"354 29 CURVE",
"489 -17 LINE",
"509 47 LINE",
"414 78 LINE",
"414 252 LINE SMOOTH",
"414 335 OFFCURVE",
"412 444 OFFCURVE",
"232 444 CURVE SMOOTH",
"149 444 OFFCURVE",
"87 416 OFFCURVE",
"87 416 CURVE",
"71 325 LINE"
);
},
{
closed = 1;
nodes = (
"166 49 OFFCURVE",
"121 71 OFFCURVE",
"121 119 CURVE SMOOTH",
"121 178 OFFCURVE",
"164 186 OFFCURVE",
"209 186 CURVE SMOOTH",
"336 185 LINE",
"336 87 LINE",
"315 71 OFFCURVE",
"276 49 OFFCURVE",
"217 49 CURVE SMOOTH"
);
}
);
};
layerId = "6E1B38A8-44EA-440A-BD04-FE41D2B0BC62";
paths = (
{
closed = 1;
nodes = (
"495 -26 LINE",
"530 78 LINE",
"449 104 LINE",
"449 267 LINE SMOOTH",
"449 360 OFFCURVE",
"446 474 OFFCURVE",
"232 474 CURVE SMOOTH",
"170 474 OFFCURVE",
"115 463 OFFCURVE",
"65 445 CURVE",
"46 333 LINE",
"153 320 LINE",
"157 363 LINE",
"174 369 OFFCURVE",
"200 375 OFFCURVE",
"232 375 CURVE SMOOTH",
"318 375 OFFCURVE",
"322 332 OFFCURVE",
"322 266 CURVE",
"217 266 LINE SMOOTH",
"109 266 OFFCURVE",
"27 233 OFFCURVE",
"27 123 CURVE SMOOTH",
"27 33 OFFCURVE",
"101 -20 OFFCURVE",
"224 -20 CURVE SMOOTH",
"280 -20 OFFCURVE",
"328 -4 OFFCURVE",
"368 17 CURVE"
);
},
{
closed = 1;
nodes = (
"322 179 LINE",
"322 98 LINE",
"302 86 OFFCURVE",
"270 72 OFFCURVE",
"228 72 CURVE SMOOTH",
"183 72 OFFCURVE",
"156 91 OFFCURVE",
"156 129 CURVE SMOOTH",
"156 171 OFFCURVE",
"180 179 OFFCURVE",
"220 179 CURVE SMOOTH"
);
}
);
width = 537;
}
);
leftKerningGroup = a;
rightKerningGroup = a;
unicode = 0061;
},
{
glyphname = aacute;
layers = (
{
background = {
paths = (
{
closed = 1;
nodes = (
"165 512 LINE",
"183 480 LINE",
"417 586 LINE",
"381 652 LINE"
);
}
);
};
components = (
{
name = a;
},
{
name = acute;
transform = "{1, 0, 0, 1, 132, 20}";
}
);
layerId = UUID0;
width = 511;
},
{
components = (
{
name = a;
},
{
name = acute;
transform = "{1, 0, 0, 1, 86, 0}";
}
);
layerId = "6E1B38A8-44EA-440A-BD04-FE41D2B0BC62";
width = 532;
}
);
leftKerningGroup = a;
rightKerningGroup = a;
unicode = 00E1;
},
{
glyphname = agrave;
layers = (
{
background = {
paths = (
{
closed = 1;
nodes = (
"320 512 LINE",
"302 480 LINE",
"69 586 LINE",
"104 652 LINE"
);
}
);
};
components = (
{
name = a;
},
{
name = grave;
transform = "{1, 0, 0, 1, 27, 1}";
}
);
layerId = UUID0;
width = 511;
},
{
components = (
{
name = a;
},
{
name = grave;
transform = "{1, 0, 0, 1, 33, 0}";
}
);
layerId = "6E1B38A8-44EA-440A-BD04-FE41D2B0BC62";
width = 532;
}
);
leftKerningGroup = a;
rightKerningGroup = a;
unicode = 00E0;
},
{
glyphname = aring;
layers = (
{
background = {
paths = (
{
closed = 1;
nodes = (
"158 518 OFFCURVE",
"197 479 OFFCURVE",
"244 479 CURVE SMOOTH",
"292 479 OFFCURVE",
"330 518 OFFCURVE",
"330 565 CURVE SMOOTH",
"330 612 OFFCURVE",
"292 651 OFFCURVE",
"244 651 CURVE SMOOTH",
"197 651 OFFCURVE",
"158 612 OFFCURVE",
"158 565 CURVE SMOOTH"
);
},
{
closed = 1;
nodes = (
"205 586 OFFCURVE",
"223 604 OFFCURVE",
"244 604 CURVE SMOOTH",
"265 604 OFFCURVE",
"283 586 OFFCURVE",
"283 565 CURVE SMOOTH",
"283 544 OFFCURVE",
"265 526 OFFCURVE",
"244 526 CURVE SMOOTH",
"223 526 OFFCURVE",
"205 544 OFFCURVE",
"205 565 CURVE SMOOTH"
);
}
);
};
components = (
{
name = a;
},
{
name = ring;
transform = "{1, 0, 0, 1, 125, -146}";
}
);
layerId = UUID0;
width = 511;
},
{
components = (
{
name = a;
},
{
name = ring;
transform = "{1, 0, 0, 1, 99, 0}";
}
);
layerId = "6E1B38A8-44EA-440A-BD04-FE41D2B0BC62";
width = 532;
}
);
leftKerningGroup = a;
rightKerningGroup = a;
unicode = 00E5;
},
{
glyphname = ae;
layers = (
{
layerId = UUID0;
paths = (
{
closed = 1;
nodes = (
"69 325 LINE",
"133 313 LINE",
"143 368 LINE",
"160 373 OFFCURVE",
"191 380 OFFCURVE",
"233 380 CURVE SMOOTH",
"343 380 OFFCURVE",
"334 306 OFFCURVE",
"334 256 CURVE SMOOTH",
"334 248 LINE",
"205 249 LINE SMOOTH",
"113 249 OFFCURVE",
"38 211 OFFCURVE",
"39 118 CURVE SMOOTH",
"40 42 OFFCURVE",
"104 -15 OFFCURVE",
"211 -15 CURVE SMOOTH",
"269 -15 OFFCURVE",
"355 25 OFFCURVE",
"389 48 CURVE",
"428 7 OFFCURVE",
"483 -15 OFFCURVE",
"549 -15 CURVE SMOOTH",
"670 -15 OFFCURVE",
"738 50 OFFCURVE",
"738 51 CURVE",
"702 98 LINE",
"702 98 OFFCURVE",
"643 49 OFFCURVE",
"550 49 CURVE SMOOTH",
"464 49 OFFCURVE",
"417 101 OFFCURVE",
"412 194 CURVE",
"734 196 LINE",
"754 391 OFFCURVE",
"668 444 OFFCURVE",
"562 444 CURVE SMOOTH",
"484 444 OFFCURVE",
"425 407 OFFCURVE",
"386 359 CURVE",
"362 403 OFFCURVE",
"316 444 OFFCURVE",
"230 444 CURVE SMOOTH",
"147 444 OFFCURVE",
"85 416 OFFCURVE",
"85 416 CURVE"
);
},
{
closed = 1;
nodes = (
"333 185 LINE",
"335 151 OFFCURVE",
"344 121 OFFCURVE",
"357 95 CURVE",
"321 73 OFFCURVE",
"262 49 OFFCURVE",
"215 49 CURVE SMOOTH",
"164 49 OFFCURVE",
"119 71 OFFCURVE",
"119 119 CURVE SMOOTH",
"119 178 OFFCURVE",
"162 186 OFFCURVE",
"208 186 CURVE SMOOTH"
);
},
{
closed = 1;
nodes = (
"413 256 LINE",
"425 334 OFFCURVE",
"480 380 OFFCURVE",
"559 380 CURVE SMOOTH",
"634 380 OFFCURVE",
"665 337 OFFCURVE",
"667 257 CURVE"
);
}
);
width = 788;
},
{
background = {
paths = (
{
closed = 1;
nodes = (
"670 -15 OFFCURVE",
"738 50 OFFCURVE",
"738 51 CURVE",
"702 98 LINE",
"702 98 OFFCURVE",
"643 49 OFFCURVE",
"550 49 CURVE SMOOTH",
"464 49 OFFCURVE",
"417 101 OFFCURVE",
"412 194 CURVE",
"734 196 LINE",
"754 391 OFFCURVE",
"668 444 OFFCURVE",
"561 444 CURVE SMOOTH",
"484 444 OFFCURVE",
"425 407 OFFCURVE",
"386 359 CURVE",
"362 403 OFFCURVE",
"316 444 OFFCURVE",
"230 444 CURVE SMOOTH",
"147 444 OFFCURVE",
"85 416 OFFCURVE",
"85 416 CURVE",
"69 325 LINE",
"133 313 LINE",
"143 368 LINE",
"160 373 OFFCURVE",
"191 380 OFFCURVE",
"233 380 CURVE SMOOTH",
"343 380 OFFCURVE",
"334 306 OFFCURVE",
"334 256 CURVE SMOOTH",
"334 248 LINE",
"205 249 LINE SMOOTH",
"113 249 OFFCURVE",
"38 211 OFFCURVE",
"39 118 CURVE SMOOTH",
"40 42 OFFCURVE",
"103 -15 OFFCURVE",
"211 -15 CURVE SMOOTH",
"269 -15 OFFCURVE",
"355 25 OFFCURVE",
"389 48 CURVE",
"428 7 OFFCURVE",
"483 -15 OFFCURVE",
"549 -15 CURVE SMOOTH"
);
},
{
closed = 1;
nodes = (
"164 49 OFFCURVE",
"119 71 OFFCURVE",
"119 119 CURVE SMOOTH",
"119 178 OFFCURVE",
"162 186 OFFCURVE",
"207 186 CURVE SMOOTH",
"332 185 LINE",
"335 151 OFFCURVE",
"344 121 OFFCURVE",
"357 95 CURVE",
"321 73 OFFCURVE",
"262 49 OFFCURVE",
"215 49 CURVE SMOOTH"
);
},
{
closed = 1;
nodes = (
"634 380 OFFCURVE",
"665 337 OFFCURVE",
"666 257 CURVE",
"413 256 LINE",
"425 334 OFFCURVE",
"480 380 OFFCURVE",
"559 380 CURVE SMOOTH"
);
}
);
};
layerId = "6E1B38A8-44EA-440A-BD04-FE41D2B0BC62";
paths = (
{
closed = 1;
nodes = (
"43 317 LINE",
"150 297 LINE",
"153 313 OFFCURVE",
"156 333 OFFCURVE",
"158 345 CURVE",
"187 349 OFFCURVE",
"210 351 OFFCURVE",
"230 351 CURVE SMOOTH",
"321 351 OFFCURVE",
"330 314 OFFCURVE",
"330 275 CURVE",
"215 275 LINE SMOOTH",
"109 275 OFFCURVE",
"25 233 OFFCURVE",
"25 123 CURVE SMOOTH",
"25 33 OFFCURVE",
"99 -22 OFFCURVE",
"222 -22 CURVE SMOOTH",
"281 -22 OFFCURVE",
"355 4 OFFCURVE",
"394 32 CURVE",
"403 29 LINE",
"440 -6 OFFCURVE",
"493 -22 OFFCURVE",
"560 -22 CURVE SMOOTH",
"695 -22 OFFCURVE",
"759 50 OFFCURVE",
"761 54 CURVE",
"707 124 LINE",
"679 104 OFFCURVE",
"637 78 OFFCURVE",
"561 78 CURVE SMOOTH",
"499 78 OFFCURVE",
"461 113 OFFCURVE",
"450 175 CURVE",
"765 175 LINE",
"769 186 OFFCURVE",
"771 235 OFFCURVE",
"771 238 CURVE SMOOTH",
"771 388 OFFCURVE",
"693 463 OFFCURVE",
"560 463 CURVE SMOOTH",
"500 463 OFFCURVE",
"442 433 OFFCURVE",
"399 377 CURVE",
"375 427 OFFCURVE",
"329 463 OFFCURVE",
"225 463 CURVE SMOOTH",
"152 463 OFFCURVE",
"85 438 OFFCURVE",
"62 429 CURVE"
);
},
{
closed = 1;
nodes = (
"330 173 LINE",
"331 151 OFFCURVE",
"338 130 OFFCURVE",
"345 111 CURVE",
"325 99 OFFCURVE",
"268 79 OFFCURVE",
"226 79 CURVE SMOOTH",
"188 79 OFFCURVE",
"154 93 OFFCURVE",
"154 125 CURVE SMOOTH",
"154 162 OFFCURVE",
"185 173 OFFCURVE",
"218 173 CURVE SMOOTH"
);
},
{
closed = 1;
nodes = (
"453 277 LINE",
"466 331 OFFCURVE",
"506 360 OFFCURVE",
"561 360 CURVE SMOOTH",
"630 360 OFFCURVE",
"657 323 OFFCURVE",
"657 277 CURVE"
);
}
);
width = 798;
}
);
leftKerningGroup = a;
rightKerningGroup = e;
unicode = 00E6;
},
{
glyphname = b;
layers = (
{
layerId = UUID0;
paths = (
{
closed = 1;
nodes = (
"150 597 LINE",
"-1 649 LINE",
"-22 587 LINE",
"73 554 LINE",
"73 41 LINE",
"73 41 OFFCURVE",
"146 -15 OFFCURVE",
"262 -15 CURVE SMOOTH",
"391 -15 OFFCURVE",
"479 83 OFFCURVE",
"479 226 CURVE SMOOTH",
"479 368 OFFCURVE",
"390 444 OFFCURVE",
"266 444 CURVE SMOOTH",
"221 444 OFFCURVE",
"182 428 OFFCURVE",
"150 411 CURVE"
);
},
{
closed = 1;
nodes = (
"150 343 LINE",
"150 343 OFFCURVE",
"194 380 OFFCURVE",
"265 380 CURVE SMOOTH",
"355 380 OFFCURVE",
"399 326 OFFCURVE",
"399 226 CURVE SMOOTH",
"399 121 OFFCURVE",
"353 49 OFFCURVE",
"261 49 CURVE SMOOTH",
"189 49 OFFCURVE",
"150 74 OFFCURVE",
"150 74 CURVE"
);
}
);
width = 525;
},
{
background = {
paths = (
{
closed = 1;
nodes = (
"0 587 LINE",
"96 554 LINE",
"96 41 LINE",
"96 41 OFFCURVE",
"169 -15 OFFCURVE",
"285 -15 CURVE SMOOTH",
"414 -15 OFFCURVE",
"502 83 OFFCURVE",
"502 226 CURVE SMOOTH",
"502 368 OFFCURVE",
"413 444 OFFCURVE",
"289 444 CURVE SMOOTH",
"244 444 OFFCURVE",
"205 428 OFFCURVE",
"173 411 CURVE",
"173 597 LINE",
"21 649 LINE"
);
},
{
closed = 1;
nodes = (
"212 49 OFFCURVE",
"173 74 OFFCURVE",
"173 74 CURVE",
"173 343 LINE",
"173 343 OFFCURVE",
"217 380 OFFCURVE",
"288 380 CURVE SMOOTH",
"378 380 OFFCURVE",
"422 326 OFFCURVE",
"422 226 CURVE SMOOTH",
"422 121 OFFCURVE",
"375 49 OFFCURVE",
"284 49 CURVE SMOOTH"
);
}
);
};
layerId = "6E1B38A8-44EA-440A-BD04-FE41D2B0BC62";
paths = (
{
closed = 1;
nodes = (
"208 615 LINE",
"18 680 LINE",
"-19 572 LINE",
"82 537 LINE",
"82 46 LINE",
"90 39 OFFCURVE",
"161 -20 OFFCURVE",
"295 -20 CURVE SMOOTH",
"438 -20 OFFCURVE",
"537 71 OFFCURVE",
"537 229 CURVE SMOOTH",
"537 392 OFFCURVE",
"452 474 OFFCURVE",
"314 474 CURVE SMOOTH",
"280 474 OFFCURVE",
"237 463 OFFCURVE",
"208 445 CURVE"
);
},
{
closed = 1;
nodes = (
"208 335 LINE",
"229 353 OFFCURVE",
"274 371 OFFCURVE",
"313 371 CURVE SMOOTH",
"378 371 OFFCURVE",
"408 315 OFFCURVE",
"408 229 CURVE SMOOTH",
"408 141 OFFCURVE",
"370 81 OFFCURVE",
"294 81 CURVE SMOOTH",
"250 81 OFFCURVE",
"222 87 OFFCURVE",
"208 94 CURVE"
);
}
);
width = 564;
}
);
leftKerningGroup = b;
rightKerningGroup = o;
unicode = 0062;
},
{
glyphname = c;
layers = (
{
layerId = UUID0;
paths = (
{
closed = 1;
nodes = (
"358 298 LINE",
"422 312 LINE",
"401 420 LINE",
"401 420 OFFCURVE",
"357 444 OFFCURVE",
"264 444 CURVE SMOOTH",
"135 444 OFFCURVE",
"46 358 OFFCURVE",
"46 215 CURVE SMOOTH",
"46 72 OFFCURVE",
"135 -15 OFFCURVE",
"264 -15 CURVE SMOOTH",
"357 -15 OFFCURVE",
"433 42 OFFCURVE",
"433 43 CURVE",
"400 92 LINE",
"400 92 OFFCURVE",
"339 49 OFFCURVE",
"265 49 CURVE SMOOTH",
"173 49 OFFCURVE",
"126 110 OFFCURVE",
"126 215 CURVE SMOOTH",
"126 320 OFFCURVE",
"173 380 OFFCURVE",
"265 380 CURVE SMOOTH",
"312 380 OFFCURVE",
"337 371 OFFCURVE",
"345 367 CURVE"
);
}
);
width = 470;
},
{
background = {
paths = (
{
closed = 1;
nodes = (
"417 312 LINE",
"396 420 LINE",
"396 420 OFFCURVE",
"353 444 OFFCURVE",
"260 444 CURVE SMOOTH",
"131 444 OFFCURVE",
"42 358 OFFCURVE",
"42 215 CURVE SMOOTH",
"42 72 OFFCURVE",
"131 -15 OFFCURVE",
"260 -15 CURVE SMOOTH",
"353 -15 OFFCURVE",
"429 42 OFFCURVE",
"429 43 CURVE",
"396 92 LINE",
"396 92 OFFCURVE",
"334 49 OFFCURVE",
"261 49 CURVE SMOOTH",
"168 49 OFFCURVE",
"122 110 OFFCURVE",
"122 215 CURVE SMOOTH",
"122 320 OFFCURVE",
"168 380 OFFCURVE",
"261 380 CURVE SMOOTH",
"308 380 OFFCURVE",
"333 371 OFFCURVE",
"341 367 CURVE",
"354 298 LINE"
);
}
);
};
layerId = "6E1B38A8-44EA-440A-BD04-FE41D2B0BC62";
paths = (
{
closed = 1;
nodes = (
"350 286 LINE",
"457 309 LINE",
"429 446 LINE",
"404 459 OFFCURVE",
"333 474 OFFCURVE",
"270 474 CURVE SMOOTH",
"126 474 OFFCURVE",
"27 386 OFFCURVE",
"27 222 CURVE SMOOTH",
"27 64 OFFCURVE",
"126 -20 OFFCURVE",
"270 -20 CURVE SMOOTH",
"376 -20 OFFCURVE",
"463 57 OFFCURVE",
"463 58 CURVE",
"412 133 LINE",
"383 112 OFFCURVE",
"330 81 OFFCURVE",
"271 81 CURVE SMOOTH",
"195 81 OFFCURVE",
"156 133 OFFCURVE",
"156 222 CURVE SMOOTH",
"156 317 OFFCURVE",
"195 371 OFFCURVE",
"271 371 CURVE SMOOTH",
"299 371 OFFCURVE",
"327 365 OFFCURVE",
"335 363 CURVE"
);
}
);
width = 488;
}
);
leftKerningGroup = o;
rightKerningGroup = c;
unicode = 0063;
},
{
glyphname = ccedilla;
layers = (
{
layerId = UUID0;
paths = (
{
closed = 1;
nodes = (
"359 298 LINE",
"423 312 LINE",
"402 420 LINE",
"402 420 OFFCURVE",
"358 444 OFFCURVE",
"265 444 CURVE SMOOTH",
"136 444 OFFCURVE",
"47 358 OFFCURVE",
"47 215 CURVE SMOOTH",
"47 95 OFFCURVE",
"109 15 OFFCURVE",
"205 -8 CURVE",
"205 -97 LINE",
"242 -97 LINE SMOOTH",
"300 -97 OFFCURVE",
"308 -111 OFFCURVE",
"308 -131 CURVE SMOOTH",
"308 -153 OFFCURVE",
"291 -165 OFFCURVE",
"253 -165 CURVE SMOOTH",
"208 -165 OFFCURVE",
"170 -139 OFFCURVE",
"170 -139 CURVE",
"148 -176 LINE",
"149 -176 OFFCURVE",
"190 -213 OFFCURVE",
"255 -213 CURVE SMOOTH",
"312 -213 OFFCURVE",
"363 -189 OFFCURVE",
"363 -131 CURVE SMOOTH",
"363 -77 OFFCURVE",
"324 -53 OFFCURVE",
"255 -53 CURVE",
"255 -15 LINE",
"265 -15 LINE SMOOTH",
"358 -15 OFFCURVE",
"434 42 OFFCURVE",
"434 43 CURVE",
"401 92 LINE",
"401 92 OFFCURVE",
"340 49 OFFCURVE",
"266 49 CURVE SMOOTH",
"174 49 OFFCURVE",
"127 110 OFFCURVE",
"127 215 CURVE SMOOTH",
"127 320 OFFCURVE",
"174 380 OFFCURVE",
"266 380 CURVE SMOOTH",
"313 380 OFFCURVE",
"338 371 OFFCURVE",
"346 367 CURVE"
);
}
);
width = 471;
},
{
layerId = "6E1B38A8-44EA-440A-BD04-FE41D2B0BC62";
paths = (
{
closed = 1;
nodes = (
"350 286 LINE",
"457 309 LINE",
"429 446 LINE",
"404 459 OFFCURVE",
"333 474 OFFCURVE",
"270 474 CURVE SMOOTH",
"126 474 OFFCURVE",
"27 386 OFFCURVE",
"27 222 CURVE SMOOTH",
"27 84 OFFCURVE",
"102 3 OFFCURVE",
"216 -15 CURVE",
"216 -97 LINE",
"281 -97 LINE SMOOTH",
"319 -97 OFFCURVE",
"329 -114 OFFCURVE",
"329 -129 CURVE SMOOTH",
"329 -152 OFFCURVE",
"318 -169 OFFCURVE",
"291 -169 CURVE SMOOTH",
"250 -169 OFFCURVE",
"223 -157 OFFCURVE",
"196 -139 CURVE",
"159 -191 LINE",
"190 -213 OFFCURVE",
"234 -239 OFFCURVE",
"292 -239 CURVE SMOOTH",
"364 -239 OFFCURVE",
"427 -208 OFFCURVE",
"427 -135 CURVE SMOOTH",
"427 -70 OFFCURVE",
"384 -44 OFFCURVE",
"293 -47 CURVE",
"293 -18 LINE",
"388 -8 OFFCURVE",
"463 57 OFFCURVE",
"463 58 CURVE",
"412 133 LINE",
"383 112 OFFCURVE",
"330 81 OFFCURVE",
"271 81 CURVE SMOOTH",
"195 81 OFFCURVE",
"156 133 OFFCURVE",
"156 222 CURVE SMOOTH",
"156 317 OFFCURVE",
"195 371 OFFCURVE",
"271 371 CURVE SMOOTH",
"299 371 OFFCURVE",
"327 365 OFFCURVE",
"335 363 CURVE"
);
}
);
width = 488;
}
);
leftKerningGroup = o;
rightKerningGroup = c;
unicode = 00E7;
},
{
glyphname = d;
layers = (
{
layerId = UUID0;
paths = (
{
closed = 1;
nodes = (
"526 -17 LINE",
"546 47 LINE",
"452 79 LINE",
"452 597 LINE",
"300 649 LINE",
"279 587 LINE",
"374 554 LINE",
"374 423 LINE",
"343 435 OFFCURVE",
"307 444 OFFCURVE",
"263 444 CURVE SMOOTH",
"141 444 OFFCURVE",
"45 353 OFFCURVE",
"45 224 CURVE SMOOTH",
"45 81 OFFCURVE",
"134 -15 OFFCURVE",
"263 -15 CURVE SMOOTH",
"316 -15 OFFCURVE",
"360 6 OFFCURVE",
"393 29 CURVE"
);
},
{
closed = 1;
nodes = (
"374 86 LINE",
"353 72 OFFCURVE",
"314 49 OFFCURVE",
"264 49 CURVE SMOOTH",
"172 49 OFFCURVE",
"125 120 OFFCURVE",
"125 225 CURVE SMOOTH",
"125 314 OFFCURVE",
"179 380 OFFCURVE",
"264 380 CURVE SMOOTH",
"335 380 OFFCURVE",
"374 355 OFFCURVE",
"374 355 CURVE"
);
}
);
width = 563;
},
{
background = {
paths = (
{
closed = 1;
nodes = (
"449 79 LINE",
"449 597 LINE",
"297 649 LINE",
"276 587 LINE",
"371 554 LINE",
"371 423 LINE",
"340 435 OFFCURVE",
"304 444 OFFCURVE",
"260 444 CURVE SMOOTH",
"138 444 OFFCURVE",
"42 353 OFFCURVE",
"42 224 CURVE SMOOTH",
"42 81 OFFCURVE",
"131 -15 OFFCURVE",
"260 -15 CURVE SMOOTH",
"313 -15 OFFCURVE",
"357 6 OFFCURVE",
"390 29 CURVE",
"522 -17 LINE",
"542 47 LINE"
);
},
{
closed = 1;
nodes = (
"332 380 OFFCURVE",
"371 355 OFFCURVE",
"371 355 CURVE",
"371 86 LINE",
"350 72 OFFCURVE",
"311 49 OFFCURVE",
"261 49 CURVE SMOOTH",
"168 49 OFFCURVE",
"122 120 OFFCURVE",
"122 225 CURVE SMOOTH",
"122 314 OFFCURVE",
"176 380 OFFCURVE",
"261 380 CURVE SMOOTH"
);
}
);
};
layerId = "6E1B38A8-44EA-440A-BD04-FE41D2B0BC62";
paths = (
{
closed = 1;
nodes = (
"530 -26 LINE",
"565 83 LINE",
"483 111 LINE",
"483 615 LINE",
"292 680 LINE",
"256 572 LINE",
"356 537 LINE",
"356 459 LINE",
"331 467 OFFCURVE",
"302 474 OFFCURVE",
"270 474 CURVE SMOOTH",
"134 474 OFFCURVE",
"27 377 OFFCURVE",
"27 229 CURVE SMOOTH",
"27 71 OFFCURVE",
"126 -20 OFFCURVE",
"270 -20 CURVE SMOOTH",
"324 -20 OFFCURVE",
"370 -6 OFFCURVE",
"404 17 CURVE"
);
},
{
closed = 1;
nodes = (
"356 104 LINE",
"337 92 OFFCURVE",
"307 81 OFFCURVE",
"271 81 CURVE SMOOTH",
"195 81 OFFCURVE",
"156 142 OFFCURVE",
"156 229 CURVE SMOOTH",
"156 308 OFFCURVE",
"201 371 OFFCURVE",
"271 371 CURVE SMOOTH",
"305 371 OFFCURVE",
"338 362 OFFCURVE",
"356 353 CURVE"
);
}
);
width = 570;
}
);
leftKerningGroup = o;
unicode = 0064;
},
{
glyphname = eth;
layers = (
{
background = {
paths = (
{
closed = 1;
nodes = (
"211 480 LINE",
"257 530 LINE",
"300 504 OFFCURVE",
"335 470 OFFCURVE",
"363 423 CURVE",
"327 438 OFFCURVE",
"287 442 OFFCURVE",
"264 442 CURVE SMOOTH",
"135 442 OFFCURVE",
"46 356 OFFCURVE",
"46 213 CURVE SMOOTH",
"46 59 OFFCURVE",
"150 -16 OFFCURVE",
"264 -16 CURVE SMOOTH",
"386 -16 OFFCURVE",
"484 86 OFFCURVE",
"484 262 CURVE",
"480 391 OFFCURVE",
"416 504 OFFCURVE",
"307 574 CURVE",
"304 575 OFFCURVE",
"302 577 OFFCURVE",
"300 578 CURVE",
"335 617 LINE",
"294 657 LINE",
"248 606 LINE",
"213 623 OFFCURVE",
"172 636 OFFCURVE",
"117 652 CURVE",
"104 597 LINE",
"140 585 OFFCURVE",
"174 572 OFFCURVE",
"204 558 CURVE",
"170 520 LINE"
);
},
{
closed = 1;
nodes = (
"312 378 OFFCURVE",
"361 365 OFFCURVE",
"389 345 CURVE",
"397 307 OFFCURVE",
"405 263 OFFCURVE",
"405 216 CURVE SMOOTH",
"405 103 OFFCURVE",
"355 48 OFFCURVE",
"265 48 CURVE SMOOTH",
"173 48 OFFCURVE",
"126 108 OFFCURVE",
"126 213 CURVE SMOOTH",
"126 318 OFFCURVE",
"173 378 OFFCURVE",
"265 378 CURVE SMOOTH"
);
}
);
};
layerId = UUID0;
paths = (
{
closed = 1;
nodes = (
"335 617 LINE",
"294 657 LINE",
"248 606 LINE",
"213 623 OFFCURVE",
"172 636 OFFCURVE",
"117 652 CURVE",
"104 597 LINE",
"140 585 OFFCURVE",
"174 572 OFFCURVE",
"204 558 CURVE",
"170 520 LINE",
"211 480 LINE",
"257 530 LINE",
"300 504 OFFCURVE",
"335 470 OFFCURVE",
"363 423 CURVE",
"327 438 OFFCURVE",
"287 442 OFFCURVE",
"264 442 CURVE SMOOTH",
"135 442 OFFCURVE",
"46 356 OFFCURVE",
"46 213 CURVE SMOOTH",
"46 59 OFFCURVE",
"150 -16 OFFCURVE",
"264 -16 CURVE SMOOTH",
"386 -16 OFFCURVE",
"484 72 OFFCURVE",
"484 262 CURVE",
"480 391 OFFCURVE",
"416 504 OFFCURVE",
"307 574 CURVE",
"304 575 OFFCURVE",
"302 577 OFFCURVE",
"300 578 CURVE"
);
},
{
closed = 1;
nodes = (
"312 378 OFFCURVE",
"361 365 OFFCURVE",
"389 345 CURVE",
"398 313 OFFCURVE",
"405 285 OFFCURVE",
"405 245 CURVE SMOOTH",
"405 120 OFFCURVE",
"355 48 OFFCURVE",
"265 48 CURVE SMOOTH",
"173 48 OFFCURVE",
"126 108 OFFCURVE",
"126 213 CURVE SMOOTH",
"126 318 OFFCURVE",
"173 378 OFFCURVE",
"265 378 CURVE SMOOTH"
);
}
);
width = 542;
},
{
background = {
paths = (
{
closed = 1;
nodes = (
"211 480 LINE",
"257 530 LINE",
"300 504 OFFCURVE",
"335 470 OFFCURVE",
"363 423 CURVE",
"327 438 OFFCURVE",
"287 442 OFFCURVE",
"264 442 CURVE SMOOTH",
"135 442 OFFCURVE",
"46 356 OFFCURVE",
"46 213 CURVE SMOOTH",
"46 59 OFFCURVE",
"150 -16 OFFCURVE",
"264 -16 CURVE SMOOTH",
"386 -16 OFFCURVE",
"484 72 OFFCURVE",
"484 262 CURVE",
"480 391 OFFCURVE",
"416 504 OFFCURVE",
"307 574 CURVE",
"304 575 OFFCURVE",
"302 577 OFFCURVE",
"300 578 CURVE",
"335 617 LINE",
"294 657 LINE",
"248 606 LINE",
"213 623 OFFCURVE",
"172 636 OFFCURVE",
"117 652 CURVE",
"104 597 LINE",
"140 585 OFFCURVE",
"174 572 OFFCURVE",
"204 558 CURVE",
"170 520 LINE"
);
},
{
closed = 1;
nodes = (
"312 378 OFFCURVE",
"361 365 OFFCURVE",
"389 345 CURVE",
"398 313 OFFCURVE",
"405 285 OFFCURVE",
"405 245 CURVE SMOOTH",
"405 120 OFFCURVE",
"355 48 OFFCURVE",
"265 48 CURVE SMOOTH",
"173 48 OFFCURVE",
"126 108 OFFCURVE",
"126 213 CURVE SMOOTH",
"126 318 OFFCURVE",
"173 378 OFFCURVE",
"265 378 CURVE SMOOTH"
);
}
);
};
layerId = "6E1B38A8-44EA-440A-BD04-FE41D2B0BC62";
paths = (
{
closed = 1;
nodes = (
"343 623 LINE",
"278 684 LINE",
"231 632 LINE",
"198 647 OFFCURVE",
"161 658 OFFCURVE",
"112 672 CURVE",
"89 596 LINE",
"118 585 OFFCURVE",
"147 573 OFFCURVE",
"168 563 CURVE",
"140 531 LINE",
"206 472 LINE",
"248 518 LINE",
"289 491 OFFCURVE",
"328 454 OFFCURVE",
"357 406 CURVE",
"339 418 OFFCURVE",
"302 429 OFFCURVE",
"242 429 CURVE SMOOTH",
"143 429 OFFCURVE",
"21 353 OFFCURVE",
"21 222 CURVE SMOOTH",
"21 42 OFFCURVE",
"137 -22 OFFCURVE",
"264 -22 CURVE SMOOTH",
"400 -22 OFFCURVE",
"508 55 OFFCURVE",
"508 263 CURVE SMOOTH",
"508 401 OFFCURVE",
"434 518 OFFCURVE",
"313 589 CURVE"
);
},
{
closed = 1;
nodes = (
"311 342 OFFCURVE",
"350 333 OFFCURVE",
"375 318 CURVE",
"380 296 OFFCURVE",
"382 273 OFFCURVE",
"382 250 CURVE SMOOTH",
"382 161 OFFCURVE",
"346 81 OFFCURVE",
"265 81 CURVE SMOOTH",
"189 81 OFFCURVE",
"150 124 OFFCURVE",
"150 213 CURVE SMOOTH",
"150 295 OFFCURVE",
"194 342 OFFCURVE",
"272 342 CURVE SMOOTH"
);
}
);
width = 542;
}
);
leftKerningGroup = o;
unicode = 00F0;
},
{
glyphname = e;
layers = (
{
layerId = UUID0;
paths = (
{
closed = 1;
nodes = (
"417 98 LINE",
"417 98 OFFCURVE",
"358 49 OFFCURVE",
"265 49 CURVE SMOOTH",
"179 49 OFFCURVE",
"132 102 OFFCURVE",
"127 195 CURVE",
"449 197 LINE",
"469 392 OFFCURVE",
"371 444 OFFCURVE",
"264 444 CURVE SMOOTH",
"135 444 OFFCURVE",
"46 358 OFFCURVE",
"46 215 CURVE SMOOTH",
"46 72 OFFCURVE",
"135 -15 OFFCURVE",
"264 -15 CURVE SMOOTH",
"385 -15 OFFCURVE",
"453 50 OFFCURVE",
"453 51 CURVE"
);
},
{
closed = 1;
nodes = (
"128 257 LINE",
"140 335 OFFCURVE",
"186 380 OFFCURVE",
"265 380 CURVE SMOOTH",
"340 380 OFFCURVE",
"380 338 OFFCURVE",
"381 258 CURVE"
);
}
);
width = 502;
},
{
background = {
paths = (
{
closed = 1;
nodes = (
"381 -15 OFFCURVE",
"449 50 OFFCURVE",
"449 51 CURVE",
"413 98 LINE",
"413 98 OFFCURVE",
"354 49 OFFCURVE",
"261 49 CURVE SMOOTH",
"175 49 OFFCURVE",
"128 102 OFFCURVE",
"123 195 CURVE",
"445 197 LINE",
"465 392 OFFCURVE",
"367 444 OFFCURVE",
"260 444 CURVE SMOOTH",
"131 444 OFFCURVE",
"42 358 OFFCURVE",
"42 215 CURVE SMOOTH",
"42 72 OFFCURVE",
"131 -15 OFFCURVE",
"260 -15 CURVE SMOOTH"
);
},
{
closed = 1;
nodes = (
"336 380 OFFCURVE",
"375 338 OFFCURVE",
"376 258 CURVE",
"124 257 LINE",
"136 335 OFFCURVE",
"182 380 OFFCURVE",
"261 380 CURVE SMOOTH"
);
}
);
};
layerId = "6E1B38A8-44EA-440A-BD04-FE41D2B0BC62";
paths = (
{
closed = 1;
nodes = (
"433 114 LINE",
"390 98 OFFCURVE",
"333 85 OFFCURVE",
"271 85 CURVE SMOOTH",
"200 85 OFFCURVE",
"165 117 OFFCURVE",
"160 181 CURVE",
"476 181 LINE",
"480 203 OFFCURVE",
"482 218 OFFCURVE",
"482 243 CURVE SMOOTH",
"482 397 OFFCURVE",
"403 474 OFFCURVE",
"270 474 CURVE SMOOTH",
"126 474 OFFCURVE",
"27 386 OFFCURVE",
"27 225 CURVE SMOOTH",
"27 63 OFFCURVE",
"126 -20 OFFCURVE",
"270 -20 CURVE SMOOTH",
"359 -20 OFFCURVE",
"426 6 OFFCURVE",
"474 34 CURVE"
);
},
{
closed = 1;
nodes = (
"163 275 LINE",
"177 334 OFFCURVE",
"196 368 OFFCURVE",
"271 368 CURVE SMOOTH",
"341 368 OFFCURVE",
"363 329 OFFCURVE",
"363 275 CURVE"
);
}
);
width = 508;
}
);
leftKerningGroup = o;
rightKerningGroup = e;
unicode = 0065;
},
{
glyphname = eacute;
layers = (
{
background = {
paths = (
{
closed = 1;
nodes = (
"135 -15 OFFCURVE",
"46 71 OFFCURVE",
"46 214 CURVE SMOOTH",
"46 357 OFFCURVE",
"135 444 OFFCURVE",
"264 444 CURVE SMOOTH",
"371 444 OFFCURVE",
"469 391 OFFCURVE",
"449 196 CURVE",
"127 194 LINE",
"132 101 OFFCURVE",
"179 49 OFFCURVE",
"265 49 CURVE SMOOTH",
"358 49 OFFCURVE",
"417 98 OFFCURVE",
"417 98 CURVE",
"453 51 LINE",
"453 50 OFFCURVE",
"385 -15 OFFCURVE",
"264 -15 CURVE SMOOTH"
);
},
{
closed = 1;
nodes = (
"186 380 OFFCURVE",
"140 334 OFFCURVE",
"128 256 CURVE",
"381 257 LINE",
"380 337 OFFCURVE",
"340 380 OFFCURVE",
"265 380 CURVE SMOOTH"
);
},
{
closed = 1;
nodes = (
"187 512 LINE",
"205 480 LINE",
"438 586 LINE",
"403 652 LINE"
);
}
);
};
components = (
{
name = acute;
transform = "{1, 0, 0, 1, 154, 19}";
},
{
name = e;
}
);
layerId = UUID0;
width = 502;
},
{
components = (
{
name = e;
},
{
name = acute;
transform = "{1, 0, 0, 1, 89, 0}";
}
);
layerId = "6E1B38A8-44EA-440A-BD04-FE41D2B0BC62";
width = 508;
}
);
leftKerningGroup = o;
rightKerningGroup = e;
unicode = 00E9;
},
{
glyphname = egrave;
layers = (
{
background = {
paths = (
{
closed = 1;
nodes = (
"333 512 LINE",
"315 480 LINE",
"82 586 LINE",
"117 652 LINE"
);
}
);
};
components = (
{
name = e;
},
{
name = grave;
transform = "{1, 0, 0, 1, 40, 0}";
}
);
layerId = UUID0;
width = 502;
},
{
components = (
{
name = e;
},
{
name = grave;
transform = "{1, 0, 0, 1, 51, 0}";
}
);
layerId = "6E1B38A8-44EA-440A-BD04-FE41D2B0BC62";
width = 508;
}
);
leftKerningGroup = o;
rightKerningGroup = e;
unicode = 00E8;
},
{
glyphname = f;
layers = (
{
layerId = UUID0;
paths = (
{
closed = 1;
nodes = (
"131 429 LINE",
"47 429 LINE",
"47 367 LINE",
"131 367 LINE",
"131 62 LINE",
"47 62 LINE",
"47 0 LINE",
"299 0 LINE",
"299 62 LINE",
"209 62 LINE",
"209 367 LINE",
"333 367 LINE",
"333 429 LINE",
"209 429 LINE",
"209 473 LINE SMOOTH",
"209 554 OFFCURVE",
"229 594 OFFCURVE",
"315 594 CURVE SMOOTH",
"377 594 OFFCURVE",
"414 571 OFFCURVE",
"414 571 CURVE",
"444 622 LINE",
"444 622 OFFCURVE",
"397 658 OFFCURVE",
"310 658 CURVE SMOOTH",
"182 658 OFFCURVE",
"131 601 OFFCURVE",
"131 489 CURVE SMOOTH"
);
}
);
width = 366;
},
{
background = {
paths = (
{
closed = 1;
nodes = (
"21 0 LINE",
"273 0 LINE",
"273 62 LINE",
"183 62 LINE",
"183 367 LINE",
"307 367 LINE",
"307 429 LINE",
"183 429 LINE",
"183 457 LINE SMOOTH",
"183 538 OFFCURVE",
"203 578 OFFCURVE",
"289 578 CURVE SMOOTH",
"351 578 OFFCURVE",
"388 555 OFFCURVE",
"388 555 CURVE",
"418 606 LINE",
"418 606 OFFCURVE",
"371 642 OFFCURVE",
"284 642 CURVE SMOOTH",
"156 642 OFFCURVE",
"105 585 OFFCURVE",
"105 473 CURVE SMOOTH",
"105 429 LINE",
"21 429 LINE",
"21 367 LINE",
"105 367 LINE",
"105 62 LINE",
"21 62 LINE"
);
}
);
};
layerId = "6E1B38A8-44EA-440A-BD04-FE41D2B0BC62";
paths = (
{
closed = 1;
nodes = (
"91 454 LINE",
"7 454 LINE",
"7 353 LINE",
"91 353 LINE",
"91 101 LINE",
"7 101 LINE",
"7 0 LINE",
"308 0 LINE",
"308 101 LINE",
"218 101 LINE",
"218 353 LINE",
"342 353 LINE",
"342 454 LINE",
"218 454 LINE",
"218 538 OFFCURVE",
"236 579 OFFCURVE",
"302 579 CURVE SMOOTH",
"338 579 OFFCURVE",
"362 566 OFFCURVE",
"387 553 CURVE",
"436 633 LINE",
"412 652 OFFCURVE",
"358 683 OFFCURVE",
"285 683 CURVE SMOOTH",
"139 683 OFFCURVE",
"91 618 OFFCURVE",
"91 490 CURVE SMOOTH"
);
}
);
width = 363;
}
);
leftKerningGroup = f;
unicode = 0066;
},
{
glyphname = g;
layers = (
{
background = {
paths = (
{
closed = 1;
nodes = (
"536 403 LINE",
"513 469 LINE",
"371 416 LINE",
"338 435 OFFCURVE",
"299 444 OFFCURVE",
"249 444 CURVE SMOOTH",
"130 444 OFFCURVE",
"52 381 OFFCURVE",
"52 278 CURVE SMOOTH",
"52 211 OFFCURVE",
"88 166 OFFCURVE",
"125 146 CURVE",
"125 -35 LINE",
"288 -35 LINE SMOOTH",
"371 -35 OFFCURVE",
"396 -61 OFFCURVE",
"396 -100 CURVE SMOOTH",
"396 -149 OFFCURVE",
"343 -169 OFFCURVE",
"256 -169 CURVE SMOOTH",
"154 -169 OFFCURVE",
"70 -125 OFFCURVE",
"70 -125 CURVE",
"42 -182 LINE",
"43 -182 OFFCURVE",
"136 -232 OFFCURVE",
"256 -232 CURVE SMOOTH",
"367 -232 OFFCURVE",
"469 -195 OFFCURVE",
"469 -93 CURVE SMOOTH",
"469 -13 OFFCURVE",
"416 27 OFFCURVE",
"309 27 CURVE SMOOTH",
"197 27 LINE",
"197 121 LINE",
"197 121 OFFCURVE",
"219 118 OFFCURVE",
"248 118 CURVE SMOOTH",
"352 118 OFFCURVE",
"448 167 OFFCURVE",
"448 283 CURVE SMOOTH",
"448 320 OFFCURVE",
"437 352 OFFCURVE",
"418 376 CURVE"
);
}
);
};
layerId = UUID0;
paths = (
{
closed = 1;
nodes = (
"536 403 LINE",
"513 469 LINE",
"371 416 LINE",
"338 435 OFFCURVE",
"299 444 OFFCURVE",
"249 444 CURVE SMOOTH",
"130 444 OFFCURVE",
"52 381 OFFCURVE",
"52 278 CURVE SMOOTH",
"52 211 OFFCURVE",
"88 166 OFFCURVE",
"125 146 CURVE",
"125 -35 LINE",
"288 -35 LINE SMOOTH",
"371 -35 OFFCURVE",
"396 -59 OFFCURVE",
"396 -96 CURVE SMOOTH",
"396 -141 OFFCURVE",
"343 -160 OFFCURVE",
"256 -160 CURVE SMOOTH",
"154 -160 OFFCURVE",
"70 -116 OFFCURVE",
"70 -116 CURVE",
"42 -175 LINE",
"47 -178 OFFCURVE",
"136 -223 OFFCURVE",
"256 -223 CURVE SMOOTH",
"367 -223 OFFCURVE",
"469 -187 OFFCURVE",
"469 -89 CURVE SMOOTH",
"469 -12 OFFCURVE",
"416 27 OFFCURVE",
"309 27 CURVE SMOOTH",
"197 27 LINE",
"197 121 LINE",
"197 121 OFFCURVE",
"219 118 OFFCURVE",
"248 118 CURVE SMOOTH",
"352 118 OFFCURVE",
"448 167 OFFCURVE",
"448 283 CURVE SMOOTH",
"448 320 OFFCURVE",
"437 352 OFFCURVE",
"418 376 CURVE"
);
},
{
closed = 1;
nodes = (
"325 388 OFFCURVE",
"372 353 OFFCURVE",
"372 281 CURVE SMOOTH",
"372 209 OFFCURVE",
"314 174 OFFCURVE",
"250 174 CURVE SMOOTH",
"186 174 OFFCURVE",
"128 209 OFFCURVE",
"128 281 CURVE SMOOTH",
"128 353 OFFCURVE",
"175 388 OFFCURVE",
"250 388 CURVE SMOOTH"
);
}
);
width = 537;
},
{
background = {
paths = (
{
closed = 1;
nodes = (
"527 403 LINE",
"503 469 LINE",
"362 416 LINE",
"329 435 OFFCURVE",
"290 444 OFFCURVE",
"240 444 CURVE SMOOTH",
"121 444 OFFCURVE",
"42 381 OFFCURVE",
"42 278 CURVE SMOOTH",
"42 211 OFFCURVE",
"79 166 OFFCURVE",
"116 146 CURVE",
"116 -35 LINE",
"279 -35 LINE SMOOTH",
"362 -35 OFFCURVE",
"387 -59 OFFCURVE",
"387 -96 CURVE SMOOTH",
"387 -141 OFFCURVE",
"333 -160 OFFCURVE",
"247 -160 CURVE SMOOTH",
"145 -160 OFFCURVE",
"61 -116 OFFCURVE",
"61 -116 CURVE",
"33 -175 LINE",
"38 -178 OFFCURVE",
"126 -223 OFFCURVE",
"247 -223 CURVE SMOOTH",
"357 -223 OFFCURVE",
"459 -187 OFFCURVE",
"459 -89 CURVE SMOOTH",
"459 -12 OFFCURVE",
"407 27 OFFCURVE",
"300 27 CURVE SMOOTH",
"188 27 LINE",
"188 121 LINE",
"188 121 OFFCURVE",
"209 118 OFFCURVE",
"239 118 CURVE SMOOTH",
"343 118 OFFCURVE",
"438 167 OFFCURVE",
"438 283 CURVE SMOOTH",
"438 320 OFFCURVE",
"428 352 OFFCURVE",
"409 376 CURVE"
);
},
{
closed = 1;
nodes = (
"119 353 OFFCURVE",
"166 388 OFFCURVE",
"241 388 CURVE SMOOTH",
"315 388 OFFCURVE",
"363 353 OFFCURVE",
"363 281 CURVE SMOOTH",
"363 209 OFFCURVE",
"305 174 OFFCURVE",
"241 174 CURVE SMOOTH",
"177 174 OFFCURVE",
"119 209 OFFCURVE",
"119 281 CURVE SMOOTH"
);
}
);
};
layerId = "6E1B38A8-44EA-440A-BD04-FE41D2B0BC62";
paths = (
{
closed = 1;
nodes = (
"212 60 LINE",
"212 114 LINE",
"249 114 LINE SMOOTH",
"366 112 OFFCURVE",
"473 159 OFFCURVE",
"473 289 CURVE SMOOTH",
"473 313 OFFCURVE",
"466 349 OFFCURVE",
"454 373 CURVE",
"567 389 LINE",
"528 501 LINE",
"374 448 LINE",
"337 468 OFFCURVE",
"301 474 OFFCURVE",
"250 474 CURVE SMOOTH",
"116 474 OFFCURVE",
"28 401 OFFCURVE",
"28 283 CURVE SMOOTH",
"28 210 OFFCURVE",
"75 172 OFFCURVE",
"116 147 CURVE",
"116 -46 LINE",
"299 -46 LINE SMOOTH",
"363 -46 OFFCURVE",
"372 -66 OFFCURVE",
"372 -88 CURVE SMOOTH",
"372 -111 OFFCURVE",
"349 -139 OFFCURVE",
"257 -139 CURVE SMOOTH",
"187 -139 OFFCURVE",
"135 -123 OFFCURVE",
"67 -95 CURVE",
"22 -195 LINE",
"57 -214 OFFCURVE",
"131 -248 OFFCURVE",
"257 -248 CURVE SMOOTH",
"380 -248 OFFCURVE",
"494 -205 OFFCURVE",
"494 -89 CURVE SMOOTH",
"494 4 OFFCURVE",
"433 60 OFFCURVE",
"310 60 CURVE SMOOTH"
);
},
{
closed = 1;
nodes = (
"318 380 OFFCURVE",
"356 347 OFFCURVE",
"356 287 CURVE SMOOTH",
"356 229 OFFCURVE",
"309 206 OFFCURVE",
"251 206 CURVE SMOOTH",
"199 206 OFFCURVE",
"146 229 OFFCURVE",
"146 287 CURVE SMOOTH",
"146 347 OFFCURVE",
"184 380 OFFCURVE",
"251 380 CURVE SMOOTH"
);
}
);
width = 572;
}
);
unicode = 0067;
},
{
glyphname = h;
layers = (
{
layerId = UUID0;
paths = (
{
closed = 1;
nodes = (
"187 598 LINE",
"35 650 LINE",
"14 588 LINE",
"109 555 LINE",
"109 62 LINE",
"25 62 LINE",
"25 0 LINE",
"232 0 LINE",
"232 62 LINE",
"187 62 LINE",
"187 346 LINE",
"187 346 OFFCURVE",
"241 380 OFFCURVE",
"313 380 CURVE SMOOTH",
"399 380 OFFCURVE",
"419 330 OFFCURVE",
"419 259 CURVE SMOOTH",
"419 62 LINE",
"374 62 LINE",
"374 0 LINE",
"581 0 LINE",
"581 62 LINE",
"497 62 LINE",
"497 275 LINE SMOOTH",
"497 387 OFFCURVE",
"446 444 OFFCURVE",
"318 444 CURVE SMOOTH",
"262 444 OFFCURVE",
"215 420 OFFCURVE",
"187 402 CURVE"
);
}
);
width = 602;
},
{
background = {
paths = (
{
closed = 1;
nodes = (
"22 588 LINE",
"117 555 LINE",
"117 62 LINE",
"33 62 LINE",
"33 0 LINE",
"240 0 LINE",
"240 62 LINE",
"195 62 LINE",
"195 346 LINE",
"195 346 OFFCURVE",
"249 380 OFFCURVE",
"321 380 CURVE SMOOTH",
"407 380 OFFCURVE",
"427 330 OFFCURVE",
"427 259 CURVE SMOOTH",
"427 62 LINE",
"382 62 LINE",
"382 0 LINE",
"589 0 LINE",
"589 62 LINE",
"505 62 LINE",
"505 275 LINE SMOOTH",
"505 387 OFFCURVE",
"454 444 OFFCURVE",
"326 444 CURVE SMOOTH",
"270 444 OFFCURVE",
"223 420 OFFCURVE",
"195 402 CURVE",
"195 598 LINE",
"43 650 LINE"
);
}
);
};
layerId = "6E1B38A8-44EA-440A-BD04-FE41D2B0BC62";
paths = (
{
closed = 1;
nodes = (
"229 615 LINE",
"40 679 LINE",
"7 577 LINE",
"102 545 LINE",
"102 101 LINE",
"19 101 LINE",
"19 0 LINE",
"270 0 LINE",
"270 101 LINE",
"230 101 LINE",
"230 343 LINE",
"230 343 OFFCURVE",
"285 367 OFFCURVE",
"332 367 CURVE SMOOTH",
"397 367 OFFCURVE",
"413 326 OFFCURVE",
"413 270 CURVE SMOOTH",
"413 101 LINE",
"373 101 LINE",
"373 0 LINE",
"624 0 LINE",
"624 101 LINE",
"540 101 LINE",
"540 286 LINE SMOOTH",
"540 407 OFFCURVE",
"480 474 OFFCURVE",
"378 474 CURVE SMOOTH",
"326 474 OFFCURVE",
"271 462 OFFCURVE",
"229 438 CURVE"
);
}
);
width = 634;
}
);
leftKerningGroup = h;
rightKerningGroup = n;
unicode = 0068;
},
{
glyphname = i;
layers = (
{
background = {
paths = (
{
closed = 1;
nodes = (
"46 367 LINE",
"129 367 LINE",
"129 62 LINE",
"46 62 LINE",
"46 0 LINE",
"291 0 LINE",
"291 62 LINE",
"208 62 LINE",
"208 429 LINE",
"46 429 LINE"
);
},
{
closed = 1;
nodes = (
"223 621 OFFCURVE",
"194 650 OFFCURVE",
"161 650 CURVE SMOOTH",
"127 650 OFFCURVE",
"100 621 OFFCURVE",
"100 588 CURVE SMOOTH",
"100 554 OFFCURVE",
"127 526 OFFCURVE",
"161 526 CURVE SMOOTH",
"194 526 OFFCURVE",
"223 554 OFFCURVE",
"223 588 CURVE SMOOTH"
);
}
);
};
layerId = UUID0;
paths = (
{
closed = 1;
nodes = (
"46 367 LINE",
"129 367 LINE",
"129 62 LINE",
"46 62 LINE",
"46 0 LINE",
"291 0 LINE",
"291 62 LINE",
"208 62 LINE",
"208 429 LINE",
"46 429 LINE"
);
},
{
closed = 1;
nodes = (
"127 642 OFFCURVE",
"100 613 OFFCURVE",
"100 580 CURVE SMOOTH",
"100 546 OFFCURVE",
"127 518 OFFCURVE",
"161 518 CURVE SMOOTH",
"194 518 OFFCURVE",
"223 546 OFFCURVE",
"223 580 CURVE SMOOTH",
"223 613 OFFCURVE",
"194 642 OFFCURVE",
"161 642 CURVE SMOOTH"
);
}
);
width = 316;
},
{
background = {
paths = (
{
closed = 1;
nodes = (
"26 367 LINE",
"109 367 LINE",
"109 62 LINE",
"26 62 LINE",
"26 0 LINE",
"271 0 LINE",
"271 62 LINE",
"188 62 LINE",
"188 429 LINE",
"26 429 LINE"
);
},
{
closed = 1;
nodes = (
"203 613 OFFCURVE",
"174 642 OFFCURVE",
"141 642 CURVE SMOOTH",
"107 642 OFFCURVE",
"80 613 OFFCURVE",
"80 580 CURVE SMOOTH",
"80 546 OFFCURVE",
"107 518 OFFCURVE",
"141 518 CURVE SMOOTH",
"174 518 OFFCURVE",
"203 546 OFFCURVE",
"203 580 CURVE SMOOTH"
);
}
);
};
layerId = "6E1B38A8-44EA-440A-BD04-FE41D2B0BC62";
paths = (
{
closed = 1;
nodes = (
"12 353 LINE",
"95 353 LINE",
"95 101 LINE",
"12 101 LINE",
"12 0 LINE",
"305 0 LINE",
"305 101 LINE",
"222 101 LINE",
"222 454 LINE",
"12 454 LINE"
);
},
{
closed = 1;
nodes = (
"104 667 OFFCURVE",
"65 625 OFFCURVE",
"65 580 CURVE SMOOTH",
"65 532 OFFCURVE",
"104 494 OFFCURVE",
"151 494 CURVE SMOOTH",
"198 494 OFFCURVE",
"238 532 OFFCURVE",
"238 580 CURVE SMOOTH",
"238 625 OFFCURVE",
"198 667 OFFCURVE",
"151 667 CURVE SMOOTH"
);
}
);
width = 313;
}
);
leftKerningGroup = i;
rightKerningGroup = i;
unicode = 0069;
},
{
glyphname = dotlessi;
layers = (
{
layerId = UUID0;
paths = (
{
closed = 1;
nodes = (
"46 367 LINE",
"129 367 LINE",
"129 62 LINE",
"46 62 LINE",
"46 0 LINE",
"291 0 LINE",
"291 62 LINE",
"208 62 LINE",
"208 429 LINE",
"46 429 LINE"
);
}
);
width = 316;
},
{
background = {
paths = (
{
closed = 1;
nodes = (
"46 367 LINE",
"129 367 LINE",
"129 62 LINE",
"46 62 LINE",
"46 0 LINE",
"291 0 LINE",
"291 62 LINE",
"208 62 LINE",
"208 429 LINE",
"46 429 LINE"
);
}
);
};
layerId = "6E1B38A8-44EA-440A-BD04-FE41D2B0BC62";
paths = (
{
closed = 1;
nodes = (
"7 353 LINE",
"90 353 LINE",
"90 101 LINE",
"7 101 LINE",
"7 0 LINE",
"300 0 LINE",
"300 101 LINE",
"217 101 LINE",
"217 454 LINE",
"7 454 LINE"
);
}
);
width = 310;
}
);
leftKerningGroup = i;
rightKerningGroup = i;
unicode = 0131;
},
{
glyphname = iacute;
layers = (
{
background = {
paths = (
{
closed = 1;
nodes = (
"46 367 LINE",
"129 367 LINE",
"129 62 LINE",
"46 62 LINE",
"46 0 LINE",
"291 0 LINE",
"291 62 LINE",
"208 62 LINE",
"208 429 LINE",
"46 429 LINE"
);
},
{
closed = 1;
nodes = (
"81 512 LINE",
"98 480 LINE",
"332 586 LINE",
"296 652 LINE"
);
}
);
};
components = (
{
name = dotlessi;
},
{
name = acute;
transform = "{1, 0, 0, 1, 47, 20}";
}
);
layerId = UUID0;
width = 316;
},
{
components = (
{
name = dotlessi;
},
{
name = acute;
transform = "{1, 0, 0, 1, -19, 0}";
}
);
layerId = "6E1B38A8-44EA-440A-BD04-FE41D2B0BC62";
width = 310;
}
);
leftKerningGroup = i;
rightKerningGroup = i;
unicode = 00ED;
},
{
glyphname = igrave;
layers = (
{
background = {
paths = (
{
closed = 1;
nodes = (
"46 367 LINE",
"129 367 LINE",
"129 62 LINE",
"46 62 LINE",
"46 0 LINE",
"291 0 LINE",
"291 62 LINE",
"208 62 LINE",
"208 429 LINE",
"46 429 LINE"
);
},
{
closed = 1;
nodes = (
"228 512 LINE",
"209 480 LINE",
"-23 586 LINE",
"11 652 LINE"
);
}
);
};
components = (
{
name = dotlessi;
},
{
name = grave;
transform = "{1, 0, 0, 1, -65, 0}";
}
);
layerId = UUID0;
width = 316;
},
{
components = (
{
name = dotlessi;
},
{
name = grave;
transform = "{1, 0, 0, 1, -48, 0}";
}
);
layerId = "6E1B38A8-44EA-440A-BD04-FE41D2B0BC62";
width = 310;
}
);
leftKerningGroup = i;
rightKerningGroup = i;
unicode = 00EC;
},
{
glyphname = j;
layers = (
{
background = {
paths = (
{
closed = 1;
nodes = (
"204 621 OFFCURVE",
"175 650 OFFCURVE",
"142 650 CURVE SMOOTH",
"108 650 OFFCURVE",
"80 621 OFFCURVE",
"80 588 CURVE SMOOTH",
"80 554 OFFCURVE",
"108 526 OFFCURVE",
"142 526 CURVE SMOOTH",
"175 526 OFFCURVE",
"204 554 OFFCURVE",
"204 588 CURVE SMOOTH"
);
}
);
};
layerId = UUID0;
paths = (
{
closed = 1;
nodes = (
"187 429 LINE",
"25 429 LINE",
"25 367 LINE",
"109 367 LINE",
"109 -37 LINE SMOOTH",
"109 -87 OFFCURVE",
"116 -160 OFFCURVE",
"8 -160 CURVE SMOOTH",
"-8 -160 OFFCURVE",
"-21 -159 OFFCURVE",
"-34 -158 CURVE",
"-44 -219 LINE",
"-32 -220 OFFCURVE",
"-8 -223 OFFCURVE",
"5 -223 CURVE SMOOTH",
"185 -223 OFFCURVE",
"187 -114 OFFCURVE",
"187 -31 CURVE SMOOTH"
);
},
{
closed = 1;
nodes = (
"108 642 OFFCURVE",
"80 613 OFFCURVE",
"80 580 CURVE SMOOTH",
"80 546 OFFCURVE",
"108 518 OFFCURVE",
"142 518 CURVE SMOOTH",
"175 518 OFFCURVE",
"204 546 OFFCURVE",
"204 580 CURVE SMOOTH",
"204 613 OFFCURVE",
"175 642 OFFCURVE",
"142 642 CURVE SMOOTH"
);
}
);
width = 265;
},
{
background = {
paths = (
{
closed = 1;
nodes = (
"51 367 LINE",
"135 367 LINE",
"135 -37 LINE SMOOTH",
"135 -87 OFFCURVE",
"142 -160 OFFCURVE",
"34 -160 CURVE SMOOTH",
"18 -160 OFFCURVE",
"5 -159 OFFCURVE",
"-8 -158 CURVE",
"-18 -219 LINE",
"-6 -220 OFFCURVE",
"18 -223 OFFCURVE",
"31 -223 CURVE SMOOTH",
"211 -223 OFFCURVE",
"213 -114 OFFCURVE",
"213 -31 CURVE SMOOTH",
"213 429 LINE",
"51 429 LINE"
);
},
{
closed = 1;
nodes = (
"230 613 OFFCURVE",
"201 642 OFFCURVE",
"168 642 CURVE SMOOTH",
"134 642 OFFCURVE",
"106 613 OFFCURVE",
"106 580 CURVE SMOOTH",
"106 546 OFFCURVE",
"134 518 OFFCURVE",
"168 518 CURVE SMOOTH",
"201 518 OFFCURVE",
"230 546 OFFCURVE",
"230 580 CURVE SMOOTH"
);
}
);
};
layerId = "6E1B38A8-44EA-440A-BD04-FE41D2B0BC62";
paths = (
{
closed = 1;
nodes = (
"248 454 LINE",
"37 454 LINE",
"37 353 LINE",
"121 353 LINE",
"121 -51 LINE SMOOTH",
"121 -94 OFFCURVE",
"119 -141 OFFCURVE",
"44 -141 CURVE SMOOTH",
"30 -141 OFFCURVE",
"1 -139 OFFCURVE",
"-16 -136 CURVE",
"-29 -236 LINE",
"-8 -240 OFFCURVE",
"22 -248 OFFCURVE",
"56 -248 CURVE SMOOTH",
"248 -248 OFFCURVE",
"248 -130 OFFCURVE",
"248 -36 CURVE SMOOTH"
);
},
{
closed = 1;
nodes = (
"131 667 OFFCURVE",
"92 625 OFFCURVE",
"92 580 CURVE SMOOTH",
"92 532 OFFCURVE",
"131 494 OFFCURVE",
"179 494 CURVE SMOOTH",
"224 494 OFFCURVE",
"265 532 OFFCURVE",
"265 580 CURVE SMOOTH",
"265 625 OFFCURVE",
"224 667 OFFCURVE",
"179 667 CURVE SMOOTH"
);
}
);
width = 322;
}
);
unicode = 006A;
},
{
glyphname = k;
layers = (
{
layerId = UUID0;
paths = (
{
closed = 1;
nodes = (
"14 589 LINE",
"109 556 LINE",
"109 62 LINE",
"25 62 LINE",
"25 0 LINE",
"232 0 LINE",
"232 62 LINE",
"187 62 LINE",
"187 187 LINE",
"275 187 LINE",
"388 0 LINE",
"521 0 LINE",
"521 62 LINE",
"435 62 LINE",
"338 224 LINE",
"337 224 LINE",
"421 367 LINE",
"505 367 LINE",
"505 429 LINE",
"295 429 LINE",
"295 367 LINE",
"347 367 LINE",
"278 249 LINE",
"187 249 LINE",
"187 599 LINE",
"35 651 LINE"
);
}
);
width = 550;
},
{
background = {
paths = (
{
closed = 1;
nodes = (
"512 429 LINE",
"302 429 LINE",
"302 367 LINE",
"354 367 LINE",
"285 249 LINE",
"194 249 LINE",
"194 599 LINE",
"42 651 LINE",
"21 589 LINE",
"116 556 LINE",
"116 62 LINE",
"32 62 LINE",
"32 0 LINE",
"239 0 LINE",
"239 62 LINE",
"194 62 LINE",
"194 187 LINE",
"282 187 LINE",
"396 0 LINE",
"528 0 LINE",
"528 62 LINE",
"442 62 LINE",
"345 224 LINE",
"344 224 LINE",
"428 367 LINE",
"512 367 LINE"
);
}
);
};
layerId = "6E1B38A8-44EA-440A-BD04-FE41D2B0BC62";
paths = (
{
closed = 1;
nodes = (
"7 577 LINE",
"102 545 LINE",
"102 101 LINE",
"18 101 LINE",
"18 0 LINE",
"258 0 LINE",
"258 101 LINE",
"229 101 LINE",
"229 173 LINE",
"281 173 LINE",
"400 0 LINE",
"553 0 LINE",
"553 101 LINE",
"471 101 LINE",
"383 225 LINE",
"471 353 LINE",
"544 353 LINE",
"544 454 LINE",
"292 454 LINE",
"292 353 LINE",
"342 353 LINE",
"295 273 LINE",
"229 273 LINE",
"229 615 LINE",
"40 679 LINE"
);
}
);
width = 567;
}
);
leftKerningGroup = h;
unicode = 006B;
},
{
glyphname = l;
layers = (
{
layerId = UUID0;
paths = (
{
closed = 1;
nodes = (
"9 588 LINE",
"109 566 LINE",
"109 62 LINE",
"25 62 LINE",
"25 0 LINE",
"271 0 LINE",
"271 62 LINE",
"187 62 LINE",
"187 615 LINE",
"26 652 LINE"
);
}
);
width = 296;
},
{
background = {
paths = (
{
closed = 1;
nodes = (
"39 652 LINE",
"22 588 LINE",
"122 566 LINE",
"122 62 LINE",
"38 62 LINE",
"38 0 LINE",
"284 0 LINE",
"284 62 LINE",
"200 62 LINE",
"200 615 LINE"
);
}
);
};
layerId = "6E1B38A8-44EA-440A-BD04-FE41D2B0BC62";
paths = (
{
closed = 1;
nodes = (
"12 577 LINE",
"107 545 LINE",
"107 101 LINE",
"23 101 LINE",
"23 0 LINE",
"318 0 LINE",
"318 101 LINE",
"234 101 LINE",
"234 615 LINE",
"45 679 LINE"
);
}
);
width = 326;
}
);
leftKerningGroup = h;
unicode = 006C;
},
{
glyphname = m;
layers = (
{
layerId = UUID0;
paths = (
{
closed = 1;
nodes = (
"58 444 LINE",
"37 382 LINE",
"133 349 LINE",
"133 62 LINE",
"49 62 LINE",
"49 0 LINE",
"256 0 LINE",
"256 62 LINE",
"211 62 LINE",
"211 346 LINE",
"211 346 OFFCURVE",
"248 380 OFFCURVE",
"320 380 CURVE SMOOTH",
"406 380 OFFCURVE",
"419 330 OFFCURVE",
"419 259 CURVE SMOOTH",
"419 62 LINE",
"374 62 LINE",
"374 0 LINE",
"542 0 LINE",
"542 62 LINE",
"497 62 LINE",
"497 346 LINE",
"497 346 OFFCURVE",
"534 380 OFFCURVE",
"606 380 CURVE SMOOTH",
"692 380 OFFCURVE",
"705 330 OFFCURVE",
"705 259 CURVE SMOOTH",
"705 62 LINE",
"660 62 LINE",
"660 0 LINE",
"867 0 LINE",
"867 62 LINE",
"783 62 LINE",
"783 275 LINE SMOOTH",
"783 387 OFFCURVE",
"739 444 OFFCURVE",
"611 444 CURVE SMOOTH",
"524 444 OFFCURVE",
"469 392 OFFCURVE",
"469 392 CURVE",
"467 391 LINE",
"441 426 OFFCURVE",
"396 444 OFFCURVE",
"325 444 CURVE SMOOTH",
"254 444 OFFCURVE",
"207 411 OFFCURVE",
"190 398 CURVE"
);
}
);
width = 889;
},
{
background = {
paths = (
{
closed = 1;
nodes = (
"18 382 LINE",
"114 349 LINE",
"114 62 LINE",
"30 62 LINE",
"30 0 LINE",
"237 0 LINE",
"237 62 LINE",
"192 62 LINE",
"192 346 LINE",
"192 346 OFFCURVE",
"229 380 OFFCURVE",
"301 380 CURVE SMOOTH",
"387 380 OFFCURVE",
"400 330 OFFCURVE",
"400 259 CURVE SMOOTH",
"400 62 LINE",
"355 62 LINE",
"355 0 LINE",
"523 0 LINE",
"523 62 LINE",
"478 62 LINE",
"478 346 LINE",
"478 346 OFFCURVE",
"515 380 OFFCURVE",
"587 380 CURVE SMOOTH",
"673 380 OFFCURVE",
"686 330 OFFCURVE",
"686 259 CURVE SMOOTH",
"686 62 LINE",
"641 62 LINE",
"641 0 LINE",
"848 0 LINE",
"848 62 LINE",
"764 62 LINE",
"764 275 LINE SMOOTH",
"764 387 OFFCURVE",
"720 444 OFFCURVE",
"592 444 CURVE SMOOTH",
"505 444 OFFCURVE",
"450 392 OFFCURVE",
"450 392 CURVE",
"448 391 LINE",
"422 426 OFFCURVE",
"377 444 OFFCURVE",
"306 444 CURVE SMOOTH",
"235 444 OFFCURVE",
"188 411 OFFCURVE",
"171 398 CURVE",
"39 444 LINE"
);
}
);
};
layerId = "6E1B38A8-44EA-440A-BD04-FE41D2B0BC62";
paths = (
{
closed = 1;
nodes = (
"38 464 LINE",
"5 362 LINE",
"100 333 LINE",
"100 102 LINE",
"17 102 LINE",
"17 0 LINE",
"267 0 LINE",
"267 102 LINE",
"227 102 LINE",
"227 331 LINE",
"227 331 OFFCURVE",
"268 364 OFFCURVE",
"312 364 CURVE SMOOTH",
"376 364 OFFCURVE",
"386 324 OFFCURVE",
"386 267 CURVE SMOOTH",
"386 102 LINE",
"347 102 LINE",
"347 0 LINE",
"550 0 LINE",
"550 102 LINE",
"513 102 LINE",
"513 331 LINE",
"513 331 OFFCURVE",
"553 364 OFFCURVE",
"597 364 CURVE SMOOTH",
"661 364 OFFCURVE",
"671 324 OFFCURVE",
"671 267 CURVE SMOOTH",
"671 102 LINE",
"634 102 LINE",
"634 0 LINE",
"883 0 LINE",
"883 102 LINE",
"798 102 LINE",
"798 270 LINE SMOOTH",
"798 431 OFFCURVE",
"731 474 OFFCURVE",
"607 474 CURVE SMOOTH",
"551 474 OFFCURVE",
"488 433 OFFCURVE",
"466 416 CURVE",
"433 459 OFFCURVE",
"389 474 OFFCURVE",
"319 474 CURVE SMOOTH",
"269 474 OFFCURVE",
"208 439 OFFCURVE",
"184 418 CURVE"
);
}
);
width = 893;
}
);
leftKerningGroup = n;
rightKerningGroup = n;
unicode = 006D;
},
{
glyphname = n;
layers = (
{
layerId = UUID0;
paths = (
{
closed = 1;
nodes = (
"58 444 LINE",
"37 382 LINE",
"133 349 LINE",
"133 62 LINE",
"49 62 LINE",
"49 0 LINE",
"256 0 LINE",
"256 62 LINE",
"211 62 LINE",
"211 346 LINE",
"251 368 OFFCURVE",
"293 380 OFFCURVE",
"330 380 CURVE SMOOTH",
"394 380 OFFCURVE",
"443 344 OFFCURVE",
"443 259 CURVE SMOOTH",
"443 62 LINE",
"398 62 LINE",
"398 0 LINE",
"605 0 LINE",
"605 62 LINE",
"521 62 LINE",
"521 275 LINE SMOOTH",
"521 388 OFFCURVE",
"438 444 OFFCURVE",
"343 444 CURVE SMOOTH",
"292 444 OFFCURVE",
"238 429 OFFCURVE",
"191 398 CURVE"
);
}
);
width = 626;
},
{
background = {
paths = (
{
closed = 1;
nodes = (
"19 382 LINE",
"115 349 LINE",
"115 62 LINE",
"30 62 LINE",
"30 0 LINE",
"237 0 LINE",
"237 62 LINE",
"192 62 LINE",
"192 346 LINE",
"192 346 OFFCURVE",
"247 380 OFFCURVE",
"318 380 CURVE SMOOTH",
"404 380 OFFCURVE",
"424 330 OFFCURVE",
"424 259 CURVE SMOOTH",
"424 62 LINE",
"379 62 LINE",
"379 0 LINE",
"586 0 LINE",
"586 62 LINE",
"502 62 LINE",
"502 275 LINE SMOOTH",
"502 387 OFFCURVE",
"452 444 OFFCURVE",
"324 444 CURVE SMOOTH",
"252 444 OFFCURVE",
"192 411 OFFCURVE",
"172 398 CURVE",
"40 444 LINE"
);
}
);
};
layerId = "6E1B38A8-44EA-440A-BD04-FE41D2B0BC62";
paths = (
{
closed = 1;
nodes = (
"38 463 LINE",
"5 361 LINE",
"101 328 LINE",
"101 101 LINE",
"16 101 LINE",
"16 0 LINE",
"267 0 LINE",
"267 101 LINE",
"227 101 LINE",
"227 328 LINE",
"249 345 OFFCURVE",
"289 362 OFFCURVE",
"329 362 CURVE SMOOTH",
"392 362 OFFCURVE",
"410 322 OFFCURVE",
"410 266 CURVE SMOOTH",
"410 101 LINE",
"369 101 LINE",
"369 0 LINE",
"620 0 LINE",
"620 101 LINE",
"537 101 LINE",
"537 281 LINE SMOOTH",
"537 387 OFFCURVE",
"492 474 OFFCURVE",
"361 474 CURVE SMOOTH",
"278 474 OFFCURVE",
"232 451 OFFCURVE",
"179 415 CURVE"
);
}
);
width = 627;
}
);
leftKerningGroup = n;
rightKerningGroup = n;
unicode = 006E;
},
{
glyphname = o;
layers = (
{
layerId = UUID0;
paths = (
{
closed = 1;
nodes = (
"135 444 OFFCURVE",
"46 357 OFFCURVE",
"46 214 CURVE SMOOTH",
"46 71 OFFCURVE",
"135 -15 OFFCURVE",
"264 -15 CURVE SMOOTH",
"397 -15 OFFCURVE",
"486 71 OFFCURVE",
"486 214 CURVE SMOOTH",
"486 357 OFFCURVE",
"397 444 OFFCURVE",
"264 444 CURVE SMOOTH"
);
},
{
closed = 1;
nodes = (
"359 380 OFFCURVE",
"406 319 OFFCURVE",
"406 214 CURVE SMOOTH",
"406 109 OFFCURVE",
"359 49 OFFCURVE",
"265 49 CURVE SMOOTH",
"173 49 OFFCURVE",
"126 109 OFFCURVE",
"126 214 CURVE SMOOTH",
"126 319 OFFCURVE",
"173 380 OFFCURVE",
"265 380 CURVE SMOOTH"
);
}
);
width = 532;
},
{
background = {
paths = (
{
closed = 1;
nodes = (
"393 -15 OFFCURVE",
"482 71 OFFCURVE",
"482 214 CURVE SMOOTH",
"482 357 OFFCURVE",
"393 444 OFFCURVE",
"260 444 CURVE SMOOTH",
"131 444 OFFCURVE",
"42 357 OFFCURVE",
"42 214 CURVE SMOOTH",
"42 71 OFFCURVE",
"131 -15 OFFCURVE",
"260 -15 CURVE SMOOTH"
);
},
{
closed = 1;
nodes = (
"354 380 OFFCURVE",
"402 319 OFFCURVE",
"402 214 CURVE SMOOTH",
"402 109 OFFCURVE",
"354 49 OFFCURVE",
"261 49 CURVE SMOOTH",
"168 49 OFFCURVE",
"122 109 OFFCURVE",
"122 214 CURVE SMOOTH",
"122 319 OFFCURVE",
"168 380 OFFCURVE",
"261 380 CURVE SMOOTH"
);
}
);
};
layerId = "6E1B38A8-44EA-440A-BD04-FE41D2B0BC62";
paths = (
{
closed = 1;
nodes = (
"117 474 OFFCURVE",
"27 382 OFFCURVE",
"27 226 CURVE SMOOTH",
"27 71 OFFCURVE",
"117 -20 OFFCURVE",
"270 -20 CURVE SMOOTH",
"425 -20 OFFCURVE",
"517 71 OFFCURVE",
"517 226 CURVE SMOOTH",
"517 382 OFFCURVE",
"425 474 OFFCURVE",
"270 474 CURVE SMOOTH"
);
},
{
closed = 1;
nodes = (
"348 371 OFFCURVE",
"388 321 OFFCURVE",
"388 226 CURVE SMOOTH",
"388 131 OFFCURVE",
"348 81 OFFCURVE",
"271 81 CURVE SMOOTH",
"195 81 OFFCURVE",
"156 131 OFFCURVE",
"156 226 CURVE SMOOTH",
"156 321 OFFCURVE",
"195 371 OFFCURVE",
"271 371 CURVE SMOOTH"
);
}
);
width = 544;
},
{
associatedMasterId = "6E1B38A8-44EA-440A-BD04-FE41D2B0BC62";
background = {
paths = (
{
closed = 1;
nodes = (
"393 -15 OFFCURVE",
"482 71 OFFCURVE",
"482 214 CURVE SMOOTH",
"482 357 OFFCURVE",
"393 444 OFFCURVE",
"260 444 CURVE SMOOTH",
"131 444 OFFCURVE",
"42 357 OFFCURVE",
"42 214 CURVE SMOOTH",
"42 71 OFFCURVE",
"131 -15 OFFCURVE",
"260 -15 CURVE SMOOTH"
);
},
{
closed = 1;
nodes = (
"354 380 OFFCURVE",
"402 319 OFFCURVE",
"402 214 CURVE SMOOTH",
"402 109 OFFCURVE",
"354 49 OFFCURVE",
"261 49 CURVE SMOOTH",
"168 49 OFFCURVE",
"122 109 OFFCURVE",
"122 214 CURVE SMOOTH",
"122 319 OFFCURVE",
"168 380 OFFCURVE",
"261 380 CURVE SMOOTH"
);
}
);
};
layerId = "1E2777C7-D231-47D5-946A-9102B4CE2579";
name = "Nov 1 16, 12:52";
paths = (
{
closed = 1;
nodes = (
"126 474 OFFCURVE",
"27 387 OFFCURVE",
"27 226 CURVE SMOOTH",
"27 64 OFFCURVE",
"126 -20 OFFCURVE",
"270 -20 CURVE SMOOTH",
"417 -20 OFFCURVE",
"517 64 OFFCURVE",
"517 226 CURVE SMOOTH",
"517 387 OFFCURVE",
"417 474 OFFCURVE",
"270 474 CURVE SMOOTH"
);
},
{
closed = 1;
nodes = (
"349 371 OFFCURVE",
"388 318 OFFCURVE",
"388 226 CURVE SMOOTH",
"388 134 OFFCURVE",
"349 81 OFFCURVE",
"271 81 CURVE SMOOTH",
"195 81 OFFCURVE",
"156 134 OFFCURVE",
"156 226 CURVE SMOOTH",
"156 318 OFFCURVE",
"195 371 OFFCURVE",
"271 371 CURVE SMOOTH"
);
}
);
width = 544;
}
);
leftKerningGroup = o;
rightKerningGroup = o;
unicode = 006F;
},
{
glyphname = oacute;
layers = (
{
background = {
paths = (
{
closed = 1;
nodes = (
"206 512 LINE",
"224 480 LINE",
"457 586 LINE",
"422 652 LINE"
);
}
);
};
components = (
{
name = o;
},
{
name = acute;
transform = "{1, 0, 0, 1, 174, 20}";
}
);
layerId = UUID0;
width = 532;
},
{
components = (
{
name = o;
},
{
name = acute;
transform = "{1, 0, 0, 1, 107, 0}";
}
);
layerId = "6E1B38A8-44EA-440A-BD04-FE41D2B0BC62";
width = 544;
}
);
leftKerningGroup = o;
rightKerningGroup = o;
unicode = 00F3;
},
{
glyphname = ograve;
layers = (
{
background = {
paths = (
{
closed = 1;
nodes = (
"99 652 LINE",
"64 586 LINE",
"297 480 LINE",
"315 512 LINE"
);
}
);
};
components = (
{
name = o;
},
{
name = grave;
transform = "{1, 0, 0, 1, 22, 0}";
}
);
layerId = UUID0;
width = 532;
},
{
components = (
{
name = o;
},
{
name = grave;
transform = "{1, 0, 0, 1, 103, 0}";
}
);
layerId = "6E1B38A8-44EA-440A-BD04-FE41D2B0BC62";
width = 544;
}
);
leftKerningGroup = o;
rightKerningGroup = o;
unicode = 00F2;
},
{
glyphname = oslash;
layers = (
{
layerId = UUID0;
paths = (
{
closed = 1;
nodes = (
"415 498 LINE",
"352 498 LINE",
"327 436 LINE",
"307 441 OFFCURVE",
"286 444 OFFCURVE",
"264 444 CURVE SMOOTH",
"135 444 OFFCURVE",
"46 357 OFFCURVE",
"46 214 CURVE SMOOTH",
"46 117 OFFCURVE",
"86 46 OFFCURVE",
"153 11 CURVE",
"119 -72 LINE",
"183 -72 LINE",
"208 -9 LINE",
"226 -13 OFFCURVE",
"244 -15 OFFCURVE",
"264 -15 CURVE SMOOTH",
"397 -15 OFFCURVE",
"486 71 OFFCURVE",
"486 214 CURVE SMOOTH",
"486 309 OFFCURVE",
"446 379 OFFCURVE",
"381 415 CURVE"
);
},
{
closed = 1;
nodes = (
"179 74 LINE",
"143 101 OFFCURVE",
"126 149 OFFCURVE",
"126 214 CURVE SMOOTH",
"126 319 OFFCURVE",
"173 380 OFFCURVE",
"265 380 CURVE SMOOTH",
"278 380 OFFCURVE",
"291 379 OFFCURVE",
"302 376 CURVE"
);
},
{
closed = 1;
nodes = (
"355 351 LINE",
"389 324 OFFCURVE",
"406 276 OFFCURVE",
"406 214 CURVE SMOOTH",
"406 109 OFFCURVE",
"359 49 OFFCURVE",
"265 49 CURVE SMOOTH",
"254 49 OFFCURVE",
"243 50 OFFCURVE",
"233 52 CURVE"
);
}
);
width = 532;
},
{
background = {
paths = (
{
closed = 1;
nodes = (
"397 -15 OFFCURVE",
"486 71 OFFCURVE",
"486 214 CURVE SMOOTH",
"486 309 OFFCURVE",
"446 379 OFFCURVE",
"381 415 CURVE",
"415 498 LINE",
"352 498 LINE",
"327 436 LINE",
"307 441 OFFCURVE",
"286 444 OFFCURVE",
"264 444 CURVE SMOOTH",
"135 444 OFFCURVE",
"46 357 OFFCURVE",
"46 214 CURVE SMOOTH",
"46 117 OFFCURVE",
"86 46 OFFCURVE",
"153 11 CURVE",
"119 -72 LINE",
"183 -72 LINE",
"208 -9 LINE",
"226 -13 OFFCURVE",
"244 -15 OFFCURVE",
"264 -15 CURVE SMOOTH"
);
},
{
closed = 1;
nodes = (
"278 380 OFFCURVE",
"291 379 OFFCURVE",
"302 376 CURVE",
"179 74 LINE",
"143 101 OFFCURVE",
"126 149 OFFCURVE",
"126 214 CURVE SMOOTH",
"126 319 OFFCURVE",
"173 380 OFFCURVE",
"265 380 CURVE SMOOTH"
);
},
{
closed = 1;
nodes = (
"406 109 OFFCURVE",
"359 49 OFFCURVE",
"265 49 CURVE SMOOTH",
"254 49 OFFCURVE",
"243 50 OFFCURVE",
"233 52 CURVE",
"355 351 LINE",
"389 324 OFFCURVE",
"406 276 OFFCURVE",
"406 214 CURVE SMOOTH"
);
}
);
};
layerId = "6E1B38A8-44EA-440A-BD04-FE41D2B0BC62";
paths = (
{
closed = 1;
nodes = (
"431 498 LINE",
"345 498 LINE",
"328 458 LINE",
"310 461 OFFCURVE",
"291 463 OFFCURVE",
"270 463 CURVE SMOOTH",
"126 463 OFFCURVE",
"27 377 OFFCURVE",
"27 219 CURVE SMOOTH",
"27 117 OFFCURVE",
"68 45 OFFCURVE",
"136 7 CURVE",
"103 -72 LINE",
"198 -72 LINE",
"218 -21 LINE",
"235 -23 OFFCURVE",
"252 -25 OFFCURVE",
"270 -25 CURVE SMOOTH",
"417 -25 OFFCURVE",
"517 61 OFFCURVE",
"517 219 CURVE SMOOTH",
"517 322 OFFCURVE",
"474 395 OFFCURVE",
"404 433 CURVE"
);
},
{
closed = 1;
nodes = (
"183 118 LINE",
"165 142 OFFCURVE",
"156 176 OFFCURVE",
"156 219 CURVE SMOOTH",
"156 308 OFFCURVE",
"195 360 OFFCURVE",
"271 360 CURVE SMOOTH",
"276 360 OFFCURVE",
"281 360 OFFCURVE",
"286 359 CURVE"
);
},
{
closed = 1;
nodes = (
"359 322 LINE",
"378 298 OFFCURVE",
"388 263 OFFCURVE",
"388 219 CURVE SMOOTH",
"388 129 OFFCURVE",
"349 78 OFFCURVE",
"271 78 CURVE SMOOTH",
"267 78 OFFCURVE",
"263 78 OFFCURVE",
"259 79 CURVE"
);
}
);
width = 544;
}
);
leftKerningGroup = o;
rightKerningGroup = o;
unicode = 00F8;
},
{
glyphname = oe;
layers = (
{
layerId = UUID0;
paths = (
{
closed = 1;
nodes = (
"679 98 LINE",
"679 98 OFFCURVE",
"620 49 OFFCURVE",
"527 49 CURVE SMOOTH",
"441 49 OFFCURVE",
"394 101 OFFCURVE",
"389 194 CURVE",
"711 196 LINE",
"731 391 OFFCURVE",
"633 444 OFFCURVE",
"526 444 CURVE SMOOTH",
"478 444 OFFCURVE",
"436 432 OFFCURVE",
"402 410 CURVE",
"369 427 OFFCURVE",
"323 444 OFFCURVE",
"263 444 CURVE SMOOTH",
"141 444 OFFCURVE",
"45 352 OFFCURVE",
"45 223 CURVE SMOOTH",
"45 80 OFFCURVE",
"134 -15 OFFCURVE",
"263 -15 CURVE SMOOTH",
"314 -15 OFFCURVE",
"358 5 OFFCURVE",
"390 27 CURVE",
"426 0 OFFCURVE",
"472 -15 OFFCURVE",
"526 -15 CURVE SMOOTH",
"647 -15 OFFCURVE",
"715 50 OFFCURVE",
"715 51 CURVE"
);
},
{
closed = 1;
nodes = (
"304 380 OFFCURVE",
"334 372 OFFCURVE",
"353 365 CURVE",
"324 327 OFFCURVE",
"308 275 OFFCURVE",
"308 214 CURVE SMOOTH",
"308 156 OFFCURVE",
"322 108 OFFCURVE",
"348 71 CURVE",
"326 59 OFFCURVE",
"298 49 OFFCURVE",
"264 49 CURVE SMOOTH",
"172 49 OFFCURVE",
"125 119 OFFCURVE",
"125 224 CURVE SMOOTH",
"125 313 OFFCURVE",
"179 380 OFFCURVE",
"264 380 CURVE SMOOTH"
);
},
{
closed = 1;
nodes = (
"390 256 LINE",
"402 334 OFFCURVE",
"448 380 OFFCURVE",
"527 380 CURVE SMOOTH",
"602 380 OFFCURVE",
"642 337 OFFCURVE",
"643 257 CURVE"
);
}
);
width = 764;
},
{
background = {
paths = (
{
closed = 1;
nodes = (
"653 -15 OFFCURVE",
"722 50 OFFCURVE",
"722 51 CURVE",
"686 98 LINE",
"686 98 OFFCURVE",
"626 49 OFFCURVE",
"534 49 CURVE SMOOTH",
"447 49 OFFCURVE",
"400 101 OFFCURVE",
"396 194 CURVE",
"717 196 LINE",
"737 391 OFFCURVE",
"640 444 OFFCURVE",
"532 444 CURVE SMOOTH",
"484 444 OFFCURVE",
"442 432 OFFCURVE",
"409 410 CURVE",
"375 427 OFFCURVE",
"330 444 OFFCURVE",
"270 444 CURVE SMOOTH",
"147 444 OFFCURVE",
"51 352 OFFCURVE",
"51 223 CURVE SMOOTH",
"51 80 OFFCURVE",
"141 -15 OFFCURVE",
"270 -15 CURVE SMOOTH",
"320 -15 OFFCURVE",
"364 5 OFFCURVE",
"396 27 CURVE",
"433 0 OFFCURVE",
"479 -15 OFFCURVE",
"532 -15 CURVE SMOOTH"
);
},
{
closed = 1;
nodes = (
"314 156 OFFCURVE",
"329 108 OFFCURVE",
"354 71 CURVE",
"333 59 OFFCURVE",
"305 49 OFFCURVE",
"271 49 CURVE SMOOTH",
"178 49 OFFCURVE",
"131 119 OFFCURVE",
"131 224 CURVE SMOOTH",
"131 313 OFFCURVE",
"186 380 OFFCURVE",
"271 380 CURVE SMOOTH",
"311 380 OFFCURVE",
"340 372 OFFCURVE",
"359 365 CURVE",
"331 327 OFFCURVE",
"314 275 OFFCURVE",
"314 214 CURVE SMOOTH"
);
},
{
closed = 1;
nodes = (
"608 380 OFFCURVE",
"648 337 OFFCURVE",
"649 257 CURVE",
"396 256 LINE",
"409 334 OFFCURVE",
"455 380 OFFCURVE",
"534 380 CURVE SMOOTH"
);
}
);
};
layerId = "6E1B38A8-44EA-440A-BD04-FE41D2B0BC62";
paths = (
{
closed = 1;
nodes = (
"668 124 LINE",
"641 104 OFFCURVE",
"598 78 OFFCURVE",
"522 78 CURVE SMOOTH",
"460 78 OFFCURVE",
"427 113 OFFCURVE",
"416 175 CURVE",
"727 175 LINE",
"730 186 OFFCURVE",
"733 235 OFFCURVE",
"733 238 CURVE SMOOTH",
"733 388 OFFCURVE",
"659 463 OFFCURVE",
"526 463 CURVE SMOOTH",
"489 463 OFFCURVE",
"448 450 OFFCURVE",
"411 424 CURVE",
"380 446 OFFCURVE",
"329 463 OFFCURVE",
"270 463 CURVE SMOOTH",
"126 463 OFFCURVE",
"27 377 OFFCURVE",
"27 219 CURVE SMOOTH",
"27 61 OFFCURVE",
"126 -22 OFFCURVE",
"270 -22 CURVE SMOOTH",
"326 -22 OFFCURVE",
"375 -8 OFFCURVE",
"408 13 CURVE",
"443 -10 OFFCURVE",
"483 -22 OFFCURVE",
"521 -22 CURVE SMOOTH",
"656 -22 OFFCURVE",
"720 50 OFFCURVE",
"723 54 CURVE"
);
},
{
closed = 1;
nodes = (
"295 360 OFFCURVE",
"320 355 OFFCURVE",
"339 346 CURVE",
"321 316 OFFCURVE",
"308 272 OFFCURVE",
"308 220 CURVE SMOOTH",
"308 167 OFFCURVE",
"320 122 OFFCURVE",
"337 92 CURVE",
"318 83 OFFCURVE",
"294 78 OFFCURVE",
"271 78 CURVE SMOOTH",
"195 78 OFFCURVE",
"156 129 OFFCURVE",
"156 219 CURVE SMOOTH",
"156 308 OFFCURVE",
"195 360 OFFCURVE",
"271 360 CURVE SMOOTH"
);
},
{
closed = 1;
nodes = (
"419 277 LINE",
"433 331 OFFCURVE",
"467 360 OFFCURVE",
"522 360 CURVE SMOOTH",
"591 360 OFFCURVE",
"620 323 OFFCURVE",
"619 277 CURVE"
);
}
);
width = 759;
}
);
leftKerningGroup = o;
rightKerningGroup = e;
unicode = 0153;
},
{
glyphname = p;
layers = (
{
layerId = UUID0;
paths = (
{
closed = 1;
nodes = (
"35 447 LINE",
"15 383 LINE",
"109 352 LINE",
"109 -146 LINE",
"25 -146 LINE",
"25 -208 LINE",
"271 -208 LINE",
"271 -146 LINE",
"187 -146 LINE",
"187 2 LINE",
"217 -8 OFFCURVE",
"253 -15 OFFCURVE",
"298 -15 CURVE SMOOTH",
"427 -15 OFFCURVE",
"516 85 OFFCURVE",
"516 228 CURVE SMOOTH",
"516 368 OFFCURVE",
"428 444 OFFCURVE",
"302 444 CURVE SMOOTH",
"249 444 OFFCURVE",
"201 422 OFFCURVE",
"169 401 CURVE"
);
},
{
closed = 1;
nodes = (
"187 343 LINE",
"187 343 OFFCURVE",
"230 380 OFFCURVE",
"301 380 CURVE SMOOTH",
"391 380 OFFCURVE",
"436 329 OFFCURVE",
"436 228 CURVE SMOOTH",
"436 123 OFFCURVE",
"389 49 OFFCURVE",
"297 49 CURVE SMOOTH",
"226 49 OFFCURVE",
"187 74 OFFCURVE",
"187 74 CURVE"
);
}
);
width = 561;
},
{
background = {
paths = (
{
closed = 1;
nodes = (
"276 -146 LINE",
"192 -146 LINE",
"192 2 LINE",
"222 -8 OFFCURVE",
"258 -15 OFFCURVE",
"303 -15 CURVE SMOOTH",
"432 -15 OFFCURVE",
"521 85 OFFCURVE",
"521 228 CURVE SMOOTH",
"521 368 OFFCURVE",
"433 444 OFFCURVE",
"307 444 CURVE SMOOTH",
"254 444 OFFCURVE",
"206 422 OFFCURVE",
"174 401 CURVE",
"40 447 LINE",
"20 383 LINE",
"114 352 LINE",
"114 -146 LINE",
"30 -146 LINE",
"30 -208 LINE",
"276 -208 LINE"
);
},
{
closed = 1;
nodes = (
"231 49 OFFCURVE",
"192 74 OFFCURVE",
"192 74 CURVE",
"192 343 LINE",
"192 343 OFFCURVE",
"235 380 OFFCURVE",
"306 380 CURVE SMOOTH",
"396 380 OFFCURVE",
"441 329 OFFCURVE",
"441 228 CURVE SMOOTH",
"441 123 OFFCURVE",
"394 49 OFFCURVE",
"302 49 CURVE SMOOTH"
);
}
);
};
layerId = "6E1B38A8-44EA-440A-BD04-FE41D2B0BC62";
paths = (
{
closed = 1;
nodes = (
"38 470 LINE",
"5 368 LINE",
"100 336 LINE",
"100 -124 LINE",
"16 -124 LINE",
"16 -224 LINE",
"311 -224 LINE",
"311 -124 LINE",
"227 -124 LINE",
"227 -12 LINE",
"251 -18 OFFCURVE",
"279 -22 OFFCURVE",
"313 -22 CURVE SMOOTH",
"457 -22 OFFCURVE",
"555 71 OFFCURVE",
"555 228 CURVE SMOOTH",
"555 393 OFFCURVE",
"458 474 OFFCURVE",
"327 474 CURVE SMOOTH",
"270 474 OFFCURVE",
"216 446 OFFCURVE",
"182 421 CURVE"
);
},
{
closed = 1;
nodes = (
"225 335 LINE",
"242 351 OFFCURVE",
"272 371 OFFCURVE",
"320 371 CURVE SMOOTH",
"391 371 OFFCURVE",
"425 312 OFFCURVE",
"425 226 CURVE SMOOTH",
"425 139 OFFCURVE",
"389 79 OFFCURVE",
"311 79 CURVE SMOOTH",
"268 79 OFFCURVE",
"239 88 OFFCURVE",
"225 94 CURVE"
);
}
);
width = 583;
}
);
rightKerningGroup = o;
unicode = 0070;
},
{
glyphname = thorn;
layers = (
{
layerId = UUID0;
paths = (
{
closed = 1;
nodes = (
"156 600 LINE",
"4 652 LINE",
"-16 588 LINE",
"78 557 LINE",
"78 -146 LINE",
"-6 -146 LINE",
"-6 -208 LINE",
"240 -208 LINE",
"240 -146 LINE",
"156 -146 LINE",
"156 2 LINE",
"186 -8 OFFCURVE",
"222 -15 OFFCURVE",
"267 -15 CURVE SMOOTH",
"396 -15 OFFCURVE",
"485 84 OFFCURVE",
"485 227 CURVE SMOOTH",
"485 367 OFFCURVE",
"397 444 OFFCURVE",
"271 444 CURVE SMOOTH",
"227 444 OFFCURVE",
"187 429 OFFCURVE",
"156 412 CURVE"
);
},
{
closed = 1;
nodes = (
"156 343 LINE",
"156 343 OFFCURVE",
"199 380 OFFCURVE",
"270 380 CURVE SMOOTH",
"360 380 OFFCURVE",
"405 328 OFFCURVE",
"405 227 CURVE SMOOTH",
"405 122 OFFCURVE",
"358 49 OFFCURVE",
"266 49 CURVE SMOOTH",
"195 49 OFFCURVE",
"156 74 OFFCURVE",
"156 74 CURVE"
);
}
);
width = 530;
},
{
background = {
paths = (
{
closed = 1;
nodes = (
"243 -146 LINE",
"159 -146 LINE",
"159 2 LINE",
"189 -8 OFFCURVE",
"226 -15 OFFCURVE",
"271 -15 CURVE SMOOTH",
"399 -15 OFFCURVE",
"488 84 OFFCURVE",
"488 227 CURVE SMOOTH",
"488 367 OFFCURVE",
"400 444 OFFCURVE",
"274 444 CURVE SMOOTH",
"230 444 OFFCURVE",
"190 429 OFFCURVE",
"159 412 CURVE",
"159 600 LINE",
"7 652 LINE",
"-13 588 LINE",
"82 557 LINE",
"82 -146 LINE",
"-2 -146 LINE",
"-2 -208 LINE",
"243 -208 LINE"
);
},
{
closed = 1;
nodes = (
"198 49 OFFCURVE",
"159 74 OFFCURVE",
"159 74 CURVE",
"159 343 LINE",
"159 343 OFFCURVE",
"202 380 OFFCURVE",
"273 380 CURVE SMOOTH",
"363 380 OFFCURVE",
"408 328 OFFCURVE",
"408 227 CURVE SMOOTH",
"408 122 OFFCURVE",
"361 49 OFFCURVE",
"270 49 CURVE SMOOTH"
);
}
);
};
layerId = "6E1B38A8-44EA-440A-BD04-FE41D2B0BC62";
paths = (
{
closed = 1;
nodes = (
"208 615 LINE",
"18 680 LINE",
"-19 572 LINE",
"82 537 LINE",
"82 -124 LINE",
"-2 -124 LINE",
"-2 -224 LINE",
"293 -224 LINE",
"293 -124 LINE",
"209 -124 LINE",
"209 -12 LINE",
"234 -18 OFFCURVE",
"261 -22 OFFCURVE",
"295 -22 CURVE SMOOTH",
"439 -22 OFFCURVE",
"538 71 OFFCURVE",
"538 228 CURVE SMOOTH",
"538 390 OFFCURVE",
"438 468 OFFCURVE",
"305 468 CURVE SMOOTH",
"265 468 OFFCURVE",
"228 456 OFFCURVE",
"208 445 CURVE"
);
},
{
closed = 1;
nodes = (
"208 335 LINE",
"208 335 OFFCURVE",
"252 365 OFFCURVE",
"297 365 CURVE SMOOTH",
"372 365 OFFCURVE",
"408 309 OFFCURVE",
"408 226 CURVE SMOOTH",
"408 139 OFFCURVE",
"372 79 OFFCURVE",
"293 79 CURVE SMOOTH",
"250 79 OFFCURVE",
"222 88 OFFCURVE",
"208 94 CURVE"
);
}
);
width = 565;
}
);
leftKerningGroup = b;
rightKerningGroup = o;
unicode = 00FE;
},
{
glyphname = q;
layers = (
{
layerId = UUID0;
paths = (
{
closed = 1;
nodes = (
"375 -146 LINE",
"291 -146 LINE",
"291 -208 LINE",
"537 -208 LINE",
"537 -146 LINE",
"453 -146 LINE",
"453 387 LINE",
"452 388 OFFCURVE",
"378 444 OFFCURVE",
"263 444 CURVE SMOOTH",
"141 444 OFFCURVE",
"45 353 OFFCURVE",
"45 224 CURVE SMOOTH",
"45 81 OFFCURVE",
"134 -15 OFFCURVE",
"263 -15 CURVE SMOOTH",
"307 -15 OFFCURVE",
"345 0 OFFCURVE",
"375 17 CURVE"
);
},
{
closed = 1;
nodes = (
"375 87 LINE",
"355 72 OFFCURVE",
"314 49 OFFCURVE",
"264 49 CURVE SMOOTH",
"172 49 OFFCURVE",
"125 120 OFFCURVE",
"125 225 CURVE SMOOTH",
"125 314 OFFCURVE",
"179 380 OFFCURVE",
"264 380 CURVE SMOOTH",
"335 380 OFFCURVE",
"374 355 OFFCURVE",
"375 354 CURVE"
);
}
);
width = 526;
},
{
background = {
paths = (
{
closed = 1;
nodes = (
"288 -208 LINE",
"534 -208 LINE",
"534 -146 LINE",
"450 -146 LINE",
"450 387 LINE",
"449 388 OFFCURVE",
"375 444 OFFCURVE",
"260 444 CURVE SMOOTH",
"138 444 OFFCURVE",
"42 353 OFFCURVE",
"42 224 CURVE SMOOTH",
"42 81 OFFCURVE",
"131 -15 OFFCURVE",
"260 -15 CURVE SMOOTH",
"304 -15 OFFCURVE",
"342 0 OFFCURVE",
"372 17 CURVE",
"372 -146 LINE",
"288 -146 LINE"
);
},
{
closed = 1;
nodes = (
"332 380 OFFCURVE",
"371 355 OFFCURVE",
"372 354 CURVE",
"372 87 LINE",
"352 72 OFFCURVE",
"311 49 OFFCURVE",
"261 49 CURVE SMOOTH",
"168 49 OFFCURVE",
"122 120 OFFCURVE",
"122 225 CURVE SMOOTH",
"122 314 OFFCURVE",
"176 380 OFFCURVE",
"261 380 CURVE SMOOTH"
);
}
);
};
layerId = "6E1B38A8-44EA-440A-BD04-FE41D2B0BC62";
paths = (
{
closed = 1;
nodes = (
"356 -124 LINE",
"254 -124 LINE",
"254 -224 LINE",
"550 -224 LINE",
"550 -124 LINE",
"484 -124 LINE",
"484 408 LINE",
"392 460 OFFCURVE",
"313 474 OFFCURVE",
"260 474 CURVE SMOOTH",
"127 474 OFFCURVE",
"27 400 OFFCURVE",
"27 235 CURVE SMOOTH",
"27 78 OFFCURVE",
"120 -20 OFFCURVE",
"255 -20 CURVE SMOOTH",
"295 -20 OFFCURVE",
"333 -12 OFFCURVE",
"356 0 CURVE"
);
},
{
closed = 1;
nodes = (
"356 96 LINE",
"341 90 OFFCURVE",
"311 81 OFFCURVE",
"266 81 CURVE SMOOTH",
"193 81 OFFCURVE",
"156 145 OFFCURVE",
"156 235 CURVE SMOOTH",
"156 324 OFFCURVE",
"193 371 OFFCURVE",
"267 371 CURVE SMOOTH",
"323 371 OFFCURVE",
"356 346 OFFCURVE",
"356 346 CURVE"
);
}
);
width = 555;
}
);
leftKerningGroup = o;
unicode = 0071;
},
{
glyphname = r;
layers = (
{
layerId = UUID0;
paths = (
{
closed = 1;
nodes = (
"58 443 LINE",
"37 381 LINE",
"133 348 LINE",
"133 62 LINE",
"49 62 LINE",
"49 0 LINE",
"309 0 LINE",
"309 62 LINE",
"211 62 LINE",
"211 345 LINE",
"211 345 OFFCURVE",
"270 379 OFFCURVE",
"334 379 CURVE",
"344 323 LINE",
"409 337 LINE",
"392 442 LINE",
"392 442 OFFCURVE",
"389 444 OFFCURVE",
"354 444 CURVE SMOOTH",
"272 444 OFFCURVE",
"211 410 OFFCURVE",
"191 397 CURVE"
);
}
);
width = 432;
},
{
background = {
paths = (
{
closed = 1;
nodes = (
"21 381 LINE",
"117 348 LINE",
"117 62 LINE",
"33 62 LINE",
"33 0 LINE",
"292 0 LINE",
"292 62 LINE",
"195 62 LINE",
"195 345 LINE",
"195 345 OFFCURVE",
"253 379 OFFCURVE",
"318 379 CURVE",
"328 323 LINE",
"393 337 LINE",
"375 442 LINE",
"375 442 OFFCURVE",
"373 444 OFFCURVE",
"338 444 CURVE SMOOTH",
"256 444 OFFCURVE",
"195 410 OFFCURVE",
"175 397 CURVE",
"42 443 LINE"
);
}
);
};
layerId = "6E1B38A8-44EA-440A-BD04-FE41D2B0BC62";
paths = (
{
closed = 1;
nodes = (
"40 464 LINE",
"7 362 LINE",
"103 330 LINE",
"103 101 LINE",
"19 101 LINE",
"19 0 LINE",
"327 0 LINE",
"327 101 LINE",
"229 101 LINE",
"230 318 LINE",
"247 333 OFFCURVE",
"285 350 OFFCURVE",
"312 354 CURVE",
"325 301 LINE",
"430 323 LINE",
"405 467 LINE",
"396 470 OFFCURVE",
"376 474 OFFCURVE",
"352 474 CURVE SMOOTH",
"272 474 OFFCURVE",
"210 428 OFFCURVE",
"188 414 CURVE"
);
}
);
width = 434;
}
);
leftKerningGroup = n;
unicode = 0072;
},
{
glyphname = s;
layers = (
{
background = {
paths = (
{
closed = 1;
nodes = (
"417 321 LINE",
"401 410 LINE",
"401 410 OFFCURVE",
"328 444 OFFCURVE",
"221 444 CURVE SMOOTH",
"111 444 OFFCURVE",
"51 393 OFFCURVE",
"51 323 CURVE SMOOTH",
"51 250 OFFCURVE",
"91 196 OFFCURVE",
"190 186 CURVE SMOOTH",
"291 176 LINE SMOOTH",
"334 171 OFFCURVE",
"354 151 OFFCURVE",
"354 122 CURVE SMOOTH",
"354 75 OFFCURVE",
"316 49 OFFCURVE",
"240 49 CURVE SMOOTH",
"189 49 OFFCURVE",
"149 62 OFFCURVE",
"124 75 CURVE",
"112 137 LINE",
"47 123 LINE",
"63 34 LINE",
"63 34 OFFCURVE",
"149 -15 OFFCURVE",
"242 -15 CURVE SMOOTH",
"349 -15 OFFCURVE",
"427 32 OFFCURVE",
"427 122 CURVE SMOOTH",
"427 208 OFFCURVE",
"365 248 OFFCURVE",
"288 256 CURVE SMOOTH",
"200 265 LINE SMOOTH",
"146 271 OFFCURVE",
"123 283 OFFCURVE",
"123 323 CURVE SMOOTH",
"123 367 OFFCURVE",
"168 380 OFFCURVE",
"215 380 CURVE SMOOTH",
"282 380 OFFCURVE",
"322 369 OFFCURVE",
"342 362 CURVE",
"353 307 LINE"
);
}
);
};
layerId = UUID0;
paths = (
{
closed = 1;
nodes = (
"353 307 LINE",
"417 321 LINE",
"398 415 LINE",
"352 438 OFFCURVE",
"313 444 OFFCURVE",
"230 444 CURVE SMOOTH",
"117 444 OFFCURVE",
"51 396 OFFCURVE",
"51 318 CURVE SMOOTH",
"51 233 OFFCURVE",
"91 200 OFFCURVE",
"190 190 CURVE SMOOTH",
"291 180 LINE SMOOTH",
"334 175 OFFCURVE",
"354 151 OFFCURVE",
"354 122 CURVE SMOOTH",
"354 75 OFFCURVE",
"316 49 OFFCURVE",
"240 49 CURVE SMOOTH",
"199 49 OFFCURVE",
"159 52 OFFCURVE",
"124 70 CURVE",
"112 137 LINE",
"47 123 LINE",
"66 19 LINE",
"117 -8 OFFCURVE",
"176 -15 OFFCURVE",
"242 -15 CURVE SMOOTH",
"349 -15 OFFCURVE",
"427 32 OFFCURVE",
"427 122 CURVE SMOOTH",
"427 208 OFFCURVE",
"381 246 OFFCURVE",
"288 256 CURVE SMOOTH",
"200 265 LINE SMOOTH",
"146 271 OFFCURVE",
"123 283 OFFCURVE",
"123 323 CURVE SMOOTH",
"123 366 OFFCURVE",
"159 380 OFFCURVE",
"237 380 CURVE SMOOTH",
"284 380 OFFCURVE",
"322 369 OFFCURVE",
"342 362 CURVE"
);
}
);
width = 473;
},
{
background = {
paths = (
{
closed = 1;
nodes = (
"408 321 LINE",
"389 415 LINE",
"342 438 OFFCURVE",
"304 444 OFFCURVE",
"221 444 CURVE SMOOTH",
"107 444 OFFCURVE",
"42 396 OFFCURVE",
"42 318 CURVE SMOOTH",
"42 233 OFFCURVE",
"82 200 OFFCURVE",
"181 190 CURVE SMOOTH",
"281 180 LINE SMOOTH",
"325 175 OFFCURVE",
"344 151 OFFCURVE",
"344 122 CURVE SMOOTH",
"344 75 OFFCURVE",
"307 49 OFFCURVE",
"230 49 CURVE SMOOTH",
"189 49 OFFCURVE",
"149 52 OFFCURVE",
"114 70 CURVE",
"103 137 LINE",
"38 123 LINE",
"56 19 LINE",
"107 -8 OFFCURVE",
"166 -15 OFFCURVE",
"232 -15 CURVE SMOOTH",
"339 -15 OFFCURVE",
"417 32 OFFCURVE",
"417 122 CURVE SMOOTH",
"417 208 OFFCURVE",
"371 246 OFFCURVE",
"278 256 CURVE SMOOTH",
"190 265 LINE SMOOTH",
"136 271 OFFCURVE",
"113 283 OFFCURVE",
"113 323 CURVE SMOOTH",
"113 366 OFFCURVE",
"149 380 OFFCURVE",
"228 380 CURVE SMOOTH",
"274 380 OFFCURVE",
"313 369 OFFCURVE",
"333 362 CURVE",
"343 307 LINE"
);
}
);
};
layerId = "6E1B38A8-44EA-440A-BD04-FE41D2B0BC62";
paths = (
{
closed = 1;
nodes = (
"318 322 LINE",
"422 338 LINE",
"406 437 LINE",
"361 456 OFFCURVE",
"302 473 OFFCURVE",
"235 473 CURVE SMOOTH",
"106 473 OFFCURVE",
"33 417 OFFCURVE",
"33 327 CURVE SMOOTH",
"33 234 OFFCURVE",
"87 184 OFFCURVE",
"193 173 CURVE",
"264 167 LINE SMOOTH",
"298 164 OFFCURVE",
"312 147 OFFCURVE",
"312 127 CURVE SMOOTH",
"312 103 OFFCURVE",
"296 83 OFFCURVE",
"241 83 CURVE SMOOTH",
"197 83 OFFCURVE",
"156 92 OFFCURVE",
"139 97 CURVE",
"130 136 LINE",
"29 120 LINE",
"43 14 LINE",
"90 -5 OFFCURVE",
"168 -20 OFFCURVE",
"243 -20 CURVE SMOOTH",
"363 -20 OFFCURVE",
"435 32 OFFCURVE",
"435 134 CURVE SMOOTH",
"435 224 OFFCURVE",
"387 271 OFFCURVE",
"288 281 CURVE",
"190 291 LINE",
"157 295 OFFCURVE",
"141 305 OFFCURVE",
"141 333 CURVE SMOOTH",
"141 360 OFFCURVE",
"174 371 OFFCURVE",
"242 371 CURVE SMOOTH",
"265 371 OFFCURVE",
"293 365 OFFCURVE",
"310 358 CURVE"
);
}
);
width = 464;
}
);
unicode = 0073;
},
{
glyphname = germandbls;
layers = (
{
layerId = UUID0;
paths = (
{
closed = 1;
nodes = (
"131 429 LINE",
"47 429 LINE",
"47 367 LINE",
"131 367 LINE",
"131 62 LINE",
"47 62 LINE",
"47 0 LINE",
"209 0 LINE",
"209 457 LINE SMOOTH",
"209 537 OFFCURVE",
"229 578 OFFCURVE",
"315 578 CURVE SMOOTH",
"372 578 OFFCURVE",
"401 543 OFFCURVE",
"401 514 CURVE SMOOTH",
"401 444 OFFCURVE",
"288 438 OFFCURVE",
"288 324 CURVE SMOOTH",
"288 270 OFFCURVE",
"335 221 OFFCURVE",
"410 195 CURVE SMOOTH",
"448 182 OFFCURVE",
"491 164 OFFCURVE",
"491 112 CURVE SMOOTH",
"491 75 OFFCURVE",
"463 49 OFFCURVE",
"422 49 CURVE SMOOTH",
"373 49 OFFCURVE",
"352 73 OFFCURVE",
"352 73 CURVE",
"342 132 LINE",
"277 118 LINE",
"293 29 LINE",
"293 29 OFFCURVE",
"336 -15 OFFCURVE",
"421 -15 CURVE SMOOTH",
"497 -15 OFFCURVE",
"563 31 OFFCURVE",
"563 112 CURVE SMOOTH",
"563 198 OFFCURVE",
"516 239 OFFCURVE",
"450 263 CURVE SMOOTH",
"397 282 OFFCURVE",
"366 297 OFFCURVE",
"366 331 CURVE SMOOTH",
"366 391 OFFCURVE",
"475 415 OFFCURVE",
"475 514 CURVE SMOOTH",
"475 588 OFFCURVE",
"418 642 OFFCURVE",
"310 642 CURVE SMOOTH",
"182 642 OFFCURVE",
"131 585 OFFCURVE",
"131 473 CURVE SMOOTH"
);
}
);
width = 594;
},
{
background = {
paths = (
{
closed = 1;
nodes = (
"31 0 LINE",
"193 0 LINE",
"193 457 LINE SMOOTH",
"193 537 OFFCURVE",
"213 578 OFFCURVE",
"299 578 CURVE SMOOTH",
"356 578 OFFCURVE",
"385 543 OFFCURVE",
"385 514 CURVE SMOOTH",
"385 444 OFFCURVE",
"272 438 OFFCURVE",
"272 324 CURVE SMOOTH",
"272 270 OFFCURVE",
"319 221 OFFCURVE",
"394 195 CURVE SMOOTH",
"432 182 OFFCURVE",
"475 164 OFFCURVE",
"475 112 CURVE SMOOTH",
"475 75 OFFCURVE",
"447 49 OFFCURVE",
"406 49 CURVE SMOOTH",
"357 49 OFFCURVE",
"336 73 OFFCURVE",
"336 73 CURVE",
"326 132 LINE",
"261 118 LINE",
"277 29 LINE",
"277 29 OFFCURVE",
"320 -15 OFFCURVE",
"405 -15 CURVE SMOOTH",
"481 -15 OFFCURVE",
"547 31 OFFCURVE",
"547 112 CURVE SMOOTH",
"547 198 OFFCURVE",
"500 239 OFFCURVE",
"434 263 CURVE SMOOTH",
"381 282 OFFCURVE",
"350 297 OFFCURVE",
"350 331 CURVE SMOOTH",
"350 391 OFFCURVE",
"459 415 OFFCURVE",
"459 514 CURVE SMOOTH",
"459 588 OFFCURVE",
"402 642 OFFCURVE",
"294 642 CURVE SMOOTH",
"166 642 OFFCURVE",
"115 585 OFFCURVE",
"115 473 CURVE SMOOTH",
"115 429 LINE",
"31 429 LINE",
"31 367 LINE",
"115 367 LINE",
"115 62 LINE",
"31 62 LINE"
);
}
);
};
layerId = "6E1B38A8-44EA-440A-BD04-FE41D2B0BC62";
paths = (
{
closed = 1;
nodes = (
"7 454 LINE",
"7 343 LINE",
"91 343 LINE",
"91 112 LINE",
"7 112 LINE",
"7 0 LINE",
"218 0 LINE",
"218 457 LINE SMOOTH",
"218 521 OFFCURVE",
"223 573 OFFCURVE",
"299 573 CURVE SMOOTH",
"352 573 OFFCURVE",
"381 550 OFFCURVE",
"381 514 CURVE SMOOTH",
"381 443 OFFCURVE",
"256 433 OFFCURVE",
"256 324 CURVE SMOOTH",
"256 259 OFFCURVE",
"286 232 OFFCURVE",
"366 194 CURVE SMOOTH",
"424 167 OFFCURVE",
"436 139 OFFCURVE",
"436 120 CURVE SMOOTH",
"436 101 OFFCURVE",
"423 76 OFFCURVE",
"385 76 CURVE SMOOTH",
"360 76 OFFCURVE",
"345 84 OFFCURVE",
"339 89 CURVE",
"330 139 LINE",
"235 120 LINE",
"251 33 LINE",
"251 33 OFFCURVE",
"290 -17 OFFCURVE",
"386 -17 CURVE SMOOTH",
"475 -17 OFFCURVE",
"552 34 OFFCURVE",
"552 130 CURVE SMOOTH",
"552 191 OFFCURVE",
"508 236 OFFCURVE",
"437 270 CURVE SMOOTH",
"382 295 OFFCURVE",
"370 311 OFFCURVE",
"370 336 CURVE SMOOTH",
"370 392 OFFCURVE",
"493 401 OFFCURVE",
"493 514 CURVE SMOOTH",
"493 602 OFFCURVE",
"418 667 OFFCURVE",
"294 667 CURVE SMOOTH",
"148 667 OFFCURVE",
"91 602 OFFCURVE",
"91 454 CURVE"
);
}
);
width = 604;
}
);
leftKerningGroup = f;
unicode = 00DF;
},
{
glyphname = t;
layers = (
{
layerId = UUID0;
paths = (
{
closed = 1;
nodes = (
"178 367 LINE",
"303 367 LINE",
"303 429 LINE",
"178 429 LINE",
"178 544 LINE",
"102 526 LINE",
"102 429 LINE",
"19 429 LINE",
"19 367 LINE",
"102 367 LINE",
"102 149 LINE SMOOTH",
"102 20 OFFCURVE",
"171 -15 OFFCURVE",
"243 -15 CURVE SMOOTH",
"269 -15 OFFCURVE",
"294 -10 OFFCURVE",
"318 -4 CURVE",
"303 52 LINE",
"281 46 OFFCURVE",
"266 44 OFFCURVE",
"248 44 CURVE SMOOTH",
"189 44 OFFCURVE",
"178 104 OFFCURVE",
"178 193 CURVE SMOOTH"
);
}
);
width = 341;
},
{
background = {
paths = (
{
closed = 1;
nodes = (
"305 429 LINE",
"180 429 LINE",
"180 534 LINE",
"104 516 LINE",
"104 429 LINE",
"21 429 LINE",
"21 367 LINE",
"104 367 LINE",
"104 149 LINE SMOOTH",
"104 39 OFFCURVE",
"160 -15 OFFCURVE",
"252 -15 CURVE SMOOTH",
"291 -15 OFFCURVE",
"320 -4 OFFCURVE",
"320 -4 CURVE",
"305 52 LINE",
"304 52 OFFCURVE",
"282 47 OFFCURVE",
"256 47 CURVE",
"176 52 OFFCURVE",
"180 139 OFFCURVE",
"180 193 CURVE SMOOTH",
"180 367 LINE",
"305 367 LINE"
);
}
);
};
layerId = "6E1B38A8-44EA-440A-BD04-FE41D2B0BC62";
paths = (
{
closed = 1;
nodes = (
"213 353 LINE",
"333 353 LINE",
"333 454 LINE",
"213 454 LINE",
"213 574 LINE",
"87 535 LINE",
"87 454 LINE",
"4 454 LINE",
"4 353 LINE",
"87 353 LINE",
"87 167 LINE SMOOTH",
"87 41 OFFCURVE",
"153 -20 OFFCURVE",
"260 -20 CURVE SMOOTH",
"293 -20 OFFCURVE",
"328 -11 OFFCURVE",
"357 -1 CURVE",
"333 93 LINE",
"313 88 OFFCURVE",
"292 85 OFFCURVE",
"267 85 CURVE SMOOTH",
"218 85 OFFCURVE",
"213 152 OFFCURVE",
"213 195 CURVE SMOOTH"
);
}
);
width = 365;
}
);
unicode = 0074;
},
{
glyphname = u;
layers = (
{
layerId = UUID0;
paths = (
{
closed = 1;
nodes = (
"566 -18 LINE",
"586 46 LINE",
"492 78 LINE",
"492 429 LINE",
"330 429 LINE",
"330 367 LINE",
"414 367 LINE",
"414 83 LINE",
"414 83 OFFCURVE",
"360 49 OFFCURVE",
"288 49 CURVE SMOOTH",
"202 49 OFFCURVE",
"182 99 OFFCURVE",
"182 170 CURVE SMOOTH",
"182 429 LINE",
"20 429 LINE",
"20 367 LINE",
"104 367 LINE",
"104 154 LINE SMOOTH",
"104 42 OFFCURVE",
"155 -15 OFFCURVE",
"283 -15 CURVE SMOOTH",
"350 -15 OFFCURVE",
"407 15 OFFCURVE",
"430 29 CURVE"
);
}
);
width = 605;
},
{
background = {
paths = (
{
closed = 1;
nodes = (
"326 367 LINE",
"410 367 LINE",
"410 83 LINE",
"410 83 OFFCURVE",
"356 49 OFFCURVE",
"284 49 CURVE SMOOTH",
"198 49 OFFCURVE",
"178 99 OFFCURVE",
"178 170 CURVE SMOOTH",
"178 429 LINE",
"16 429 LINE",
"16 367 LINE",
"100 367 LINE",
"100 154 LINE SMOOTH",
"100 42 OFFCURVE",
"151 -15 OFFCURVE",
"279 -15 CURVE SMOOTH",
"346 -15 OFFCURVE",
"403 15 OFFCURVE",
"426 29 CURVE",
"563 -18 LINE",
"583 46 LINE",
"488 78 LINE",
"488 429 LINE",
"326 429 LINE"
);
}
);
};
layerId = "6E1B38A8-44EA-440A-BD04-FE41D2B0BC62";
paths = (
{
closed = 1;
nodes = (
"575 -22 LINE",
"610 88 LINE",
"523 118 LINE",
"523 454 LINE",
"320 454 LINE",
"320 353 LINE",
"396 353 LINE",
"396 117 LINE",
"396 117 OFFCURVE",
"340 93 OFFCURVE",
"294 93 CURVE SMOOTH",
"229 93 OFFCURVE",
"213 131 OFFCURVE",
"213 188 CURVE SMOOTH",
"213 454 LINE",
"10 454 LINE",
"10 353 LINE",
"86 353 LINE",
"86 171 LINE SMOOTH",
"86 43 OFFCURVE",
"144 -20 OFFCURVE",
"290 -20 CURVE SMOOTH",
"355 -20 OFFCURVE",
"411 6 OFFCURVE",
"439 22 CURVE"
);
}
);
width = 615;
}
);
leftKerningGroup = u;
rightKerningGroup = u;
unicode = 0075;
},
{
glyphname = uacute;
layers = (
{
background = {
paths = (
{
closed = 1;
nodes = (
"257 512 LINE",
"275 480 LINE",
"508 586 LINE",
"473 652 LINE"
);
}
);
};
components = (
{
name = u;
},
{
name = acute;
transform = "{1, 0, 0, 1, 224, 20}";
}
);
layerId = UUID0;
width = 605;
},
{
components = (
{
name = u;
},
{
name = acute;
transform = "{1, 0, 0, 1, 172, 0}";
}
);
layerId = "6E1B38A8-44EA-440A-BD04-FE41D2B0BC62";
width = 615;
}
);
leftKerningGroup = u;
rightKerningGroup = u;
unicode = 00FA;
},
{
glyphname = ugrave;
layers = (
{
background = {
paths = (
{
closed = 1;
nodes = (
"76 652 LINE",
"41 586 LINE",
"274 480 LINE",
"292 512 LINE"
);
}
);
};
components = (
{
name = u;
},
{
name = grave;
transform = "{1, 0, 0, 1, -1, 1}";
}
);
layerId = UUID0;
width = 605;
},
{
components = (
{
name = u;
},
{
name = grave;
transform = "{1, 0, 0, 1, 104, 0}";
}
);
layerId = "6E1B38A8-44EA-440A-BD04-FE41D2B0BC62";
width = 615;
}
);
leftKerningGroup = u;
rightKerningGroup = u;
unicode = 00F9;
},
{
glyphname = v;
layers = (
{
background = {
paths = (
{
closed = 1;
nodes = (
"14 367 LINE",
"97 367 LINE",
"256 0 LINE",
"337 0 LINE",
"501 367 LINE",
"586 367 LINE",
"586 429 LINE",
"386 429 LINE",
"386 367 LINE",
"430 367 LINE",
"304 69 LINE",
"178 367 LINE",
"224 367 LINE",
"224 429 LINE",
"14 429 LINE"
);
}
);
};
layerId = UUID0;
paths = (
{
closed = 1;
nodes = (
"14 367 LINE",
"97 367 LINE",
"256 0 LINE",
"344 0 LINE",
"508 367 LINE",
"586 367 LINE",
"586 429 LINE",
"386 429 LINE",
"386 367 LINE",
"430 367 LINE",
"304 69 LINE",
"178 367 LINE",
"224 367 LINE",
"224 429 LINE",
"14 429 LINE"
);
}
);
width = 599;
},
{
background = {
paths = (
{
closed = 1;
nodes = (
"0 367 LINE",
"83 367 LINE",
"242 0 LINE",
"330 0 LINE",
"494 367 LINE",
"572 367 LINE",
"572 429 LINE",
"372 429 LINE",
"372 367 LINE",
"416 367 LINE",
"290 69 LINE",
"164 367 LINE",
"210 367 LINE",
"210 429 LINE",
"0 429 LINE"
);
}
);
};
layerId = "6E1B38A8-44EA-440A-BD04-FE41D2B0BC62";
paths = (
{
closed = 1;
nodes = (
"3 353 LINE",
"73 353 LINE",
"230 0 LINE",
"368 0 LINE",
"530 353 LINE",
"593 353 LINE",
"593 454 LINE",
"339 454 LINE",
"339 353 LINE",
"397 353 LINE",
"335 206 LINE",
"298 110 LINE",
"262 206 LINE",
"201 353 LINE",
"258 353 LINE",
"258 454 LINE",
"2 454 LINE"
);
}
);
width = 595;
}
);
unicode = 0076;
},
{
glyphname = w;
layers = (
{
layerId = UUID0;
paths = (
{
closed = 1;
nodes = (
"15 367 LINE",
"99 367 LINE",
"234 0 LINE",
"312 0 LINE",
"409 270 LINE",
"499 0 LINE",
"575 0 LINE",
"714 367 LINE",
"799 367 LINE",
"799 429 LINE",
"603 429 LINE",
"603 367 LINE",
"647 367 LINE",
"544 90 LINE",
"452 368 LINE",
"376 368 LINE",
"277 92 LINE",
"176 367 LINE",
"221 367 LINE",
"221 429 LINE",
"15 429 LINE"
);
}
);
width = 813;
},
{
background = {
paths = (
{
closed = 1;
nodes = (
"6 367 LINE",
"90 367 LINE",
"226 0 LINE",
"303 0 LINE",
"400 270 LINE",
"490 0 LINE",
"566 0 LINE",
"705 367 LINE",
"790 367 LINE",
"790 429 LINE",
"594 429 LINE",
"594 367 LINE",
"638 367 LINE",
"535 90 LINE",
"443 368 LINE",
"368 368 LINE",
"269 92 LINE",
"167 367 LINE",
"212 367 LINE",
"212 429 LINE",
"6 429 LINE"
);
}
);
};
layerId = "6E1B38A8-44EA-440A-BD04-FE41D2B0BC62";
paths = (
{
closed = 1;
nodes = (
"7 353 LINE",
"65 353 LINE",
"190 0 LINE",
"333 0 LINE",
"416 258 LINE",
"489 0 LINE",
"624 0 LINE",
"758 353 LINE",
"814 353 LINE",
"814 454 LINE",
"568 454 LINE",
"568 353 LINE",
"632 353 LINE",
"590 206 LINE",
"563 97 LINE",
"538 206 LINE",
"482 387 LINE",
"351 387 LINE",
"296 206 LINE",
"271 98 LINE",
"243 206 LINE",
"199 353 LINE",
"253 353 LINE",
"253 454 LINE",
"7 454 LINE"
);
}
);
width = 822;
}
);
unicode = 0077;
},
{
glyphname = x;
layers = (
{
layerId = UUID0;
paths = (
{
closed = 1;
nodes = (
"35 367 LINE",
"110 367 LINE",
"252 217 LINE",
"122 62 LINE",
"35 62 LINE",
"35 0 LINE",
"247 0 LINE",
"247 62 LINE",
"203 62 LINE",
"295 171 LINE",
"399 62 LINE",
"354 62 LINE",
"354 0 LINE",
"582 0 LINE",
"582 62 LINE",
"498 62 LINE",
"357 210 LINE",
"489 367 LINE",
"564 367 LINE",
"564 429 LINE",
"364 429 LINE",
"364 367 LINE",
"408 367 LINE",
"315 254 LINE",
"208 367 LINE",
"262 367 LINE",
"262 429 LINE",
"35 429 LINE"
);
}
);
width = 609;
},
{
background = {
paths = (
{
closed = 1;
nodes = (
"354 0 LINE",
"582 0 LINE",
"582 62 LINE",
"498 62 LINE",
"357 210 LINE",
"489 367 LINE",
"564 367 LINE",
"564 429 LINE",
"364 429 LINE",
"364 367 LINE",
"408 367 LINE",
"315 254 LINE",
"208 367 LINE",
"262 367 LINE",
"262 429 LINE",
"35 429 LINE",
"35 367 LINE",
"110 367 LINE",
"252 217 LINE",
"122 62 LINE",
"35 62 LINE",
"35 0 LINE",
"247 0 LINE",
"247 62 LINE",
"203 62 LINE",
"295 171 LINE",
"399 62 LINE",
"354 62 LINE"
);
}
);
};
layerId = "6E1B38A8-44EA-440A-BD04-FE41D2B0BC62";
paths = (
{
closed = 1;
nodes = (
"28 353 LINE",
"109 353 LINE",
"233 234 LINE",
"113 101 LINE",
"28 101 LINE",
"28 0 LINE",
"282 0 LINE",
"282 101 LINE",
"243 101 LINE",
"310 171 LINE",
"380 101 LINE",
"339 101 LINE",
"339 0 LINE",
"595 0 LINE",
"595 101 LINE",
"518 101 LINE",
"388 225 LINE",
"502 353 LINE",
"578 353 LINE",
"578 454 LINE",
"337 454 LINE",
"337 353 LINE",
"372 353 LINE",
"311 290 LINE",
"253 353 LINE",
"282 353 LINE",
"282 454 LINE",
"28 454 LINE"
);
}
);
width = 629;
}
);
unicode = 0078;
},
{
glyphname = y;
layers = (
{
background = {
paths = (
{
closed = 1;
nodes = (
"15 367 LINE",
"86 367 LINE",
"266 -66 LINE",
"258 -89 LINE SMOOTH",
"236 -152 OFFCURVE",
"200 -162 OFFCURVE",
"178 -162 CURVE SMOOTH",
"159 -162 OFFCURVE",
"123 -153 OFFCURVE",
"123 -153 CURVE",
"110 -213 LINE SMOOTH",
"110 -214 OFFCURVE",
"145 -223 OFFCURVE",
"174 -223 CURVE SMOOTH",
"249 -223 OFFCURVE",
"290 -183 OFFCURVE",
"320 -99 CURVE SMOOTH",
"486 367 LINE",
"566 367 LINE",
"566 429 LINE",
"366 429 LINE",
"366 367 LINE",
"421 367 LINE",
"301 29 LINE",
"166 367 LINE",
"223 367 LINE",
"223 429 LINE",
"15 429 LINE"
);
}
);
};
layerId = UUID0;
paths = (
{
closed = 1;
nodes = (
"494 367 LINE",
"566 367 LINE",
"566 429 LINE",
"366 429 LINE",
"366 367 LINE",
"421 367 LINE",
"301 29 LINE",
"166 367 LINE",
"223 367 LINE",
"223 429 LINE",
"15 429 LINE",
"15 367 LINE",
"86 367 LINE",
"266 -66 LINE",
"258 -89 LINE SMOOTH",
"236 -152 OFFCURVE",
"200 -162 OFFCURVE",
"178 -162 CURVE SMOOTH",
"159 -162 OFFCURVE",
"123 -153 OFFCURVE",
"123 -153 CURVE",
"110 -213 LINE",
"110 -214 OFFCURVE",
"145 -223 OFFCURVE",
"174 -223 CURVE SMOOTH",
"249 -223 OFFCURVE",
"297 -183 OFFCURVE",
"328 -99 CURVE SMOOTH"
);
}
);
width = 580;
},
{
background = {
paths = (
{
closed = 1;
nodes = (
"7 367 LINE",
"78 367 LINE",
"258 -66 LINE",
"250 -89 LINE SMOOTH",
"228 -152 OFFCURVE",
"192 -162 OFFCURVE",
"170 -162 CURVE SMOOTH",
"151 -162 OFFCURVE",
"115 -153 OFFCURVE",
"115 -153 CURVE",
"102 -213 LINE",
"102 -214 OFFCURVE",
"137 -223 OFFCURVE",
"166 -223 CURVE SMOOTH",
"241 -223 OFFCURVE",
"290 -183 OFFCURVE",
"320 -99 CURVE SMOOTH",
"486 367 LINE",
"558 367 LINE",
"558 429 LINE",
"358 429 LINE",
"358 367 LINE",
"413 367 LINE",
"293 29 LINE",
"158 367 LINE",
"215 367 LINE",
"215 429 LINE",
"7 429 LINE"
);
}
);
};
layerId = "6E1B38A8-44EA-440A-BD04-FE41D2B0BC62";
paths = (
{
closed = 1;
nodes = (
"514 353 LINE",
"597 353 LINE",
"597 454 LINE",
"349 454 LINE",
"349 353 LINE",
"389 353 LINE",
"302 83 LINE",
"205 353 LINE",
"250 353 LINE",
"250 454 LINE",
"-7 454 LINE",
"-7 353 LINE",
"72 353 LINE",
"130 212 OFFCURVE",
"184 73 OFFCURVE",
"242 -67 CURVE",
"221 -126 OFFCURVE",
"199 -142 OFFCURVE",
"180 -142 CURVE SMOOTH",
"149 -142 OFFCURVE",
"107 -128 OFFCURVE",
"107 -128 CURVE",
"83 -227 LINE",
"83 -228 OFFCURVE",
"138 -248 OFFCURVE",
"171 -248 CURVE SMOOTH",
"258 -248 OFFCURVE",
"317 -210 OFFCURVE",
"353 -107 CURVE SMOOTH"
);
}
);
width = 602;
}
);
leftKerningGroup = y;
rightKerningGroup = y;
unicode = 0079;
},
{
glyphname = yacute;
layers = (
{
background = {
paths = (
{
closed = 1;
nodes = (
"250 512 LINE",
"268 480 LINE",
"501 586 LINE",
"466 652 LINE"
);
}
);
};
components = (
{
name = y;
},
{
name = acute;
transform = "{1, 0, 0, 1, 217, 20}";
}
);
layerId = UUID0;
width = 580;
},
{
components = (
{
name = y;
},
{
name = acute;
transform = "{1, 0, 0, 1, 181, 0}";
}
);
layerId = "6E1B38A8-44EA-440A-BD04-FE41D2B0BC62";
width = 613;
}
);
leftKerningGroup = y;
rightKerningGroup = y;
unicode = 00FD;
},
{
glyphname = z;
layers = (
{
layerId = UUID0;
paths = (
{
closed = 1;
nodes = (
"46 325 LINE",
"111 311 LINE",
"122 367 LINE",
"313 367 LINE",
"50 53 LINE",
"50 0 LINE",
"406 0 LINE",
"427 110 LINE",
"360 122 LINE",
"350 62 LINE",
"140 62 LINE",
"405 379 LINE",
"405 429 LINE",
"65 429 LINE"
);
}
);
width = 466;
},
{
background = {
paths = (
{
closed = 1;
nodes = (
"106 311 LINE",
"117 367 LINE",
"309 367 LINE",
"45 53 LINE",
"45 0 LINE",
"401 0 LINE",
"422 110 LINE",
"355 122 LINE",
"345 62 LINE",
"135 62 LINE",
"400 379 LINE",
"400 429 LINE",
"61 429 LINE",
"42 325 LINE"
);
}
);
};
layerId = "6E1B38A8-44EA-440A-BD04-FE41D2B0BC62";
paths = (
{
closed = 1;
nodes = (
"22 317 LINE",
"135 295 LINE",
"147 353 LINE",
"267 353 LINE",
"40 86 LINE",
"40 0 LINE",
"439 0 LINE",
"469 143 LINE",
"356 164 LINE",
"343 101 LINE",
"206 101 LINE",
"435 371 LINE",
"435 454 LINE",
"50 454 LINE"
);
}
);
width = 487;
}
);
unicode = 007A;
},
{
glyphname = ordfeminine;
layers = (
{
layerId = UUID0;
paths = (
{
closed = 1;
nodes = (
"71 365 LINE",
"118 356 LINE",
"126 390 LINE",
"136 393 OFFCURVE",
"154 397 OFFCURVE",
"175 397 CURVE SMOOTH",
"233 397 OFFCURVE",
"232 360 OFFCURVE",
"232 333 CURVE SMOOTH",
"232 326 LINE",
"232 325 LINE",
"158 326 LINE SMOOTH",
"101 326 OFFCURVE",
"54 303 OFFCURVE",
"55 244 CURVE SMOOTH",
"55 196 OFFCURVE",
"94 159 OFFCURVE",
"162 159 CURVE SMOOTH",
"197 159 OFFCURVE",
"226 170 OFFCURVE",
"247 186 CURVE",
"333 157 LINE",
"348 203 LINE",
"330 209 OFFCURVE",
"308 216 OFFCURVE",
"289 222 CURVE",
"289 325 LINE SMOOTH",
"289 376 OFFCURVE",
"286 444 OFFCURVE",
"173 444 CURVE SMOOTH",
"121 444 OFFCURVE",
"82 426 OFFCURVE",
"82 426 CURVE"
);
},
{
closed = 1;
nodes = (
"232 281 LINE",
"232 230 LINE",
"220 220 OFFCURVE",
"197 205 OFFCURVE",
"165 205 CURVE SMOOTH",
"136 205 OFFCURVE",
"113 218 OFFCURVE",
"113 244 CURVE SMOOTH",
"113 276 OFFCURVE",
"135 281 OFFCURVE",
"160 281 CURVE SMOOTH"
);
}
);
width = 390;
},
{
background = {
paths = (
{
closed = 1;
nodes = (
"113 356 LINE",
"121 390 LINE",
"131 393 OFFCURVE",
"149 397 OFFCURVE",
"170 397 CURVE SMOOTH",
"228 397 OFFCURVE",
"227 360 OFFCURVE",
"227 333 CURVE SMOOTH",
"227 326 LINE",
"227 325 LINE",
"153 326 LINE SMOOTH",
"96 326 OFFCURVE",
"49 303 OFFCURVE",
"50 244 CURVE SMOOTH",
"50 196 OFFCURVE",
"89 159 OFFCURVE",
"157 159 CURVE SMOOTH",
"192 159 OFFCURVE",
"221 170 OFFCURVE",
"242 186 CURVE",
"328 157 LINE",
"343 203 LINE",
"325 209 OFFCURVE",
"303 216 OFFCURVE",
"284 222 CURVE",
"284 325 LINE SMOOTH",
"284 376 OFFCURVE",
"281 444 OFFCURVE",
"168 444 CURVE SMOOTH",
"116 444 OFFCURVE",
"77 426 OFFCURVE",
"77 426 CURVE",
"66 365 LINE"
);
},
{
closed = 1;
nodes = (
"131 205 OFFCURVE",
"108 218 OFFCURVE",
"108 244 CURVE SMOOTH",
"108 276 OFFCURVE",
"130 281 OFFCURVE",
"155 281 CURVE SMOOTH",
"227 281 LINE",
"227 230 LINE",
"215 220 OFFCURVE",
"192 205 OFFCURVE",
"160 205 CURVE SMOOTH"
);
}
);
};
layerId = "6E1B38A8-44EA-440A-BD04-FE41D2B0BC62";
paths = (
{
closed = 1;
nodes = (
"346 142 LINE",
"371 216 LINE",
"316 234 LINE",
"316 341 LINE SMOOTH",
"316 419 OFFCURVE",
"288 474 OFFCURVE",
"170 474 CURVE SMOOTH",
"120 474 OFFCURVE",
"72 457 OFFCURVE",
"56 451 CURVE",
"42 382 LINE",
"118 367 LINE",
"125 400 LINE",
"141 405 OFFCURVE",
"154 406 OFFCURVE",
"171 406 CURVE SMOOTH",
"218 406 OFFCURVE",
"228 376 OFFCURVE",
"228 338 CURVE",
"160 338 LINE SMOOTH",
"89 338 OFFCURVE",
"30 321 OFFCURVE",
"30 245 CURVE SMOOTH",
"30 183 OFFCURVE",
"81 143 OFFCURVE",
"164 143 CURVE SMOOTH",
"204 143 OFFCURVE",
"235 156 OFFCURVE",
"261 171 CURVE"
);
},
{
closed = 1;
nodes = (
"228 275 LINE",
"228 234 LINE",
"214 226 OFFCURVE",
"192 213 OFFCURVE",
"167 213 CURVE SMOOTH",
"143 213 OFFCURVE",
"122 227 OFFCURVE",
"122 246 CURVE SMOOTH",
"122 269 OFFCURVE",
"141 275 OFFCURVE",
"161 275 CURVE SMOOTH"
);
}
);
width = 385;
}
);
unicode = 00AA;
},
{
glyphname = ordmasculine;
layers = (
{
layerId = UUID0;
paths = (
{
closed = 1;
nodes = (
"111 444 OFFCURVE",
"55 392 OFFCURVE",
"55 302 CURVE SMOOTH",
"55 213 OFFCURVE",
"111 161 OFFCURVE",
"190 161 CURVE",
"272 161 OFFCURVE",
"327 213 OFFCURVE",
"327 302 CURVE SMOOTH",
"327 392 OFFCURVE",
"272 444 OFFCURVE",
"190 444 CURVE SMOOTH"
);
},
{
closed = 1;
nodes = (
"243 396 OFFCURVE",
"270 362 OFFCURVE",
"270 302 CURVE SMOOTH",
"270 243 OFFCURVE",
"243 209 OFFCURVE",
"191 209 CURVE SMOOTH",
"139 209 OFFCURVE",
"112 243 OFFCURVE",
"112 302 CURVE SMOOTH",
"112 362 OFFCURVE",
"139 396 OFFCURVE",
"191 396 CURVE"
);
}
);
width = 381;
},
{
background = {
paths = (
{
closed = 1;
nodes = (
"272 161 OFFCURVE",
"327 213 OFFCURVE",
"327 302 CURVE SMOOTH",
"327 392 OFFCURVE",
"272 444 OFFCURVE",
"190 444 CURVE SMOOTH",
"111 444 OFFCURVE",
"55 392 OFFCURVE",
"55 302 CURVE SMOOTH",
"55 213 OFFCURVE",
"111 161 OFFCURVE",
"190 161 CURVE"
);
},
{
closed = 1;
nodes = (
"243 396 OFFCURVE",
"270 362 OFFCURVE",
"270 302 CURVE SMOOTH",
"270 243 OFFCURVE",
"243 209 OFFCURVE",
"191 209 CURVE SMOOTH",
"139 209 OFFCURVE",
"112 243 OFFCURVE",
"112 302 CURVE SMOOTH",
"112 362 OFFCURVE",
"139 396 OFFCURVE",
"191 396 CURVE"
);
}
);
};
layerId = "6E1B38A8-44EA-440A-BD04-FE41D2B0BC62";
paths = (
{
closed = 1;
nodes = (
"99 474 OFFCURVE",
"34 415 OFFCURVE",
"34 311 CURVE SMOOTH",
"34 209 OFFCURVE",
"99 150 OFFCURVE",
"190 150 CURVE SMOOTH",
"289 150 OFFCURVE",
"347 219 OFFCURVE",
"347 311 CURVE SMOOTH",
"347 415 OFFCURVE",
"284 474 OFFCURVE",
"190 474 CURVE SMOOTH"
);
},
{
closed = 1;
nodes = (
"228 390 OFFCURVE",
"249 358 OFFCURVE",
"249 311 CURVE SMOOTH",
"249 265 OFFCURVE",
"228 233 OFFCURVE",
"191 233 CURVE SMOOTH",
"152 233 OFFCURVE",
"133 265 OFFCURVE",
"133 311 CURVE SMOOTH",
"133 358 OFFCURVE",
"152 390 OFFCURVE",
"191 390 CURVE SMOOTH"
);
}
);
width = 381;
}
);
unicode = 00BA;
},
{
glyphname = "A-cy";
layers = (
{
anchors = (
{
name = top;
position = "{323, 589}";
}
);
components = (
{
name = A;
}
);
layerId = UUID0;
width = 647;
},
{
anchors = (
{
name = top;
position = "{324, 589}";
}
);
background = {
paths = (
{
closed = 1;
nodes = (
"637 69 LINE",
"542 69 LINE",
"361 589 LINE",
"167 589 LINE",
"167 520 LINE",
"268 520 LINE",
"102 69 LINE",
"6 69 LINE",
"6 0 LINE",
"239 0 LINE",
"239 69 LINE",
"175 69 LINE",
"209 160 LINE",
"425 160 LINE",
"457 69 LINE",
"394 69 LINE",
"394 0 LINE",
"637 0 LINE"
);
},
{
closed = 1;
nodes = (
"322 488 LINE",
"401 229 LINE",
"234 229 LINE"
);
},
{
closed = 1;
nodes = (
"266 279 LINE",
"323 470 LINE",
"379 279 LINE"
);
},
{
closed = 1;
nodes = (
"391 589 LINE",
"151 589 LINE",
"151 477 LINE",
"229 477 LINE",
"103 112 LINE",
"4 112 LINE",
"4 0 LINE",
"270 0 LINE",
"270 112 LINE",
"215 112 LINE",
"241 197 LINE",
"403 197 LINE",
"428 112 LINE",
"379 112 LINE",
"379 0 LINE",
"644 0 LINE",
"644 112 LINE",
"556 112 LINE"
);
}
);
};
components = (
{
name = A;
}
);
layerId = "6E1B38A8-44EA-440A-BD04-FE41D2B0BC62";
width = 648;
}
);
unicode = 0410;
},
{
glyphname = "Be-cy";
layers = (
{
layerId = UUID0;
paths = (
{
closed = 1;
nodes = (
"223 332 LINE",
"223 520 LINE",
"422 520 LINE",
"444 426 LINE",
"517 442 LINE",
"486 589 LINE",
"50 589 LINE",
"50 520 LINE",
"145 520 LINE",
"145 69 LINE",
"50 69 LINE",
"50 0 LINE",
"365 0 LINE SMOOTH",
"480 0 OFFCURVE",
"542 64 OFFCURVE",
"542 184 CURVE SMOOTH",
"542 287 OFFCURVE",
"473 340 OFFCURVE",
"345 336 CURVE SMOOTH"
);
},
{
closed = 1;
nodes = (
"222 70 LINE",
"223 263 LINE",
"349 267 LINE SMOOTH",
"419 269 OFFCURVE",
"457 242 OFFCURVE",
"457 176 CURVE SMOOTH",
"457 102 OFFCURVE",
"416 70 OFFCURVE",
"341 70 CURVE SMOOTH"
);
}
);
width = 597;
},
{
background = {
paths = (
{
closed = 1;
nodes = (
"517 442 LINE",
"486 589 LINE",
"50 589 LINE",
"50 520 LINE",
"145 520 LINE",
"145 69 LINE",
"50 69 LINE",
"50 0 LINE",
"365 0 LINE SMOOTH",
"490 0 OFFCURVE",
"542 86 OFFCURVE",
"542 184 CURVE SMOOTH",
"542 311 OFFCURVE",
"442 339 OFFCURVE",
"345 336 CURVE SMOOTH",
"223 332 LINE",
"223 520 LINE",
"422 520 LINE",
"444 426 LINE"
);
},
{
closed = 1;
nodes = (
"349 267 LINE",
"421 269 OFFCURVE",
"457 247 OFFCURVE",
"457 184 CURVE SMOOTH",
"457 113 OFFCURVE",
"414 70 OFFCURVE",
"341 70 CURVE SMOOTH",
"222 70 LINE",
"223 263 LINE"
);
}
);
};
layerId = "6E1B38A8-44EA-440A-BD04-FE41D2B0BC62";
paths = (
{
closed = 1;
nodes = (
"251 355 LINE",
"251 477 LINE",
"317 477 LINE",
"306 589 LINE",
"41 589 LINE",
"41 477 LINE",
"122 477 LINE",
"122 112 LINE",
"41 112 LINE",
"41 0 LINE",
"368 0 LINE SMOOTH",
"499 0 OFFCURVE",
"569 62 OFFCURVE",
"569 176 CURVE SMOOTH",
"569 293 OFFCURVE",
"499 355 OFFCURVE",
"368 355 CURVE SMOOTH"
);
},
{
closed = 1;
nodes = (
"251 112 LINE",
"251 244 LINE",
"351 244 LINE",
"406 244 OFFCURVE",
"436 221 OFFCURVE",
"436 179 CURVE",
"436 135 OFFCURVE",
"404 112 OFFCURVE",
"345 112 CURVE SMOOTH"
);
},
{
closed = 1;
nodes = (
"266 477 LINE",
"411 477 LINE",
"437 400 LINE",
"543 436 LINE",
"491 589 LINE",
"266 589 LINE"
);
}
);
width = 585;
}
);
unicode = 0411;
},
{
glyphname = "Ve-cy";
layers = (
{
components = (
{
name = B;
}
);
layerId = UUID0;
width = 600;
},
{
background = {
paths = (
{
closed = 1;
nodes = (
"311 520 LINE",
"376 520 OFFCURVE",
"435 521 OFFCURVE",
"435 434 CURVE SMOOTH",
"435 345 OFFCURVE",
"373 328 OFFCURVE",
"345 328 CURVE SMOOTH",
"220 328 LINE",
"220 520 LINE"
);
},
{
closed = 1;
nodes = (
"344 268 LINE",
"416 268 OFFCURVE",
"454 237 OFFCURVE",
"454 174 CURVE SMOOTH",
"454 103 OFFCURVE",
"411 70 OFFCURVE",
"338 70 CURVE SMOOTH",
"219 70 LINE",
"220 268 LINE"
);
},
{
closed = 1;
nodes = (
"45 589 LINE",
"45 520 LINE",
"140 520 LINE",
"140 69 LINE",
"45 69 LINE",
"45 0 LINE",
"362 0 LINE SMOOTH",
"487 0 OFFCURVE",
"539 76 OFFCURVE",
"539 174 CURVE SMOOTH",
"539 229 OFFCURVE",
"503 283 OFFCURVE",
"449 304 CURVE",
"482 326 OFFCURVE",
"520 379 OFFCURVE",
"520 435 CURVE SMOOTH",
"520 547 OFFCURVE",
"451 589 OFFCURVE",
"300 589 CURVE SMOOTH"
);
},
{
closed = 1;
nodes = (
"317 477 LINE",
"391 477 OFFCURVE",
"417 458 OFFCURVE",
"417 410 CURVE SMOOTH",
"417 355 OFFCURVE",
"372 345 OFFCURVE",
"352 345 CURVE SMOOTH",
"251 345 LINE",
"251 477 LINE"
);
},
{
closed = 1;
nodes = (
"351 244 LINE",
"406 244 OFFCURVE",
"436 228 OFFCURVE",
"436 179 CURVE SMOOTH",
"436 120 OFFCURVE",
"403 112 OFFCURVE",
"345 112 CURVE SMOOTH",
"251 112 LINE",
"251 244 LINE"
);
},
{
closed = 1;
nodes = (
"41 589 LINE",
"41 477 LINE",
"122 477 LINE",
"122 112 LINE",
"41 112 LINE",
"41 0 LINE",
"368 0 LINE SMOOTH",
"505 0 OFFCURVE",
"569 64 OFFCURVE",
"569 165 CURVE SMOOTH",
"569 216 OFFCURVE",
"542 275 OFFCURVE",
"492 299 CURVE",
"536 338 OFFCURVE",
"551 378 OFFCURVE",
"551 416 CURVE SMOOTH",
"551 545 OFFCURVE",
"474 589 OFFCURVE",
"306 589 CURVE SMOOTH"
);
}
);
};
components = (
{
name = B;
}
);
layerId = "6E1B38A8-44EA-440A-BD04-FE41D2B0BC62";
width = 614;
}
);
unicode = 0412;
},
{
glyphname = "Ge-cy";
layers = (
{
anchors = (
{
name = bottomright;
position = "{223, 69}";
},
{
name = center;
position = "{242, 295}";
},
{
name = top;
position = "{320, 589}";
}
);
layerId = UUID0;
paths = (
{
closed = 1;
nodes = (
"51 520 LINE",
"146 520 LINE",
"145 69 LINE",
"50 69 LINE",
"50 0 LINE",
"346 0 LINE",
"346 69 LINE",
"223 69 LINE",
"225 520 LINE",
"413 520 LINE",
"435 426 LINE",
"504 441 LINE",
"476 589 LINE",
"51 589 LINE"
);
}
);
width = 484;
},
{
anchors = (
{
name = bottomright;
position = "{265, 112}";
},
{
name = center;
position = "{278, 295}";
},
{
name = top;
position = "{347, 589}";
}
);
background = {
paths = (
{
closed = 1;
nodes = (
"504 441 LINE",
"476 589 LINE",
"51 589 LINE",
"51 520 LINE",
"146 520 LINE",
"145 69 LINE",
"50 69 LINE",
"50 0 LINE",
"346 0 LINE",
"346 69 LINE",
"223 69 LINE",
"225 520 LINE",
"413 520 LINE",
"435 426 LINE"
);
}
);
};
layerId = "6E1B38A8-44EA-440A-BD04-FE41D2B0BC62";
paths = (
{
closed = 1;
nodes = (
"42 477 LINE",
"137 477 LINE",
"137 112 LINE",
"41 112 LINE",
"41 0 LINE",
"360 0 LINE",
"360 112 LINE",
"265 112 LINE",
"265 477 LINE",
"401 477 LINE",
"438 370 LINE",
"544 406 LINE",
"482 589 LINE",
"42 589 LINE"
);
}
);
width = 555;
}
);
unicode = 0413;
},
{
color = 9;
glyphname = "Gheupturn-cy";
layers = (
{
anchors = (
{
name = top;
position = "{293, 700}";
}
);
layerId = UUID0;
paths = (
{
closed = 1;
nodes = (
"425 589 LINE",
"51 589 LINE",
"51 520 LINE",
"146 520 LINE",
"145 69 LINE",
"50 69 LINE",
"50 0 LINE",
"346 0 LINE",
"346 69 LINE",
"223 69 LINE",
"225 520 LINE",
"488 520 LINE",
"516 668 LINE",
"447 683 LINE"
);
}
);
width = 501;
},
{
layerId = "6E1B38A8-44EA-440A-BD04-FE41D2B0BC62";
paths = (
{
closed = 1;
nodes = (
"373 589 LINE",
"42 589 LINE",
"42 477 LINE",
"137 477 LINE",
"137 112 LINE",
"41 112 LINE",
"41 0 LINE",
"360 0 LINE",
"360 112 LINE",
"265 112 LINE",
"265 477 LINE",
"453 477 LINE",
"453 478 LINE",
"454 477 LINE",
"516 660 LINE",
"410 696 LINE"
);
}
);
width = 525;
}
);
unicode = 0490;
},
{
color = 5;
glyphname = "De-cy";
layers = (
{
layerId = UUID0;
paths = (
{
closed = 1;
nodes = (
"19 69 LINE",
"19 -133 LINE",
"87 -133 LINE",
"87 0 LINE",
"540 0 LINE",
"540 -133 LINE",
"608 -133 LINE",
"608 69 LINE",
"515 69 LINE",
"515 520 LINE",
"612 520 LINE",
"612 589 LINE",
"71 589 LINE",
"71 520 LINE",
"177 520 LINE",
"159 306 LINE SMOOTH",
"149 182 OFFCURVE",
"126 111 OFFCURVE",
"89 69 CURVE"
);
},
{
closed = 1;
nodes = (
"199 115 OFFCURVE",
"220 189 OFFCURVE",
"230 296 CURVE SMOOTH",
"251 520 LINE",
"438 520 LINE",
"438 69 LINE",
"162 69 LINE"
);
}
);
width = 657;
},
{
background = {
paths = (
{
closed = 1;
nodes = (
"72 520 LINE",
"178 520 LINE",
"166 334 LINE SMOOTH",
"159 231 OFFCURVE",
"131 112 OFFCURVE",
"90 69 CURVE",
"10 69 LINE",
"10 -133 LINE",
"79 -133 LINE",
"79 0 LINE",
"542 0 LINE",
"542 -133 LINE",
"609 -133 LINE",
"609 69 LINE",
"517 69 LINE",
"517 520 LINE",
"613 520 LINE",
"613 589 LINE",
"72 589 LINE"
);
},
{
closed = 1;
nodes = (
"252 520 LINE",
"439 520 LINE",
"439 69 LINE",
"173 69 LINE",
"211 127 OFFCURVE",
"228 212 OFFCURVE",
"237 333 CURVE SMOOTH"
);
}
);
};
layerId = "6E1B38A8-44EA-440A-BD04-FE41D2B0BC62";
paths = (
{
closed = 1;
nodes = (
"7 112 LINE",
"7 -134 LINE",
"113 -134 LINE",
"113 0 LINE",
"516 0 LINE",
"516 -134 LINE",
"623 -134 LINE",
"623 112 LINE",
"527 112 LINE",
"527 477 LINE",
"623 477 LINE",
"623 589 LINE",
"43 589 LINE",
"43 477 LINE",
"146 477 LINE",
"131 298 LINE SMOOTH",
"122 209 OFFCURVE",
"111 166 OFFCURVE",
"86 112 CURVE"
);
},
{
closed = 1;
nodes = (
"219 161 OFFCURVE",
"233 209 OFFCURVE",
"241 291 CURVE SMOOTH",
"259 477 LINE",
"399 477 LINE",
"399 112 LINE",
"197 112 LINE"
);
}
);
width = 663;
}
);
unicode = 0414;
},
{
glyphname = "Ie-cy";
layers = (
{
anchors = (
{
name = top;
position = "{305, 589}";
}
);
components = (
{
name = E;
}
);
layerId = UUID0;
width = 605;
},
{
anchors = (
{
name = top;
position = "{299, 589}";
}
);
background = {
paths = (
{
closed = 1;
nodes = (
"500 176 LINE",
"460 69 LINE",
"225 69 LINE",
"225 270 LINE",
"413 270 LINE",
"413 339 LINE",
"226 339 LINE",
"226 520 LINE",
"440 520 LINE",
"480 413 LINE",
"546 435 LINE",
"494 589 LINE",
"51 589 LINE",
"51 520 LINE",
"146 520 LINE",
"146 69 LINE",
"50 69 LINE",
"50 0 LINE",
"514 0 LINE",
"566 154 LINE"
);
},
{
closed = 1;
nodes = (
"480 210 LINE",
"445 112 LINE",
"252 112 LINE",
"252 243 LINE",
"415 243 LINE",
"415 354 LINE",
"252 354 LINE",
"252 477 LINE",
"418 477 LINE",
"455 368 LINE",
"561 404 LINE",
"499 589 LINE",
"42 589 LINE",
"42 477 LINE",
"123 477 LINE",
"122 112 LINE",
"41 112 LINE",
"41 0 LINE",
"525 0 LINE",
"585 173 LINE"
);
}
);
};
components = (
{
name = E;
}
);
layerId = "6E1B38A8-44EA-440A-BD04-FE41D2B0BC62";
width = 598;
}
);
unicode = 0415;
},
{
glyphname = "Io-cy";
layers = (
{
components = (
{
name = "Ie-cy";
},
{
name = dieresiscomb;
transform = "{1, 0, 0, 1, 130, 160}";
}
);
layerId = UUID0;
width = 605;
},
{
background = {
paths = (
{
closed = 1;
nodes = (
"494 176 LINE",
"454 69 LINE",
"219 69 LINE",
"220 270 LINE",
"407 270 LINE",
"407 339 LINE",
"220 339 LINE",
"220 520 LINE",
"434 520 LINE",
"474 413 LINE",
"540 435 LINE",
"488 589 LINE",
"45 589 LINE",
"45 520 LINE",
"140 520 LINE",
"139 69 LINE",
"44 69 LINE",
"44 0 LINE",
"508 0 LINE",
"560 154 LINE"
);
},
{
closed = 1;
nodes = (
"236 754 OFFCURVE",
"207 783 OFFCURVE",
"174 783 CURVE SMOOTH",
"140 783 OFFCURVE",
"112 754 OFFCURVE",
"112 721 CURVE SMOOTH",
"112 687 OFFCURVE",
"140 659 OFFCURVE",
"174 659 CURVE SMOOTH",
"207 659 OFFCURVE",
"236 687 OFFCURVE",
"236 721 CURVE SMOOTH"
);
},
{
closed = 1;
nodes = (
"452 754 OFFCURVE",
"423 783 OFFCURVE",
"390 783 CURVE SMOOTH",
"356 783 OFFCURVE",
"328 754 OFFCURVE",
"328 721 CURVE SMOOTH",
"328 687 OFFCURVE",
"356 659 OFFCURVE",
"390 659 CURVE SMOOTH",
"423 659 OFFCURVE",
"452 687 OFFCURVE",
"452 721 CURVE SMOOTH"
);
}
);
};
components = (
{
name = "Ie-cy";
},
{
name = dieresiscomb;
transform = "{1, 0, 0, 1, 107, 135}";
}
);
layerId = "6E1B38A8-44EA-440A-BD04-FE41D2B0BC62";
width = 598;
}
);
unicode = 0401;
},
{
glyphname = "Zhe-cy";
layers = (
{
anchors = (
{
name = bottomright;
position = "{787, 69}";
},
{
name = top;
position = "{446, 589}";
}
);
layerId = UUID0;
paths = (
{
closed = 1;
nodes = (
"13 520 LINE",
"104 520 LINE",
"263 306 LINE",
"104 69 LINE",
"9 69 LINE",
"9 0 LINE",
"259 0 LINE",
"259 69 LINE",
"196 69 LINE",
"319 268 LINE",
"406 268 LINE",
"406 69 LINE",
"342 69 LINE",
"342 0 LINE",
"549 0 LINE",
"549 69 LINE",
"483 69 LINE",
"484 268 LINE",
"572 268 LINE",
"695 69 LINE",
"632 69 LINE",
"632 0 LINE",
"882 0 LINE",
"882 69 LINE",
"787 69 LINE",
"627 306 LINE",
"787 520 LINE",
"878 520 LINE",
"878 589 LINE",
"632 589 LINE",
"632 520 LINE",
"703 520 LINE",
"566 337 LINE",
"484 337 LINE",
"485 519 LINE",
"549 519 LINE",
"549 588 LINE",
"342 588 LINE",
"342 519 LINE",
"406 519 LINE",
"406 337 LINE",
"325 337 LINE",
"187 520 LINE",
"259 520 LINE",
"259 589 LINE",
"13 589 LINE"
);
}
);
width = 891;
},
{
anchors = (
{
name = bottomright;
position = "{842, 112}";
},
{
name = top;
position = "{466, 589}";
}
);
background = {
paths = (
{
closed = 1;
nodes = (
"652 0 LINE",
"902 0 LINE",
"902 69 LINE",
"808 69 LINE",
"647 306 LINE",
"808 520 LINE",
"898 520 LINE",
"898 589 LINE",
"652 589 LINE",
"652 520 LINE",
"724 520 LINE",
"586 337 LINE",
"504 337 LINE",
"505 519 LINE",
"569 519 LINE",
"569 588 LINE",
"362 588 LINE",
"362 519 LINE",
"426 519 LINE",
"426 337 LINE",
"346 337 LINE",
"208 520 LINE",
"279 520 LINE",
"279 589 LINE",
"34 589 LINE",
"34 520 LINE",
"125 520 LINE",
"284 306 LINE",
"125 69 LINE",
"29 69 LINE",
"29 0 LINE",
"279 0 LINE",
"279 69 LINE",
"216 69 LINE",
"339 268 LINE",
"426 268 LINE",
"426 69 LINE",
"362 69 LINE",
"362 0 LINE",
"569 0 LINE",
"569 69 LINE",
"503 69 LINE",
"504 268 LINE",
"592 268 LINE",
"715 69 LINE",
"652 69 LINE"
);
}
);
};
layerId = "6E1B38A8-44EA-440A-BD04-FE41D2B0BC62";
paths = (
{
closed = 1;
nodes = (
"12 477 LINE",
"94 477 LINE",
"216 307 LINE",
"88 112 LINE",
"5 112 LINE",
"5 0 LINE",
"288 0 LINE",
"288 112 LINE",
"239 112 LINE",
"318 237 LINE",
"401 236 LINE",
"401 112 LINE",
"331 112 LINE",
"331 0 LINE",
"599 0 LINE",
"599 112 LINE",
"529 112 LINE",
"529 236 LINE",
"612 237 LINE",
"691 112 LINE",
"643 112 LINE",
"643 0 LINE",
"925 0 LINE",
"925 112 LINE",
"842 112 LINE",
"714 307 LINE",
"837 477 LINE",
"918 477 LINE",
"918 589 LINE",
"643 589 LINE",
"643 477 LINE",
"695 477 LINE",
"607 348 LINE",
"529 348 LINE",
"529 477 LINE",
"599 477 LINE",
"599 589 LINE",
"331 589 LINE",
"331 477 LINE",
"401 477 LINE",
"401 348 LINE",
"323 348 LINE",
"236 477 LINE",
"288 477 LINE",
"288 589 LINE",
"12 589 LINE"
);
}
);
width = 931;
}
);
unicode = 0416;
},
{
color = 4;
glyphname = "Ze-cy";
layers = (
{
anchors = (
{
name = bottom;
position = "{276, 0}";
},
{
name = top;
position = "{276, 589}";
}
);
background = {
paths = (
{
closed = 1;
nodes = (
"95 604 OFFCURVE",
"-14 480 OFFCURVE",
"-14 295 CURVE SMOOTH",
"-14 109 OFFCURVE",
"96 -15 OFFCURVE",
"260 -15 CURVE SMOOTH",
"424 -15 OFFCURVE",
"534 109 OFFCURVE",
"534 295 CURVE SMOOTH",
"534 480 OFFCURVE",
"424 604 OFFCURVE",
"259 604 CURVE SMOOTH"
);
},
{
closed = 1;
nodes = (
"379 534 OFFCURVE",
"449 446 OFFCURVE",
"449 295 CURVE SMOOTH",
"449 143 OFFCURVE",
"379 55 OFFCURVE",
"260 55 CURVE SMOOTH",
"141 55 OFFCURVE",
"71 143 OFFCURVE",
"71 295 CURVE SMOOTH",
"71 446 OFFCURVE",
"141 534 OFFCURVE",
"260 534 CURVE SMOOTH"
);
}
);
};
layerId = UUID0;
paths = (
{
closed = 1;
nodes = (
"417 -15 OFFCURVE",
"492 68 OFFCURVE",
"492 162 CURVE SMOOTH",
"492 242 OFFCURVE",
"444 286 OFFCURVE",
"402 305 CURVE",
"437 329 OFFCURVE",
"473 368 OFFCURVE",
"473 440 CURVE SMOOTH",
"473 541 OFFCURVE",
"383 604 OFFCURVE",
"262 604 CURVE SMOOTH",
"173 604 OFFCURVE",
"92 558 OFFCURVE",
"91 557 CURVE",
"70 441 LINE",
"139 426 LINE",
"158 509 LINE",
"181 521 OFFCURVE",
"216 536 OFFCURVE",
"260 536 CURVE SMOOTH",
"313 536 OFFCURVE",
"388 515 OFFCURVE",
"388 435 CURVE SMOOTH",
"388 364 OFFCURVE",
"338 334 OFFCURVE",
"266 334 CURVE SMOOTH",
"208 334 LINE",
"208 265 LINE",
"244 265 LINE SMOOTH",
"294 265 OFFCURVE",
"407 273 OFFCURVE",
"407 178 CURVE SMOOTH",
"407 99 OFFCURVE",
"346 55 OFFCURVE",
"260 55 CURVE SMOOTH",
"185 55 OFFCURVE",
"151 87 OFFCURVE",
"142 97 CURVE",
"125 163 LINE",
"57 147 LINE",
"80 48 LINE",
"80 48 OFFCURVE",
"143 -15 OFFCURVE",
"259 -15 CURVE SMOOTH"
);
}
);
width = 552;
},
{
anchors = (
{
name = bottom;
position = "{286, 0}";
},
{
name = top;
position = "{286, 589}";
}
);
background = {
paths = (
{
closed = 1;
nodes = (
"9 589 LINE",
"9 477 LINE",
"90 477 LINE",
"90 112 LINE",
"9 112 LINE",
"9 0 LINE",
"336 0 LINE SMOOTH",
"467 0 OFFCURVE",
"537 58 OFFCURVE",
"537 162 CURVE SMOOTH",
"537 234 OFFCURVE",
"503 281 OFFCURVE",
"440 299 CURVE",
"491 324 OFFCURVE",
"519 369 OFFCURVE",
"519 429 CURVE SMOOTH",
"519 532 OFFCURVE",
"433 589 OFFCURVE",
"274 589 CURVE SMOOTH"
);
},
{
closed = 1;
nodes = (
"219 112 LINE",
"219 244 LINE",
"319 244 LINE SMOOTH",
"374 244 OFFCURVE",
"404 221 OFFCURVE",
"404 179 CURVE SMOOTH",
"404 135 OFFCURVE",
"372 112 OFFCURVE",
"313 112 CURVE SMOOTH"
);
},
{
closed = 1;
nodes = (
"219 345 LINE",
"219 477 LINE",
"285 477 LINE SMOOTH",
"350 477 OFFCURVE",
"385 454 OFFCURVE",
"385 410 CURVE SMOOTH",
"385 368 OFFCURVE",
"362 345 OFFCURVE",
"320 345 CURVE SMOOTH"
);
}
);
};
layerId = "6E1B38A8-44EA-440A-BD04-FE41D2B0BC62";
paths = (
{
closed = 1;
nodes = (
"55 446 LINE",
"164 421 LINE",
"184 483 LINE",
"220 498 OFFCURVE",
"258 503 OFFCURVE",
"292 503 CURVE SMOOTH",
"350 503 OFFCURVE",
"395 479 OFFCURVE",
"395 428 CURVE SMOOTH",
"395 374 OFFCURVE",
"360 345 OFFCURVE",
"296 345 CURVE SMOOTH",
"226 345 LINE",
"226 244 LINE",
"299 244 LINE SMOOTH",
"374 244 OFFCURVE",
"414 215 OFFCURVE",
"414 162 CURVE SMOOTH",
"414 110 OFFCURVE",
"357 86 OFFCURVE",
"288 86 CURVE SMOOTH",
"243 86 OFFCURVE",
"205 98 OFFCURVE",
"173 122 CURVE",
"154 191 LINE",
"45 163 LINE",
"73 54 LINE",
"122 5 OFFCURVE",
"196 -21 OFFCURVE",
"289 -21 CURVE SMOOTH",
"446 -20 OFFCURVE",
"536 46 OFFCURVE",
"536 156 CURVE SMOOTH",
"536 225 OFFCURVE",
"495 281 OFFCURVE",
"410 300 CURVE",
"473 320 OFFCURVE",
"515 370 OFFCURVE",
"515 432 CURVE SMOOTH",
"515 554 OFFCURVE",
"414 611 OFFCURVE",
"294 611 CURVE SMOOTH",
"223 611 OFFCURVE",
"147 592 OFFCURVE",
"79 552 CURVE"
);
}
);
width = 581;
},
{
anchors = (
{
name = bottom;
position = "{268, 0}";
},
{
name = top;
position = "{268, 589}";
}
);
associatedMasterId = "6E1B38A8-44EA-440A-BD04-FE41D2B0BC62";
background = {
paths = (
{
closed = 1;
nodes = (
"139 426 LINE",
"158 509 LINE",
"181 521 OFFCURVE",
"216 536 OFFCURVE",
"260 536 CURVE SMOOTH",
"313 536 OFFCURVE",
"388 515 OFFCURVE",
"388 435 CURVE SMOOTH",
"388 364 OFFCURVE",
"338 334 OFFCURVE",
"266 334 CURVE SMOOTH",
"208 334 LINE",
"208 265 LINE",
"244 265 LINE SMOOTH",
"294 265 OFFCURVE",
"407 273 OFFCURVE",
"407 178 CURVE SMOOTH",
"407 99 OFFCURVE",
"348 53 OFFCURVE",
"262 53 CURVE SMOOTH",
"187 53 OFFCURVE",
"151 87 OFFCURVE",
"142 97 CURVE",
"125 163 LINE",
"57 147 LINE",
"80 48 LINE",
"80 48 OFFCURVE",
"143 -15 OFFCURVE",
"259 -15 CURVE SMOOTH",
"417 -15 OFFCURVE",
"492 68 OFFCURVE",
"492 162 CURVE SMOOTH",
"492 242 OFFCURVE",
"444 286 OFFCURVE",
"402 305 CURVE",
"437 329 OFFCURVE",
"473 368 OFFCURVE",
"473 440 CURVE SMOOTH",
"473 541 OFFCURVE",
"383 604 OFFCURVE",
"262 604 CURVE SMOOTH",
"173 604 OFFCURVE",
"92 558 OFFCURVE",
"91 557 CURVE",
"92 556 LINE",
"70 441 LINE"
);
}
);
};
layerId = "0DAC535C-910D-4EBB-8F11-38BFA8235837";
name = "Nov 1 16, 12:56";
paths = (
{
closed = 1;
nodes = (
"47 446 LINE",
"156 421 LINE",
"176 496 LINE",
"195 506 OFFCURVE",
"228 516 OFFCURVE",
"262 516 CURVE SMOOTH",
"286 516 OFFCURVE",
"367 510 OFFCURVE",
"367 438 CURVE SMOOTH",
"367 419 OFFCURVE",
"367 353 OFFCURVE",
"268 353 CURVE",
"208 353 LINE",
"208 247 LINE",
"271 247 LINE SMOOTH",
"326 247 OFFCURVE",
"386 239 OFFCURVE",
"386 182 CURVE SMOOTH",
"386 118 OFFCURVE",
"340 80 OFFCURVE",
"264 80 CURVE SMOOTH",
"205 80 OFFCURVE",
"175 103 OFFCURVE",
"165 112 CURVE",
"147 175 LINE",
"39 147 LINE",
"65 54 LINE",
"73 46 OFFCURVE",
"137 -21 OFFCURVE",
"261 -21 CURVE",
"380 -20 OFFCURVE",
"518 21 OFFCURVE",
"518 166 CURVE SMOOTH",
"518 231 OFFCURVE",
"489 291 OFFCURVE",
"425 312 CURVE",
"477 335 OFFCURVE",
"497 376 OFFCURVE",
"497 432 CURVE SMOOTH",
"497 543 OFFCURVE",
"392 611 OFFCURVE",
"264 611 CURVE SMOOTH",
"183 611 OFFCURVE",
"127 587 OFFCURVE",
"71 552 CURVE"
);
}
);
width = 536;
}
);
unicode = 0417;
},
{
color = 4;
glyphname = "Ii-cy";
layers = (
{
anchors = (
{
name = bottomright;
position = "{623, 69}";
},
{
name = top;
position = "{409, 589}";
}
);
guideLines = (
{
angle = 90;
position = "{226, 67}";
},
{
angle = 89.873;
position = "{546, 295}";
}
);
layerId = UUID0;
paths = (
{
closed = 1;
nodes = (
"54 520 LINE",
"149 520 LINE",
"148 69 LINE",
"53 69 LINE",
"53 0 LINE",
"226 0 LINE",
"546 479 LINE",
"545 69 LINE",
"481 69 LINE",
"481 0 LINE",
"718 0 LINE",
"718 69 LINE",
"623 69 LINE",
"624 520 LINE",
"720 520 LINE",
"720 589 LINE",
"547 589 LINE",
"226 98 LINE",
"228 520 LINE",
"292 520 LINE",
"292 589 LINE",
"54 589 LINE"
);
}
);
width = 758;
},
{
anchors = (
{
name = bottomright;
position = "{669, 112}";
},
{
name = top;
position = "{404, 589}";
}
);
background = {
paths = (
{
closed = 1;
nodes = (
"34 0 LINE",
"248 0 LINE",
"526 520 LINE",
"525 69 LINE",
"461 69 LINE",
"461 0 LINE",
"698 0 LINE",
"698 69 LINE",
"604 69 LINE",
"604 520 LINE",
"701 520 LINE",
"701 589 LINE",
"490 589 LINE",
"207 68 LINE",
"208 520 LINE",
"272 520 LINE",
"272 589 LINE",
"35 589 LINE",
"35 520 LINE",
"129 520 LINE",
"128 69 LINE",
"34 69 LINE"
);
}
);
};
guideLines = (
{
angle = 90;
position = "{248, 116}";
}
);
layerId = "6E1B38A8-44EA-440A-BD04-FE41D2B0BC62";
paths = (
{
closed = 1;
nodes = (
"37 477 LINE",
"119 477 LINE",
"119 112 LINE",
"37 112 LINE",
"37 0 LINE",
"248 0 LINE",
"540 438 LINE",
"540 112 LINE",
"487 112 LINE",
"487 0 LINE",
"750 0 LINE",
"750 112 LINE",
"669 112 LINE",
"669 477 LINE",
"750 477 LINE",
"750 589 LINE",
"540 589 LINE",
"248 154 LINE",
"248 477 LINE",
"302 477 LINE",
"302 588 LINE",
"37 589 LINE"
);
}
);
width = 788;
}
);
unicode = 0418;
},
{
glyphname = "Ka-cy";
layers = (
{
anchors = (
{
name = bottomright;
position = "{547, 69}";
},
{
name = center;
position = "{310, 295}";
},
{
name = top;
position = "{329, 589}";
}
);
components = (
{
name = K;
}
);
layerId = UUID0;
width = 668;
},
{
anchors = (
{
name = bottomright;
position = "{562, 112}";
},
{
name = center;
position = "{317, 295}";
},
{
name = top;
position = "{334, 589}";
}
);
background = {
paths = (
{
closed = 1;
nodes = (
"380 0 LINE",
"649 0 LINE",
"649 69 LINE",
"549 69 LINE",
"384 315 LINE",
"535 520 LINE",
"626 520 LINE",
"626 589 LINE",
"380 589 LINE",
"380 520 LINE",
"449 520 LINE",
"311 332 LINE",
"223 332 LINE",
"223 519 LINE",
"287 519 LINE",
"287 588 LINE",
"50 588 LINE",
"50 519 LINE",
"144 519 LINE",
"144 69 LINE",
"50 69 LINE",
"50 0 LINE",
"287 0 LINE",
"287 69 LINE",
"224 69 LINE",
"223 263 LINE",
"323 263 LINE",
"452 69 LINE",
"380 69 LINE"
);
},
{
closed = 1;
nodes = (
"358 0 LINE",
"663 0 LINE",
"663 112 LINE",
"562 112 LINE",
"411 312 LINE",
"544 477 LINE",
"638 477 LINE",
"638 589 LINE",
"373 589 LINE",
"373 477 LINE",
"414 477 LINE",
"318 346 LINE",
"250 346 LINE",
"250 477 LINE",
"305 477 LINE",
"305 589 LINE",
"41 589 LINE",
"41 477 LINE",
"122 477 LINE",
"122 112 LINE",
"41 112 LINE",
"41 0 LINE",
"305 0 LINE",
"305 112 LINE",
"250 112 LINE",
"250 238 LINE",
"310 238 LINE",
"406 112 LINE",
"358 112 LINE"
);
}
);
};
components = (
{
name = K;
}
);
layerId = "6E1B38A8-44EA-440A-BD04-FE41D2B0BC62";
width = 668;
}
);
unicode = 041A;
},
{
color = 5;
glyphname = "El-cy";
layers = (
{
layerId = UUID0;
paths = (
{
closed = 1;
nodes = (
"256 522 LINE",
"440 522 LINE",
"439 69 LINE",
"355 69 LINE",
"355 0 LINE",
"612 0 LINE",
"612 69 LINE",
"517 69 LINE",
"519 522 LINE",
"614 522 LINE",
"614 591 LINE",
"97 591 LINE",
"97 522 LINE",
"183 522 LINE",
"166 278 LINE SMOOTH",
"156 131 OFFCURVE",
"135 64 OFFCURVE",
"25 64 CURVE",
"25 -9 LINE",
"35 -10 OFFCURVE",
"45 -10 OFFCURVE",
"54 -10 CURVE SMOOTH",
"186 -9 OFFCURVE",
"224 105 OFFCURVE",
"235 253 CURVE SMOOTH"
);
}
);
width = 659;
},
{
background = {
paths = (
{
closed = 1;
nodes = (
"391 0 LINE",
"648 0 LINE",
"648 69 LINE",
"553 69 LINE",
"555 522 LINE",
"650 522 LINE",
"650 591 LINE",
"133 591 LINE",
"133 522 LINE",
"219 522 LINE",
"202 278 LINE SMOOTH",
"195 180 OFFCURVE",
"177 105 OFFCURVE",
"135 78 CURVE SMOOTH",
"112 63 OFFCURVE",
"75 64 OFFCURVE",
"61 64 CURVE",
"61 -9 LINE",
"71 -10 OFFCURVE",
"81 -10 OFFCURVE",
"90 -10 CURVE SMOOTH",
"222 -9 OFFCURVE",
"260 105 OFFCURVE",
"271 253 CURVE",
"292 522 LINE",
"476 522 LINE",
"475 69 LINE",
"391 69 LINE"
);
}
);
};
layerId = "6E1B38A8-44EA-440A-BD04-FE41D2B0BC62";
paths = (
{
closed = 1;
nodes = (
"300 477 LINE",
"430 477 LINE",
"430 112 LINE",
"372 112 LINE",
"372 0 LINE",
"654 0 LINE",
"654 112 LINE",
"558 112 LINE",
"558 477 LINE",
"654 477 LINE",
"654 589 LINE",
"98 589 LINE",
"98 477 LINE",
"189 477 LINE",
"176 294 LINE SMOOTH",
"165 136 OFFCURVE",
"139 103 OFFCURVE",
"25 103 CURVE",
"25 -17 LINE",
"58 -20 OFFCURVE",
"59 -19 OFFCURVE",
"69 -19 CURVE SMOOTH",
"141 -19 OFFCURVE",
"201 10 OFFCURVE",
"235 68 CURVE SMOOTH",
"262 114 OFFCURVE",
"277 176 OFFCURVE",
"284 266 CURVE SMOOTH"
);
}
);
width = 695;
}
);
unicode = 041B;
},
{
glyphname = "Em-cy";
layers = (
{
components = (
{
name = M;
}
);
layerId = UUID0;
width = 866;
},
{
background = {
paths = (
{
closed = 1;
nodes = (
"479 71 LINE",
"601 390 LINE",
"647 520 LINE",
"647 69 LINE",
"583 69 LINE",
"583 0 LINE",
"822 0 LINE",
"822 69 LINE",
"727 69 LINE",
"727 520 LINE",
"822 520 LINE",
"822 589 LINE",
"609 589 LINE",
"443 160 LINE",
"293 541 LINE",
"275 589 LINE",
"53 589 LINE",
"53 520 LINE",
"146 520 LINE",
"145 69 LINE",
"50 69 LINE",
"50 0 LINE",
"283 0 LINE",
"283 69 LINE",
"218 69 LINE",
"220 520 LINE",
"266 392 LINE",
"394 71 LINE"
);
}
);
};
components = (
{
name = M;
}
);
layerId = "6E1B38A8-44EA-440A-BD04-FE41D2B0BC62";
width = 869;
}
);
unicode = 041C;
},
{
glyphname = "En-cy";
layers = (
{
anchors = (
{
name = bottomright;
position = "{589, 69}";
}
);
components = (
{
name = H;
}
);
layerId = UUID0;
width = 733;
},
{
anchors = (
{
name = bottomright;
position = "{619, 112}";
}
);
background = {
paths = (
{
closed = 1;
nodes = (
"449 0 LINE",
"687 0 LINE",
"687 69 LINE",
"592 69 LINE",
"594 520 LINE",
"689 520 LINE",
"689 589 LINE",
"450 589 LINE",
"450 520 LINE",
"514 520 LINE",
"513 336 LINE",
"225 336 LINE",
"226 520 LINE",
"290 520 LINE",
"290 589 LINE",
"51 589 LINE",
"51 520 LINE",
"146 520 LINE",
"145 69 LINE",
"50 69 LINE",
"50 0 LINE",
"288 0 LINE",
"288 69 LINE",
"224 69 LINE",
"225 267 LINE",
"513 267 LINE",
"513 69 LINE",
"449 69 LINE"
);
},
{
closed = 1;
nodes = (
"490 241 LINE",
"490 112 LINE",
"437 112 LINE",
"437 0 LINE",
"700 0 LINE",
"700 112 LINE",
"619 112 LINE",
"619 477 LINE",
"700 477 LINE",
"700 589 LINE",
"435 589 LINE",
"435 477 LINE",
"490 477 LINE",
"490 353 LINE",
"251 353 LINE",
"251 477 LINE",
"306 477 LINE",
"306 588 LINE",
"305 588 LINE",
"306 589 LINE",
"41 589 LINE",
"41 477 LINE",
"122 477 LINE",
"122 112 LINE",
"41 112 LINE",
"41 0 LINE",
"304 0 LINE",
"304 112 LINE",
"251 112 LINE",
"251 241 LINE"
);
}
);
};
components = (
{
name = H;
}
);
layerId = "6E1B38A8-44EA-440A-BD04-FE41D2B0BC62";
width = 741;
}
);
unicode = 041D;
},
{
glyphname = "O-cy";
layers = (
{
anchors = (
{
name = center;
position = "{336, 295}";
},
{
name = top;
position = "{336, 589}";
}
);
components = (
{
name = O;
}
);
layerId = UUID0;
width = 655;
},
{
anchors = (
{
name = center;
position = "{328, 295}";
},
{
name = top;
position = "{328, 589}";
}
);
background = {
paths = (
{
closed = 1;
nodes = (
"465 536 OFFCURVE",
"527 447 OFFCURVE",
"527 295 CURVE SMOOTH",
"527 143 OFFCURVE",
"465 53 OFFCURVE",
"338 53 CURVE SMOOTH",
"211 53 OFFCURVE",
"149 143 OFFCURVE",
"149 295 CURVE SMOOTH",
"149 447 OFFCURVE",
"211 536 OFFCURVE",
"338 536 CURVE SMOOTH"
);
},
{
closed = 1;
nodes = (
"502 -15 OFFCURVE",
"612 105 OFFCURVE",
"612 295 CURVE SMOOTH",
"612 485 OFFCURVE",
"501 604 OFFCURVE",
"337 604 CURVE SMOOTH",
"175 604 OFFCURVE",
"64 485 OFFCURVE",
"64 295 CURVE SMOOTH",
"64 105 OFFCURVE",
"176 -15 OFFCURVE",
"338 -15 CURVE SMOOTH"
);
},
{
closed = 1;
nodes = (
"438 503 OFFCURVE",
"493 432 OFFCURVE",
"493 295 CURVE SMOOTH",
"493 158 OFFCURVE",
"437 86 OFFCURVE",
"328 86 CURVE SMOOTH",
"219 86 OFFCURVE",
"164 158 OFFCURVE",
"164 295 CURVE SMOOTH",
"164 432 OFFCURVE",
"219 503 OFFCURVE",
"328 503 CURVE SMOOTH"
);
},
{
closed = 1;
nodes = (
"504 -22 OFFCURVE",
"626 90 OFFCURVE",
"626 295 CURVE SMOOTH",
"626 500 OFFCURVE",
"503 611 OFFCURVE",
"327 611 CURVE SMOOTH",
"153 611 OFFCURVE",
"30 500 OFFCURVE",
"30 295 CURVE SMOOTH",
"30 90 OFFCURVE",
"154 -22 OFFCURVE",
"328 -22 CURVE SMOOTH"
);
}
);
};
components = (
{
name = O;
}
);
layerId = "6E1B38A8-44EA-440A-BD04-FE41D2B0BC62";
width = 656;
}
);
unicode = 041E;
},
{
glyphname = "Pe-cy";
layers = (
{
anchors = (
{
name = bottomright;
position = "{560, 69}";
}
);
layerId = UUID0;
paths = (
{
closed = 1;
nodes = (
"47 520 LINE",
"142 520 LINE",
"141 69 LINE",
"46 69 LINE",
"46 0 LINE",
"303 0 LINE",
"303 69 LINE",
"219 69 LINE",
"221 520 LINE",
"483 520 LINE",
"482 69 LINE",
"398 69 LINE",
"398 0 LINE",
"655 0 LINE",
"655 69 LINE",
"560 69 LINE",
"562 520 LINE",
"657 520 LINE",
"657 589 LINE",
"47 589 LINE"
);
}
);
width = 694;
},
{
anchors = (
{
name = bottomright;
position = "{565, 112}";
}
);
background = {
paths = (
{
closed = 1;
nodes = (
"398 0 LINE",
"655 0 LINE",
"655 69 LINE",
"560 69 LINE",
"562 520 LINE",
"657 520 LINE",
"657 589 LINE",
"47 589 LINE",
"47 520 LINE",
"142 520 LINE",
"141 69 LINE",
"46 69 LINE",
"46 0 LINE",
"303 0 LINE",
"303 69 LINE",
"219 69 LINE",
"221 520 LINE",
"483 520 LINE",
"482 69 LINE",
"398 69 LINE"
);
}
);
};
layerId = "6E1B38A8-44EA-440A-BD04-FE41D2B0BC62";
paths = (
{
closed = 1;
nodes = (
"42 477 LINE",
"137 477 LINE",
"137 112 LINE",
"41 112 LINE",
"41 0 LINE",
"323 0 LINE",
"323 112 LINE",
"265 112 LINE",
"265 477 LINE",
"438 477 LINE",
"438 112 LINE",
"379 112 LINE",
"379 0 LINE",
"661 0 LINE",
"661 112 LINE",
"565 112 LINE",
"565 477 LINE",
"661 477 LINE",
"661 589 LINE",
"42 589 LINE"
);
}
);
width = 702;
}
);
unicode = 041F;
},
